<?xml version="1.0" encoding="UTF-8"?>
<svg xmlns="http://www.w3.org/2000/svg" viewBox="0 0 2048 2048">
  <defs>
    <style>
      .cls-1 {
        fill: #f3e2af;
      }

      .cls-2 {
        fill: #303338;
      }

      .cls-3 {
        fill: #bb6a23;
      }

      .cls-4, .cls-5 {
        fill: #162834;
      }

      .cls-6 {
        fill: #af5622;
      }

      .cls-7 {
        fill: #0a0805;
      }

      .cls-8 {
        fill: #a15319;
      }

      .cls-9 {
        fill: #dc983a;
      }

      .cls-10 {
        fill: #dd993b;
      }

      .cls-11 {
        fill: #fcfcfb;
      }

      .cls-12 {
        fill: #606060;
      }

      .cls-13 {
        fill: #dedede;
      }

      .cls-14 {
        fill: #b23b20;
      }

      .cls-15 {
        fill: #da973a;
      }

      .cls-5, .cls-16 {
        opacity: 0;
      }

      .cls-17 {
        fill: #e6ab59;
      }

      .cls-18 {
        fill: #246e21;
      }

      .cls-19 {
        fill: #c6722c;
      }

      .cls-20 {
        fill: #7c3d24;
      }
    </style>
  </defs>
  <g id="Layer_145" data-name="Layer 145">
    <g>
      <rect class="cls-16" x="0" y="0" width="2048" height="2048.11"/>
      <rect class="cls-2" x="0" y="0" width="2048" height="2048.11"/>
    </g>
  </g>
  <g id="Layer_148" data-name="Layer 148">
    <g>
      <rect class="cls-5" x="0" y="0" width="2048" height="2048.11"/>
      <rect class="cls-4" x="0" y="0" width="2048" height="2048.11"/>
    </g>
  </g>
  <g id="Layer_147" data-name="Layer 147">
    <g>
      <path class="cls-12" d="M960.95,794.2c-1.63,1.34-3.61,2.3-5.78,1.99-10.36-1.47-27.22-39.24-38.35-49.07-9.16-8.09-43.5-21.12-44.78-31.39s8.2-31.94,7.66-43.71-11.76-21.6-11.6-32.35c.12-8.01,15.24-44.67,22.48-48.16s16.15-1.42,23.41-3.25c57.12-14.38,30.92-95.55-21.82-88.45-6.4.86-19.75,9.35-20.87,9.17-1.9-.31-16.02-23.66-23.09-28.41-41.53-27.87-94.56,15.83-70.54,62.92,15.22,29.83,29.65,24.34,17.58,66.97-8.33,29.42-17.95,17.47-31.82,32.93-7.62,8.49-15.07,45.42-32.42,32.43-3.63-2.72-30.42-43.91-31.45-48.58-2.74-12.45,7.37-18.22,10.95-29.15,19.73-60.23-64.84-69.92-61.34-8.97-36.45-23.53-90.39-.18-83.3,46.2,6.67,43.59,48.13,29.35,67.93,42.5,4.3,2.86,25.8,31.11,27.26,35.65,4,12.41-9.97,23.82-10.12,38.46-.14,13.79,13.71,36.9,13.26,47.72-.04,1-11.89,10.98-13.95,14.31-7.9,12.78-12.87,28.58-15.74,43.3-1.5,7.73-2.64,37.15-4.81,39.92s-53.63,19.29-63.1,23.57c-53.03,23.96-136.75,79.82-104.4,149.54,7.78,16.76,48.93,44.15,49.51,47.56.39,2.25-11.75,34.27-12.75,43.76-3.94,37.3,5.38,76.56,28.37,106.34,7.6,9.84,22.21,19.71,28.21,30.83,5.82,10.78,4.81,22.21,10.12,31.77,4.64,8.37,16.15,12.92,21.48,20.42,7.06,9.96,6.94,22.89,16.26,33.25,17.89,19.88,71.83,24.16,81.69,38.29,15.52,22.24-26.95,91.57,25.87,96,52.51,4.41,24.74-58.77,31.77-76.97,7.56-19.57,84.95,11.19,98.8,14.96,133.65,36.41,497.65,44.35,596.09-68.49,9.37-10.74,14.14-23.84,25.72-33.31,13.29-10.87,34.56-17.83,49.89-28.18,75.8-51.2,110.93-150.62,60-232.25-4.59-7.36-18.57-19.91-20.52-27.09-2.79-10.28,1.65-21.13-3.03-31.25-8.28-17.89-28.58-7.8-41.55-11.79-2.24-.69-28.02-24.9-28.35-26.82-.71-4.2,17.89-24.61,21-31.72,5.59-12.77,4.44-30.31,10.63-40.78,11.28-19.05,30.53-15.98,30.44-50.99-.02-7.1-5.56-22.26-4.88-26.19.84-4.86,10.51-12.11,13.35-17.22,7.55-13.59,8.81-41.61-3.25-52.77-3.69-3.42-10.57-4.23-13.22-7.73-4.45-5.87-1.97-15.89-3.87-22.79-2.54-9.2-15.99-19.99-16.32-23.85-.3-3.47,17.46-28.24,18.87-43.94,8.24-91.48-132.25-161.58-208.31-170.15-92.41-10.41-285.82,30.32-288.43,149.44-.12,5.7,5,16.26,3.56,20.62-1.74,5.26-29.38,12.61-33.63,33.15-1.55,7.5.79,14.53-2.2,22.55-2.42,6.49-10.23,9.66-13.05,15.51s-2.25,16.66-5.26,21.4c-2.8,4.4-9.79,4.42-14.28,8.57s-7.51,11.73-10.01,13.79ZM996.26,594.37c17.13,15.5,41.52-23.64,11.71-26.17-14.79-1.25-19.39,19.22-11.71,26.17ZM987.52,651.3c23.75-22.69-17.83-55.82-36.57-31.8-17.61,22.57,14.86,52.55,36.57,31.8ZM932.43,694.24c-12.16,3.64-13.89,29.63,5.02,27.68,15.24-1.57,14.75-33.59-5.02-27.68ZM595.35,736.15c-11.34,3.29-13.29,24.45-.01,27.73,29.21,7.21,25.67-35.17.01-27.73ZM578.29,814.34c-32.54.83-26.59,46.95,3.23,45.25,31.11-1.77,28.23-46.06-3.23-45.25ZM1543.72,957.05c-14.99,3.41-14.3,25.15-1.47,29.19,30.32,9.56,28.83-35.42,1.47-29.19ZM505.87,1311.21c-17.76,3.85-16.99,36.66,4.78,35.43,25.4-1.43,20.64-40.94-4.78-35.43ZM1539.25,1403.34c19.77,9.47,35.77-18.02,18.17-28.55-20.11-12.03-33.91,21.02-18.17,28.55ZM570.6,1402.74c-9.31-10.34-58.71-9.1-56.34,9.52,2.78,21.89,75.15,11.36,56.34-9.52ZM1440.19,1451.07c12.8,14.7,52.89,15.64,66-.26,21-25.46-19.79-41.67-42.03-38.2-16.54,2.57-38.42,21.88-23.97,38.46ZM622.4,1472.56c7.48-12.78-43.14-18.13-29.54-1.61,5.53,6.72,26.39,6.98,29.54,1.61ZM810.53,1473.11c-17.3,5.28-8.2,42.45,17.2,32.41,19.8-7.83,8.59-40.28-17.2-32.41ZM1379.16,1498.74c6.42,4.72,30.9,5.29,29.97-5.96-1.32-15.99-49.79-8.62-29.97,5.96ZM1486.56,1488.51c-21.65-16.68-33.51,27.32-4.35,24.02,11.9-1.35,10.94-18.94,4.35-24.02ZM886.8,1496.04c-41.78,5.05-27.83,56.4,20.33,43.19,35.07-9.62,16.16-47.6-20.33-43.19ZM1033.35,1507.38c-17.41,4.36-11.45,37.86,12.02,31.15,17.89-5.12,9.25-36.47-12.02-31.15ZM1150.64,1540.69c11.59,15.46,89.53,11.83,106.18,1.64,7.53-4.61,13.22-11.83,5.5-19.11-7-6.6-58.56-13.1-69.19-12.37-11.25.77-56.06,11.75-42.5,29.84Z"/>
      <path class="cls-7" d="M960.95,794.2c2.5-2.06,5.64-9.75,10.01-13.79s11.48-4.17,14.28-8.57c3.02-4.74,2.31-15.28,5.26-21.4s10.63-9.02,13.05-15.51c2.99-8.02.65-15.06,2.2-22.55,4.25-20.54,31.89-27.89,33.63-33.15,1.44-4.36-3.68-14.92-3.56-20.62,2.61-119.12,196.02-159.85,288.43-149.44,76.06,8.57,216.55,78.67,208.31,170.15-1.41,15.7-19.17,40.47-18.87,43.94.33,3.86,13.78,14.65,16.32,23.85,1.9,6.9-.57,16.92,3.87,22.79,2.65,3.5,9.53,4.31,13.22,7.73,12.06,11.17,10.79,39.19,3.25,52.77-2.83,5.1-12.51,12.36-13.35,17.22-.68,3.93,4.86,19.09,4.88,26.19.09,35.01-19.16,31.94-30.44,50.99-6.2,10.47-5.05,28.01-10.63,40.78-3.11,7.11-21.71,27.52-21,31.72.33,1.92,26.11,26.13,28.35,26.82,12.97,3.99,33.27-6.1,41.55,11.79,4.68,10.12.23,20.97,3.03,31.25,1.95,7.18,15.93,19.73,20.52,27.09,50.93,81.63,15.8,181.05-60,232.25-15.33,10.36-36.6,17.31-49.89,28.18-11.58,9.47-16.35,22.57-25.72,33.31-98.44,112.84-462.44,104.9-596.09,68.49-13.84-3.77-91.24-34.53-98.8-14.96-7.03,18.2,20.74,81.38-31.77,76.97-52.82-4.44-10.35-73.76-25.87-96-9.85-14.13-63.8-18.41-81.69-38.29-9.32-10.36-9.2-23.29-16.26-33.25-5.32-7.5-16.83-12.05-21.48-20.42-5.31-9.56-4.3-21-10.12-31.77-6-11.11-20.61-20.99-28.21-30.83-22.99-29.78-32.31-69.04-28.37-106.34,1-9.5,13.14-41.52,12.75-43.76-.58-3.41-41.74-30.8-49.51-47.56-32.35-69.72,51.36-125.58,104.4-149.54,9.47-4.28,61.03-20.91,63.1-23.57s3.31-32.2,4.81-39.92c2.87-14.72,7.83-30.52,15.74-43.3,2.06-3.33,13.91-13.31,13.95-14.31.45-10.81-13.4-33.92-13.26-47.72.15-14.64,14.12-26.05,10.12-38.46-1.46-4.54-22.96-32.79-27.26-35.65-19.8-13.16-61.26,1.09-67.93-42.5-7.09-46.37,46.85-69.73,83.3-46.2-3.5-60.95,81.08-51.26,61.34,8.97-3.58,10.93-13.68,16.69-10.95,29.15,1.03,4.67,27.82,45.87,31.45,48.58,17.35,12.99,24.8-23.94,32.42-32.43,13.87-15.45,23.49-3.51,31.82-32.93,12.07-42.63-2.36-37.13-17.58-66.97-24.03-47.09,29.01-90.79,70.54-62.92,7.07,4.75,21.19,28.09,23.09,28.41,1.12.18,14.47-8.3,20.87-9.17,52.74-7.1,78.94,74.07,21.82,88.45-7.27,1.83-16.47-.1-23.41,3.25s-22.36,40.16-22.48,48.16c-.17,10.75,11.06,20.74,11.6,32.35s-8.88,33.88-7.66,43.71,35.62,23.3,44.78,31.39c11.13,9.83,27.99,47.61,38.35,49.07,2.17.31,4.15-.65,5.78-1.99ZM851.06,526.28c10.43-32.12-53.7-48.72-60.48-15.74-5.31,25.87,29.24,49.23,25.97,83.13-1.49,15.5-6.33,10.56-1.8,27.33,3.19,11.8-3.88,12.22,11.55,15.73,37.82,8.6,30.74-34.68,42.83-57.14,11.14-20.7,19.49-4.77,37.97-7.75,26.19-4.22,28.43-46.51-2.72-49.36-19.38-1.78-16.38,5.95-26.66,9.52-6.37,2.21-22.72,1.75-26.66-5.71ZM1054.83,657.67c1.19,21.55,23.91,29.06,41.43,35.69,78.87,29.83,294.7,49.15,373.7,26.17,41.03-11.93,50.38-33.78,35.75-73.78-15.29-41.79-59.42-73.59-98.57-90.91-83.9-37.11-190.95-37.64-272.36,6.63-29.87,16.24-82.01,58.81-79.95,96.2ZM698.71,695.76c4.41-2.36,17.17-1.77,17.1-6.57-.24-16.71-40.92-40.26-33.8-75.82,2.48-12.4,25.67-36.9,3.36-45.19-21.47-7.98-14.43,19.65-19.56,32.81-8.31,21.33-29.86,1.12-43.17-1.5-41.39-8.13-52.16,45.58-18.63,54.79,12.99,3.57,28.54-.66,40.42,7.19,9.16,6.05,34.27,53.26,38.07,53.29,2.92.03,10.6-16.01,16.19-19ZM837.73,653.86c-35.07,10.57-17.06-.49-32.42-6.6-14.23-5.66-26.55,4.93-32.63,16.77-13.44,26.15-1.25,20.05,10.82,35.5,6.82,8.72,8.01,12.67,16.15,20.99,8.23,8.41,22.18,11.98,11.43,24.76-14.51-9.82-20.51-7.36-34.28-24.76-.37-.47.05-4.43-1.74-6.74-14.8-19.13-33.76-30.55-51.58-6.59-22.99-1.81-17.56,16.34-27.22,24.18-6.23,5.05-19.69,2.56-24.01,9.33s-1.99,28.2,5.52,33.13c.08,5.81,1.75,18.85,5.71,22.85-18.84,29.95-36.11,59.48-34.28,97.12h44.75c24.41,0,35.23,31.55,44.75,39.99,1.41,6.76-6.83,27.51-3.55,32.14.28.4,6.8,1.39,9.37,2.98,35.4,21.88,108.61,75.19,149.78,52.86,10.57-5.73,16.58-21.17,25.48-25.94s22.11-3.42,31.65-8.34c24.34-12.57,11.59-50.86,12.23-71.58.94-30.47,12.34-47.42-3.14-79.19-7.52-15.42-22.49-23.49-32.15-36.4-8.27-11.05-12.8-27.28-22.01-37.02-11.36-12.01-42.21-18.76-47.47-28.71-9.96-18.86,14.11-76.1-11.56-83.74-8.54-2.54-8.43,2.67-9.59,3.01ZM1511.88,752.88c-14.47-37.46-16.67-23.36-43.43-17.72-123.87,26.09-219.85.43-339.3-21.36-15.44-2.82-34.63-1.2-48.07-5.25-11.09-3.34-13.96-12.28-26.24-14.7-19.86-3.93-48.88,35.5-20.08,49.6,14.41,7.06,34.74,4.28,49.27,11.67,17.24,8.76,13.2,37.25,38.66,39.57,23.32,2.13,35.43-27.15,71.62-22.26,68.25,9.22,3.14,114.8,52.05,123.14,64.67,11.02,27.24-90.36,65.44-109.49,25.09-12.56,57.29,12.08,83.4,1.52,4.77-1.93,8.29-8.02,15.25-9.5,34.94-7.45,58.17,29.29,92.58,8.79,15.27-9.1,14.43-19.55,8.85-33.99ZM1216.71,823.35c-8.27-73.01-65.63-9.26-97.26-12.3-29.06-2.79-27.32-37.25-43.16-44.39-10.3-4.65-27.62-2.21-38.71-5.09-10.87-2.82-26.94-20.38-32.9-2.66-17.09,50.89,61.56,34.34,80.62,52.06,4.49,4.17,8.18,13.79,13.56,18.81,32.96,30.78,79.65-14.08,117.85-6.43ZM1304.32,832.85c16.22-4.59,30.69-13.47,48.37-11.23s28.02,19.7,43.37,23.27c32.45,7.55,53.66-10.73,82.57-12.01,23.15-1.03,61.85,12.81,59.93-27.54-1.78-37.35-21.47-9.12-35.73-3.43-30.14,12.03-50.42-8.31-77.91-8.26-15.96.03-26.64,9.9-41.53,10.71-32.33,1.76-80.08-30.77-79.07,28.49ZM1518.95,852.47c-5.43-4.24-40.01-7.18-47.84-6.1-12.5,1.72-22.15,12.47-33.56,15.94-44.26,13.44-71.42-30.52-107.07-25.18-32.7,4.89-23.43,47.91-45.18,65.27-24.04,19.19-70.69,6.52-74.29-26.69-1.95-18.03,14.53-39.33-15.64-36.73-22.79,1.97-34.62,20.43-66.96,18.36-41.26-2.65-43.85-35.1-67.82-40.71-14.31-3.35-28.94,1.4-44.31-5.21-11.75-5.05-21.16-26.83-34.92-18.68-14.61,8.65-2.45,55.03,5.99,66.64,12.25,16.84,112.83,53.72,133.17,51.71,6.16-.61,9.27-5.65,14.23-6.89,17.62-4.43,31.19,13.57,45.8,19.07,47.37,17.85,279.86,7.17,323.81-18.89,13.98-8.29,28.14-41.33,14.58-51.91ZM1100.38,988.94c3.27-1.82,19.48-54.8,13.54-61.87-6.41-7.62-90.05-26.1-104.78-33.26-2.76,34.27,22.1,67.96,51.33,82.91,5.35,2.74,36.89,13.9,39.91,12.23ZM481.62,1017.57c-17.98,49.34,13.67,76.89,59.02,87.59,2.69-2.45-13.57-15.32-14.98-18.32-9.19-19.55,12.85-23.54,9.28-38.8,17.53-6.75,25.59-26,39.98-37.15,4.97-3.85,95.37-50.26,100.94-51.41,17.97-3.7,57.73,7.11,43.95-28.7-4.15-10.79-10.61-7.84-17.28-10.33-64.46-24.05-196.86,31.12-220.91,97.12ZM1163.38,1086.1c-8.86-14.99-43.57-22.44-32.46-44.83,9.11-18.36,109.05-38.18,110.46-47.48s-91.04-76.17-103.46-73.49c-4.21.91-14.08,53.31-17.97,62.41-5.88,13.76-46.02,66.98-42.11,77.44.9,2.42,32.28,5.93,39.83,7.91,16.14,4.23,29.74,13.79,45.72,18.05ZM1016.73,964.24c2.28-1.83-26.55-58.46-33.85-27.18-5.48,23.49,4.5,42.26-21.33,62.46-12.97,10.15-21.61,6.66-32.34,11.46-6.58,2.94-12.48,17.41-21.59,22.21-5.47,2.88-43.54,9.76-43.22,11.98.94,6.58,94.51,69.47,104.82,81.79,6.43,4.55,32.07-5,32.3-11.24.21-5.59-6.88-7.1-1.47-18.68,4.06-8.68,17.53-12,20.65-17.46,9.11-15.95-46.7-86.51-21.78-109.33,6.8-6.22,17.05-5.4,17.8-6ZM1490.92,928.08c-48.27,10.96-97.88,17.56-147.48,19.13-37.58,1.19-87.48-6.22-122.01-2-1.46.18-6.65-.99-4.71,2.83,1.67,3.3,35.7,32.79,40.88,33.45,29.02,3.72,57.83-31.81,98.64-18.71,29.83,9.57,12.57,48.94,14.71,50.97,3.93,3.72,44.99-6.93,52.4-9.49,33.73-11.65,67.43-36.91,67.57-76.18ZM548.27,1068.99c-4.66.39-9.37,4.81-9.52,9.52-.22,6.88,15.33,23.33,17.01,33.46,2.85,17.18-7.48,88.68,11.05,93.79,24.32,6.7,18.58-54.08,19.55-66.31l100.52,35.81c49.03-9.16,95.79,1.03,138.84,24.77,10.83,5.97,22.8,22.59,36.22,17.94,6.06-2.1,13.4-11.59,17.7-13.77,5.5-2.79,14.69-3.44,20.75-6.86,23.12-13.02,45.56-40.25,56.51-63.59l-177.59-125.38,7.92,14.98c22.25,69.1-115.58,68.77-118.05,7.65-1.84-45.32,63.08-42.27,92.37-32.47-8.06-9.08-20.88-17.54-32.38-21.86-44.35-16.64-57.46,5.07-93.9,22.21-14.42,6.78-32.48,9.32-46.41,18.33-16.86,10.91-30.88,34.49-40.57,51.78ZM1342.39,977.58c-29.2-5.38-113.38,31.83-144.11,45.38-7.92,3.49-50.59,21.17-51.85,26.41-1.53,6.34,34,30.72,40.7,34.91,15.27,9.55,32.62,19.59,50.51,22.79-5.18-52.83,36.98-92.43,89.52-76.16.5,4.49,12.17,12.07,17.21,8.69,3.37-2.25,16.46-48.33,14.38-54.47-2.62-7.74-10.17-6.39-16.35-7.53ZM1087.03,1002.54c-2.17-3.43-74.37-26.59-77.91-23.06-4.01,4,22.16,85.24,26.09,87.76,6.15,3.93,20.94-2.35,26.63-6.47.59-10.98,29.52-51.39,25.19-58.23ZM715.48,1002.74c-8.96.82-27.24,10.49-30.55,19.13-17.34,45.23,85.25,51.37,89.89,19.35,3.86-26.61-38.9-40.36-59.34-38.48ZM1490.93,1034.69c4.27-5.27-25.9-26.41-33.36-26.75-16.19-.73-41.87,21.02-59.94,21.08,7.87,4.96,28.73,22.59,37.05,22.93,2.94.12,54.4-14.98,56.25-17.27ZM1371.28,1076.34c3.85,2.03,43.45-15.1,43.43-17.83-.01-2.44-38.87-23.22-42.38-24.23-30.6-8.77-7.08,38.88-1.05,42.05ZM1319.54,1141.35c6.2-.15,16.36-.15,21.13-4.57,4.18-3.86,2.88-8.97,4.09-10.21,2.34-2.4,7.87-1.74,12.53-9.36,11.76-19.25-2.13-49.93-17.72-63.5-45.43-39.55-111.63,12.36-81.02,61.56,1.06,1.71,3.73,1.16,3.85,1.32,10.62,13.44,12.99,16.04,30.47,20.95,9.92,2.79,16.13,4.06,26.66,3.81ZM1403.33,1082.32c-5.64,2.28-35.94,6.74-29.61,17.18,3.77,6.22,87.62,46.23,100.65,53.04,17.73-25.49,54.6-65.35,56.56-96.88.16-2.64.54-14.7,0-15.24-7.54-7.73-111.97,35.58-127.6,41.9ZM1115.77,1185.15c-12.92-3.26-12.98-27.59-9.93-37.63,7.74-25.46,87.97-32.94,30.26-57.92-18.16-7.86-39.62-10.66-59.32-9.14-11.57.89-66.22,13.68-62.09,29.23.78,2.93,40.31,21.35,48.55,35.63,14.3,24.79,4.96,80.63,20.06,92.28,20.49,15.8,51.7-25.97,63.76-6.63,7.88,12.64-6.64,28.03-1.34,39.42,3.27,7.02,23.87,10.96,31.07,16.56,15.85,12.34,19.96,47.71,19.02,66.8-1.01,20.5-26.61,79.93,7.56,80.86,24.8.68,21.36-25.48,20.95-43.8-.63-28.35-4.13-42.33,0-72.36,9.26-18.56,11.75-8.1,20.95-7.62-6.55,2.92-13.47,34.11-11.42,36.17,2.5,2.52,65.43-12.14,69.34-15.39,7.44-6.18-1.83-35.49-8.45-38.88-3.54-1.81-7.16-.28-9.48-.95-3.02-.88-6.79-1.88-5.71-5.71,8.31-3.58,10.69-17.21,25.54-5.55,20.26,15.91,5.6,63.7,23.14,66.53,21.09,3.41,20.01-38.49,21.78-51.46,4.24-31.03,2.43-61.38,5.93-90.23,4.82-39.75,34.35-28.39,62.03-42.71,17.11-8.84,8.99-13.37-2.59-22.88-34.9-28.65-47.17-23.43-71.09,13-1.88.46-9.01,1.59-11.43,1.9-3.04.4-7.95,1.83-9.52,1.9-22.51,1.05-48.56-9.01-66.51-22.05-5.05-3.67-7-10.42-11.72-13.04-7.92-4.39-18.34-1.82-26.63-3.84-11.11-2.71-18.92-13.06-30.84-12.18-8.32,9.3-106.71,54.85-55.23,63.96,42.76,7.57,43.22-13.47,76.66,27.12,5.57,16.57-1.2,46.11,7.86,59.83,1.96,2.98,4.98,2.52,5.48,3.01,34.15,33.82,36.42-21.23,47.93-38.72,24.96-37.95,57.39,32.47,49.2,40.63-6.86,6.84-16.22-10.42-19.04-13.34,1.05-9.41-7.79-28.51-19.07-21.93-4.27,2.49-8.85,31.9-13.59,39.74-4.95,8.19-14.23,12.65-22.57,16.47-28.4-.53-45.5-11.45-49.29-41.17-1.59-12.44,1.94-29.53-.22-40.72-.72-3.73-3.29-5.34-5.71-7.62-17.06-16.03-54.07-2.52-74.27-7.62ZM1574.72,1187.05c.62-19.25-12.42-88.17-29.39-99.15-13.08-8.46-28.87,31.33-27.4,37.08,1.89,7.4,53.24,6.34,44.95,41.66-4.37,18.63-39.31,21.7-45.1,31.06-4.21,6.8-1.08,20.54-2.93,29.44-5.73,27.54-86.02,81.64-112.43,91.33-10.16,3.73-35.53,6.96-41.71,11.61-8.72,6.55-4.46,22.23-22.14,29.27-26.42,10.52-20.37-12.44-39-12.51-4.43-.02-53.59,13.89-55.74,15.83-4.01,3.63-4.84,33.07-4.28,39.54.11,1.29-.33,5.45,0,5.71,4.54,3.71,97-22.08,110.01-26.16,91.38-28.65,221.55-83.07,225.17-194.74ZM573.03,1219.42c-3.3.43-14.03-3.08-16.97-4.92-25.11-15.67-1.54-82.47-17.32-91.34-11.81-6.64-19.86,31.07-20.68,38.44-4.3,38.65,5.57,80.81,33.07,109.25,10.68,11.04,12.11,9.64,23.82.95,10.98-8.14,24.65-21.99,13.32-35.24,15.2-31.87,53.48-36.67,81.75-51.57.36-.42.37-5.01.04-5.44-2.17-2.84-65.33-22.9-68.36-21-2.74,1.72.21,40.9-12.07,52.72-.67.64-15.69,8.03-16.6,8.15ZM1058.64,1217.52c-4.7-26.42,3.86-47.16-15.29-71.36-22.22-28.08-53.73-14.59-76.19,5.59-6.54,5.88-11.56,16.25-17.07,21.97s-12.12,14.77-17.14,19.04c-8.38,7.14-59.05,32.36-59.14,37.11-.16,8.2,18.18,10.71,23.94,10.64,15.45-.17,26.27-8.66,39.02-11.57,3.27-.75,6.96-.88,11.43-1.9,8.14-1.87,16.68-4,24.76-5.71,5.64-1.2,11.65-2.73,17.14-3.81,6.77-1.33,20.01-5.37,25.47-5.06,7.73.44,17.43,8.41,24.05,8.87,4.55,8.02,9.65,17.58,11.43,26.66,1.22,6.25-1.44,15.08.41,21.49,3.93,13.61,43.47,24.21,55.77,24.21h32.37c7.48,0-5.07-15-6.17-18.58-1.69-5.46-3.28-31.55-4.32-32.83-19.68,13.54-49.31,22.16-62.82-3.81-1.93-3.71-6.96-17.23-7.62-20.95ZM1532.83,1173.72c1.79-.77,3.97-2.62,5.71-3.81,29.93-20.39-24.56-34.01-35.04-28.35-8.64,4.67-18.66,21.53-12.56,31.21,12.26,19.45,27.54,15.51,41.88.95ZM1444.56,1155.02c-4.58.76-8.51,12.01-12.77,15.74-7.94,6.94-22.38,8.31-32.15,13.55-19.75,10.59-34.33,25.92-30.66,49.47,3.33,21.41,57.63,28.67,75.36,27.59,43.85-2.67,76.55-43.9,40.66-80.76-4.87-5-35.08-26.48-40.44-25.59ZM590.17,1278.46c-34.85,40.65-2.33,36.69,13.02,62.2,5.42,9.01,4.96,19.03,11.76,28.23,18.59,25.18,71.29,20.86,83.18,40.62,13.02,21.64-5.05,76.79,7.08,90.02,4.33,4.73,12.31,5.29,17.46,1.86,11.36-7.58,1.17-52.02,2.72-65.83,1.13-10.01,11.44-31.38,23.44-27.33,9.83,3.32-4.25,6.42-2.49,12.08,1.13,3.63,8.78,3.43,11.94,2.48,7.6-2.28,14.62-18.53,20.5-23.32,10.04-8.19,30.28-11.45,43.55-21.2,21.66-15.92,36.83-46.7,61.7-58.27,7.63-3.55,26.48-6.24,30.83-11.18s-1.21-12.29,1.91-18.93c2.12-4.54,15.47-7.32,16.18-10.49.98-4.36-5.03-4.01-5.71-4.73-29.03-31.01-24.72-15.3-57.84-28.8-25.17-10.26-52.45-36.31-81.79-47.7-49.63-19.28-115.5-8.72-160.34,19.34-27.63,17.29-12.32,18.19-19.51,41.43-2.62,8.48-12,13.04-17.59,19.55ZM1029.47,1233.37c-11.14-10.46-87.46,3.57-98.34,13.73-13.95,13.02,14.76,17.13,13.29,30.33-.47,4.27-17.62,18.2-13.36,21.96,2.19,1.93,29.06-3.01,36.68-1.43,15.99,3.31,32.05,45.54,62.3,23.31,22.54-16.57-15.1-38.17-15.24-41.77-.28-7.1,35.36-26.71,14.67-46.13ZM1443.32,1276.57c-16.73-2.23-33.61-3.44-49.93-8.18-5.77-1.67-22.09-11.2-23.34-10.9-3.69.9-10.55,54.97-8.61,57.13,5.32,5.91,75.22-26.52,81.87-38.06ZM1182.18,1352.48c7.46-5.32-8.84-66.14-24.46-59.81-5.58,2.26-7.79,11.6-20.52,13.88s-62.6-.97-74.26-6.7c-10.4-5.11-16.15-29.76-32.87-27.09,8.77,14,21.02,19.98,20.87,38.92-.03,3.61-4.22,7.02-3.79,11.43,1.15,11.65,58.83,25.5,70.11,27.16,8.72,1.28,61.41,4.7,64.92,2.2ZM1157.66,1366.06c-1.29-1.04-27.39-1.33-33.04-2.19-34.94-5.28-62.53-25.97-86.42-29.73-14.12-2.22-23.42,5.1-36.79,2.5-23.62-4.6-28.33-38.99-61.95-25.99-5.57,2.15-5.43,6.76-8.93,8.41-17.14,8.1-50.87,11.78-60.5,30.69-8.2,16.09,17.28,17.21,28.32,19.49,58.9,12.13,144.73,12.87,205.02,8.2,10.68-.83,42.84-3.04,51.09-6.05,2.44-.89,4.53-4.28,3.22-5.33ZM950.09,1387c-14.4-1.07-29.99-2.12-44.26-4.3-32.24-4.92-57.88-25.89-77.62,15.7,40.93,12.46,81.38,16.97,123.78,20.97,54.27,5.11,156.56,12.19,208.3-.23,4.65-1.12,8.55-1.01,11.2-5.94,1.79-3.32,8.02-29.12.5-30.15-73.61,4.86-148.11,9.44-221.91,3.94ZM1420.46,1373.68c-33.28,9.3-65.23,22.68-98.61,31.82-19.26,5.27-78.68,13.22-90.9,23.36-9.85,8.17-6.4,19.72-26.92,20.25-20.46.52-24.67-14.75-32.12-16.37-21.02-4.55-75.77,3.71-100.8,3.87-48.82.3-104-1.13-152.14-8.01-32.11-4.59-97.43-25.94-125.54-20.19-26.46,5.41,5.09,18.67,14.44,22.74,130.6,56.86,482.21,45.42,599.09-43.36,4.37-3.32,12.55-8.44,13.49-14.1Z"/>
      <path class="cls-1" d="M1150.64,1540.69c-13.56-18.1,31.25-29.07,42.5-29.84,10.63-.73,62.18,5.77,69.19,12.37,7.72,7.28,2.03,14.5-5.5,19.11-16.65,10.2-94.6,13.83-106.18-1.64Z"/>
      <path class="cls-1" d="M1440.19,1451.07c-14.45-16.59,7.43-35.89,23.97-38.46,22.24-3.46,63.03,12.75,42.03,38.2-13.11,15.9-53.2,14.96-66,.26Z"/>
      <path class="cls-1" d="M886.8,1496.04c36.49-4.41,55.4,33.56,20.33,43.19-48.15,13.21-62.1-38.13-20.33-43.19Z"/>
      <path class="cls-1" d="M987.52,651.3c-21.71,20.75-54.18-9.23-36.57-31.8,18.74-24.02,60.31,9.11,36.57,31.8Z"/>
      <path class="cls-1" d="M578.29,814.34c31.45-.8,34.33,43.48,3.23,45.25-29.82,1.7-35.76-44.42-3.23-45.25Z"/>
      <path class="cls-1" d="M570.6,1402.74c18.8,20.88-53.56,31.41-56.34,9.52-2.37-18.62,47.04-19.86,56.34-9.52Z"/>
      <path class="cls-1" d="M810.53,1473.11c25.79-7.87,37,24.57,17.2,32.41-25.4,10.05-34.49-27.13-17.2-32.41Z"/>
      <path class="cls-1" d="M505.87,1311.21c25.42-5.51,30.18,34,4.78,35.43-21.77,1.22-22.53-31.58-4.78-35.43Z"/>
      <path class="cls-1" d="M1539.25,1403.34c-15.73-7.53-1.93-40.58,18.17-28.55,17.6,10.53,1.6,38.01-18.17,28.55Z"/>
      <path class="cls-1" d="M1033.35,1507.38c21.27-5.32,29.91,26.03,12.02,31.15-23.48,6.72-29.43-26.79-12.02-31.15Z"/>
      <path class="cls-1" d="M1543.72,957.05c27.36-6.23,28.85,38.75-1.47,29.19-12.83-4.05-13.52-25.78,1.47-29.19Z"/>
      <path class="cls-1" d="M595.35,736.15c25.65-7.43,29.2,34.95-.01,27.73-13.27-3.28-11.33-24.44.01-27.73Z"/>
      <path class="cls-1" d="M996.26,594.37c-7.68-6.95-3.07-27.42,11.71-26.17,29.81,2.52,5.42,41.67-11.71,26.17Z"/>
      <path class="cls-1" d="M1486.56,1488.51c6.59,5.08,7.55,22.67-4.35,24.02-29.16,3.31-17.3-40.7,4.35-24.02Z"/>
      <path class="cls-1" d="M932.43,694.24c19.77-5.92,20.26,26.1,5.02,27.68-18.92,1.95-17.18-24.04-5.02-27.68Z"/>
      <path class="cls-1" d="M1379.16,1498.74c-19.82-14.57,28.65-21.95,29.97-5.96.93,11.25-23.55,10.68-29.97,5.96Z"/>
      <path class="cls-1" d="M622.4,1472.56c-3.14,5.37-24,5.11-29.54-1.61-13.6-16.52,37.02-11.17,29.54,1.61Z"/>
      <path class="cls-17" d="M1407.14,554.84c-6.11,10.48,8.01,15.94,14.1,24.94,8.72,12.89,17.74,36.29,13.99,51.8-1.9,7.88-7.48,4.27-8.92,8.22-1.72,4.7,3.44,8.9,3.26,12.78-.33,6.92-17.59,25.43-23.69,29.52-31.5,21.13-114.42,23.9-151.99,21.23-13.06-.93-64.86-13.55-71.03-10.9-.81.35-1.14,4.12-3.53,4.92-20.73,6.96-98.69-37.49-124.48-39.68-2.06-37.39,50.08-79.96,79.95-96.2,81.41-44.27,188.46-43.74,272.36-6.63ZM1290.46,538.18c-15.63-13.89-125.35,19.69-144.83,32.24-6.56,4.22-28.97,24.2-8.48,22.14,7.11-.71,34.62-15,46.37-18.53,33.87-10.19,69.4-13.73,104.14-19.64,5.62-2.11,6.73-12.72,2.79-16.21ZM1318.85,544.05c-15.39,1.14-12.53,18.45,3.77,20.16,23.13,2.43,15.91-21.62-3.77-20.16ZM1369.35,560.86c-8.37,13.94,19.37,34.99,28.46,23.69,11.87-14.76-23.44-32.05-28.46-23.69ZM1208.56,574.28c-10.28,2.29-21.46,22.1-9.52,25.9,18.77,5.97,33.57-31.26,9.52-25.9ZM1315.2,591.44c-24.08,5.53,1.96,28.69,22.37,30.1,48.4,3.33,2.13-35.72-22.37-30.1ZM1128.57,608.52c-4.51,1.3-15.39,14.29-14.78,19.61,2.29,19.93,41.68-27.36,14.78-19.61ZM1235.76,642.43c4.19,4.62,34.67-14.86,19.03-23.83-14.47-8.3-22.45,20.06-19.03,23.83ZM1188.14,632.91c-6.43-6.53-22.48,12.75-11.4,18.2,9.93,4.89,14.2-15.36,11.4-18.2ZM1376.17,644.81c-4.8-4.92-17.88.28-15.86,9.11,3.95,17.24,25.63.91,15.86-9.11ZM1315.73,648.14c-7.24-7.24-23.01,15.15-17.15,20.96,8.58,8.5,23.41-14.69,17.15-20.96Z"/>
      <path class="cls-9" d="M1203.37,1434.61c-34.17-.93-8.57-60.36-7.56-80.86.94-19.09-3.17-54.46-19.02-66.8-7.2-5.6-27.8-9.54-31.07-16.56-5.3-11.39,9.23-26.78,1.34-39.42-12.06-19.34-43.27,22.43-63.76,6.63-15.1-11.65-5.76-67.49-20.06-92.28-8.24-14.28-47.77-32.7-48.55-35.63-4.13-15.54,50.52-28.33,62.09-29.23,19.7-1.52,41.16,1.28,59.32,9.14,57.71,24.98-22.51,32.46-30.26,57.92-3.05,10.03-2.99,34.37,9.93,37.63.09,3.34-1.17,7.9,1.88,10.5,3.94,3.36,48.53,4.06,55.25,2.83,5.37,11.92,17.22,15.75,22.85,1.9,2.17,11.19-1.36,28.27.22,40.72,3.79,29.72,20.89,40.63,49.29,41.17,17.61.33,29.53-4.86,36.6-23.39,6.1-16-1.77-31.99,18.63-10.89,2.82,2.92,12.18,20.17,19.04,13.34,8.19-8.17-24.24-78.59-49.2-40.63-11.51,17.5-13.77,72.54-47.93,38.72l2.83-7.6c2.79,4.5,16.51,12.81,20.01,4.77-18.48-12.02-16.65-35.55-26.6-51.48-4.09-6.54-8.55-7.31-9.56-8.53-33.44-40.59-33.9-19.56-76.66-27.12-51.48-9.11,46.91-54.66,55.23-63.96,11.92-.88,19.73,9.47,30.84,12.18,8.29,2.02,18.71-.54,26.63,3.84,4.72,2.61,6.66,9.37,11.72,13.04,17.95,13.04,43.99,23.09,66.51,22.05-3.78,11.1,11.7,23.95,22.85,20.95.15,32.1-9.5,74.76-7.73,103.88.41,6.78,2.32,16.88,11.54,14.19-1.77,12.98-.69,54.87-21.78,51.46-17.53-2.83-2.88-50.62-23.14-66.53-14.85-11.67-17.23,1.97-25.54,5.55-13.44,5.78-50.49,10.98-56.24,24.87-1.84,4.45,1.12,6.71,1.01,7.5-4.13,30.03-.63,44.02,0,72.36-13.19-.6-4.94,20.78-9.01,30.03-2.26,5.13-11.72,6.34-11.94,13.77ZM1105.54,1097.67c-7.88,1.17-7.61,27.11,4.66,16.22,7.59-6.74.4-16.97-4.66-16.22ZM1187.43,1131.97c-9.47,3.67,2.3,22.46,10.36,16.19,6.32-4.92-2.31-19.31-10.36-16.19Z"/>
      <path class="cls-20" d="M837.73,653.86c1.16-.35,1.05-5.55,9.59-3.01,25.67,7.64,1.61,64.88,11.56,83.74,5.25,9.95,36.11,16.69,47.47,28.71,9.21,9.74,13.74,25.97,22.01,37.02,9.67,12.91,24.64,20.98,32.15,36.4,15.48,31.76,4.08,48.71,3.14,79.19-.64,20.72,12.11,59.01-12.23,71.58-9.54,4.92-22.56,3.47-31.65,8.34s-14.91,20.21-25.48,25.94c-41.17,22.33-114.38-30.99-149.78-52.86-2.57-1.59-9.08-2.58-9.37-2.98-3.28-4.63,4.96-25.38,3.55-32.14,2.01,1.78,28.41,13.34,30.46,11.41-9.49-37.62,10.99-12.03,28.61-6.7s55.64-8.95,69.42-21.9c20-18.79.8-21.41.8-31.37,0-5.51,10.99-13.52,11.68-26.78.86-16.58-8.54-31.1-9.55-41.96-1.43-15.43,12.13-16.37-6.76-34.98-11.32-11.15-39-27.24-52.3-36.25,10.76-12.78-3.2-16.34-11.43-24.76-5.59-57,28.5,8.17,38.06,1.89,1.92-1.26,2.94-29.32,1.92-30.45-.69-.76-16.4,4.89-16.82-7.01-.36-10.15,13.73-4.17,15.75-4.69,5.15-1.33,8.58-24.57-.83-26.39Z"/>
      <path class="cls-6" d="M723.47,707.18c13.08,1.03,21.12,15.69,27.99,16.76s17.85-4.71,25.33-3.43c13.77,17.4,19.77,14.93,34.28,24.76,13.3,9,40.98,25.1,52.3,36.25,18.89,18.6,5.33,19.55,6.76,34.98,1.01,10.86,10.41,25.38,9.55,41.96-.69,13.26-11.68,21.27-11.68,26.78,0,9.96,19.2,12.58-.8,31.37-13.78,12.95-51.06,27.45-69.42,21.9s-38.1-30.92-28.61,6.7c-2.05,1.92-28.45-9.63-30.46-11.41-9.52-8.44-20.35-39.99-44.75-39.99h-44.75c-1.83-37.64,15.44-67.16,34.28-97.12,2.93,2.96,9.28-.39,9.45,8.29.45,21.86-47.93,64.75,1.96,73.58.55-10.95-8.9-15.5-7.55-27.4,2.95-26.07,28.18-23.5,12.29-63.95-4.53-11.52-22.26-42.29-21.86-13.37-7.51-4.94-9.92-26.24-5.52-33.13s17.78-4.28,24.01-9.33c9.66-7.84,4.22-25.99,27.22-24.18ZM765.39,752.88c-.46-.27-.69-7.85-5.12-9.31-14.47-4.79-13.54,27.75,2.03,22.42,3.03-1.04,2.31-5.42,4.04-5.52,3.74-.21,14.67,16.47,20.99,5.76,4.47-7.58-9.22-17.15-15.35-17.09-3.08.03-5.54,4.36-6.58,3.74ZM736.23,777.93c-8.36,2.39-10.08,22.71-2.01,24.16,12.02,2.16,15.96-28.15,2.01-24.16ZM841.24,803.98c4.32-7.03-6.18-21.04-12.99-17.9-11.56,5.33,6.71,28.1,12.99,17.9ZM762.78,814.03c-8.25,3.27-1.55,25.98,10.2,19.84,9.12-4.76,1.18-24.36-10.2-19.84ZM833.29,829.38c-12.18,4.5,12.05,18.76,12.99,20.64s2.05,29.28,14.41,20.12c2.81-2.08,2.65-29.89.81-33.44-3.08-5.94-22.11-9.58-28.21-7.32ZM753.26,844.59c-11.69,2.13-1.71,29.51,10.72,26.09,12.3-3.39-2.24-27.63-10.72-26.09ZM820.49,907.05c6.9-4.4-4.22-30.47-16.24-21.05-9.27,7.26,11.13,24.32,16.24,21.05Z"/>
      <path class="cls-20" d="M1518.95,852.47c13.55,10.58-.6,43.61-14.58,51.91-43.95,26.07-276.44,36.74-323.81,18.89-14.6-5.5-28.18-23.5-45.8-19.07-4.96,1.25-8.07,6.29-14.23,6.89-20.34,2.01-120.92-34.87-133.17-51.71-8.45-11.61-20.6-57.99-5.99-66.64,13.75-8.15,23.17,13.63,34.92,18.68,15.37,6.61,30,1.86,44.31,5.21,23.97,5.62,26.56,38.06,67.82,40.71,32.34,2.07,44.16-16.39,66.96-18.36,30.17-2.61,13.68,18.69,15.64,36.73,3.6,33.21,50.25,45.88,74.29,26.69,21.75-17.36,12.48-60.38,45.18-65.27,35.65-5.33,62.81,38.62,107.07,25.18,11.42-3.47,21.07-14.22,33.56-15.94,7.83-1.08,42.41,1.86,47.84,6.1ZM1005.79,837.14c-9.12,9.16,7.51,31.93,12.42,13.39,2.98-11.28-3.32-22.52-12.42-13.39ZM1052.46,854.16c-16.55,3.23,1.99,19.93,9.95,15.94,8.61-4.33,2.3-18.33-9.95-15.94ZM1161.69,874.95c-6.96,9.68,15.96,22.19,21.74,11.23,6.81-12.9-18.38-15.9-21.74-11.23ZM1481.9,893.31c9.59,9.82,19.1-10.51,9-15.8-8.89-4.66-15.13,9.52-9,15.8ZM1387.6,884.79c-7.77-6.47-18.93-4.31-13.89,9.13,6.33,16.87,27.44,2.15,13.89-9.13Z"/>
      <path class="cls-6" d="M927.24,1274.65c-19.7,16.02-50.35,5.52-71.88,14.77-8.97,3.85-16.18,20.68-27.08,24.33l-105.74,44.85c-8.68,2.63-56.6-27.71-58.1-30.67-1.02-2.01,20.54-15.95,7.73-19.99-33.15-10.45-19.62,16.74-21.07,18.1-3.38,3.2-16.84-4.63-21.76-3.85-7.61,1.2-5.7,8.96-7.95,9.72-13.26,4.49-34.89-28.64-24.75-36.53,3.22-2.5,10.73-.95,10.65-2.64-.1-2.23-15.55-10.34-17.13-14.29,5.58-6.51,14.96-11.07,17.59-19.55,7.19-23.24-8.12-24.13,19.51-41.43,44.85-28.07,110.71-38.62,160.34-19.34,29.34,11.4,56.62,37.45,81.79,47.7,33.13,13.5,28.81-2.21,57.84,28.8ZM675.13,1210.44c-16.52,2.02-11.25,21.4,4.39,25.29,32.87,8.19,18.9-28.14-4.39-25.29ZM782,1227.46c-14,3.28-7.74,23.87,8.13,15.77,6.44-3.28,7.69-19.47-8.13-15.77ZM639.02,1242.57c-9.75,3.74,2.44,23.01,14.96,13.06,8.13-6.46-4.73-16.98-14.96-13.06ZM726.74,1254.12c-19.15,4.54-2.7,19.97,16.6,16.57,18.91-3.33,5.86-21.9-16.6-16.57ZM806.77,1257.99c-19.56,3.29-25.42,21.95,1.18,20.31s28.35-25.28-1.18-20.31ZM681.09,1267.33c-13.23,2.47-9.42,20.57,3.2,18.79,11.91-1.68,12.49-21.72-3.2-18.79ZM641.1,1278.94c-4.69-4.52-15.59-3.33-16.69,4.41-2.66,18.66,28.48,6.94,16.69-4.41ZM770.61,1294.06c-16.96,1.11-13.14,22.44,2.92,20.22,13.26-1.83,11.62-21.17-2.92-20.22ZM726.73,1320.77c-9.78,2.32-20,19.44-5.64,22.09,23.81,4.4,35.14-29.08,5.64-22.09Z"/>
      <path class="cls-15" d="M548.27,1068.99c9.7-17.3,23.72-40.88,40.57-51.78,13.93-9.01,32-11.55,46.41-18.33,36.44-17.14,49.55-38.86,93.9-22.21,11.5,4.32,24.32,12.78,32.38,21.86-29.29-9.79-94.21-12.85-92.37,32.47,2.47,61.12,140.3,61.45,118.05-7.65l-7.92-14.98,177.59,125.38c-10.95,23.34-33.39,50.57-56.51,63.59-6.07,3.42-15.25,4.07-20.75,6.86-28.38-3.27-49.57-21.18-75.19-30.5-21.39-7.77-42.8-9.55-64.22-15.76-6.64-1.92-32.99-14.9-35.78-14.68,6.07-41.47-35.13-72.52-73.38-72.49-10.56,0-40.88,4.69-48.5,11.55-11.3.63-23.93-14.19-34.28-13.33ZM653.5,1011.37c10.36,11.22,18.02-20.87,2.76-16.34-6.25,1.86-6.72,12.06-2.76,16.34ZM629.81,1027.54c-31.18,1.41-39.6,28.02-2.49,26.35,29.09-1.31,32.83-27.72,2.49-26.35ZM806.76,1040.73c-15.83,4.2,11.33,22.9,16.82,11.13,2.98-6.37-11.51-12.54-16.82-11.13ZM795.41,1071.27c-20.62,2.31-25.37,30.68,2.39,23.47,18.29-4.75,17.96-25.75-2.39-23.47ZM839.22,1088.57c-21.21,2.49-55.91,17.49-52.5,43.71,7.01,53.86,134.53,68.15,138.66,8.06,2.85-41.5-54.24-55.52-86.17-51.77ZM747.93,1106.79c6.62-10.7-10.42-19.76-15.95-11.19-8.82,13.68,12.51,16.75,15.95,11.19ZM741.96,1128.43c-12.84,4.38-2.39,22.36,14.84,22.6,30.24.42,4.59-29.23-14.84-22.6Z"/>
      <path class="cls-10" d="M1511.88,752.88c-11.41,7.17-9.14,25.81-23.92,28.43-15.66,2.78-39.44-8.46-56.95-9.45-22.28-1.27-33.83,7.32-51.49,7.81-24.43.68-64.69-17.48-84.71,4.65-20.16,22.28-2.86,71.83-28.14,86.12-43.7,24.71-21.16-46.33-23.8-66.6-3.17-24.4-35.13-49.08-59.56-47.27-21,1.56-43.38,32.05-67.09,21.58-7.28-3.22-13.09-24.94-23.39-31.83-23.42-15.68-90.13-6.82-37.99-52.46,12.28,2.43,15.15,11.36,26.24,14.7,13.44,4.05,32.64,2.43,48.07,5.25,119.46,21.79,215.43,47.45,339.3,21.36,26.76-5.64,28.96-19.74,43.43,17.72ZM1254.23,785.66c-9.87,3.18-5.97,20.35,8.94,18.59,17.59-2.07,13.39-25.78-8.94-18.59Z"/>
      <path class="cls-20" d="M927.24,1274.65c.68.72,6.68.38,5.71,4.73-.71,3.17-14.06,5.95-16.18,10.49-3.11,6.65,2.46,13.97-1.91,18.93s-23.21,7.63-30.83,11.18c-24.87,11.57-40.04,42.35-61.7,58.27-13.27,9.75-33.51,13.01-43.55,21.2-5.88,4.8-12.89,21.05-20.5,23.32-3.16.95-10.81,1.15-11.94-2.48-1.77-5.65,12.32-8.76,2.49-12.08-12-4.05-22.32,17.32-23.44,27.33-1.55,13.81,8.64,58.25-2.72,65.83-5.15,3.43-13.12,2.87-17.46-1.86-12.13-13.23,5.94-68.38-7.08-90.02-11.89-19.76-64.59-15.44-83.18-40.62-6.79-9.2-6.33-19.22-11.76-28.23-15.35-25.51-47.87-21.55-13.02-62.2,1.58,3.95,17.03,12.06,17.13,14.29.08,1.69-7.44.14-10.65,2.64-10.14,7.89,11.49,41.02,24.75,36.53,2.25-.76.34-8.52,7.95-9.72,4.92-.77,18.38,7.05,21.76,3.85,1.44-1.36-12.08-28.55,21.07-18.1,12.81,4.04-8.75,17.97-7.73,19.99,1.5,2.95,49.42,33.3,58.1,30.67l105.74-44.85c10.9-3.66,18.11-20.48,27.08-24.33,21.53-9.24,52.18,1.25,71.88-14.77ZM820.6,1345.09c5.97,5.79,40.28-18.16,38.08-27.55-3.21-13.75-46.51,19.37-38.08,27.55ZM780.15,1353.13c-25.25,2.82-44.91,35.23-6.15,18.69,11.91-5.08,27.67-21.1,6.15-18.69ZM677.76,1377.47c9.26-9.49-30.78-36.8-35.45-15.26-2.34,10.8,34.01,16.74,35.45,15.26Z"/>
      <path class="cls-6" d="M1054.83,657.67c25.8,2.2,103.76,46.64,124.48,39.68,2.39-.8,2.72-4.57,3.53-4.92,6.16-2.65,57.97,9.97,71.03,10.9,37.57,2.67,120.49-.1,151.99-21.23,6.1-4.09,23.35-22.6,23.69-29.52.19-3.88-4.97-8.08-3.26-12.78,1.45-3.95,7.02-.35,8.92-8.22,3.75-15.51-5.26-38.91-13.99-51.8-6.09-9-20.2-14.47-14.1-24.94,39.15,17.32,83.28,49.12,98.57,90.91,14.63,40.01,5.29,61.85-35.75,73.78-79,22.97-294.83,3.66-373.7-26.17-17.52-6.63-40.24-14.14-41.43-35.69Z"/>
      <path class="cls-13" d="M1420.46,1373.68c-.94,5.66-9.13,10.78-13.49,14.1-116.88,88.77-468.48,100.22-599.09,43.36-9.35-4.07-40.9-17.33-14.44-22.74,28.11-5.75,93.43,15.6,125.54,20.19,48.14,6.89,103.32,8.31,152.14,8.01,25.02-.15,79.77-8.42,100.8-3.87,7.45,1.61,11.66,16.89,32.12,16.37,20.53-.53,17.07-12.07,26.92-20.25,12.23-10.14,71.64-18.09,90.9-23.36,33.37-9.13,65.33-22.51,98.61-31.82Z"/>
      <path class="cls-13" d="M1016.73,964.24c-.75.6-11-.22-17.8,6-24.93,22.82,30.89,93.38,21.78,109.33-3.12,5.47-16.59,8.78-20.65,17.46-5.42,11.58,1.67,13.1,1.47,18.68-.23,6.24-25.87,15.8-32.3,11.24-10.31-12.33-103.88-75.21-104.82-81.79-.32-2.22,37.75-9.1,43.22-11.98,9.11-4.8,15.01-19.26,21.59-22.21,10.73-4.8,19.37-1.31,32.34-11.46,25.82-20.21,15.85-38.98,21.33-62.46,7.3-31.28,36.13,25.35,33.85,27.18Z"/>
      <path class="cls-13" d="M1574.72,1187.05c-5.39,3.85-29.48,14.93-31.47,19.06-2.76,5.74,2.14,12.24.56,19.45-7.2,32.82-95.26,95.77-125.87,108.45-15.06,6.24-38.04,7.47-50.23,14.52-8.45,4.89-11.22,15.76-20.41,19.58-17.6,7.3-82.24.45-89.19,17.45-5.05,12.35,4.83,19.17-18.56,16.67-.56-6.46.27-35.91,4.28-39.54,2.15-1.94,51.31-15.85,55.74-15.83,18.63.07,12.58,23.03,39,12.51,17.68-7.04,13.41-22.72,22.14-29.27,6.19-4.65,31.55-7.88,41.71-11.61,26.41-9.69,106.7-63.8,112.43-91.33,1.85-8.9-1.28-22.64,2.93-29.44,5.8-9.36,40.73-12.43,45.1-31.06,8.29-35.32-43.06-34.27-44.95-41.66-1.47-5.75,14.32-45.54,27.4-37.08,16.98,10.98,30.02,79.9,29.39,99.15Z"/>
      <path class="cls-13" d="M1157.66,1366.06c1.31,1.05-.77,4.44-3.22,5.33-8.25,3.01-40.41,5.22-51.09,6.05-60.29,4.68-146.12,3.93-205.02-8.2-11.05-2.27-36.52-3.39-28.32-19.49,9.63-18.91,43.36-22.59,60.5-30.69,3.5-1.65,3.36-6.25,8.93-8.41,33.62-13,38.33,21.39,61.95,25.99,13.37,2.6,22.66-4.72,36.79-2.5,23.9,3.76,51.48,24.45,86.42,29.73,5.65.85,31.75,1.15,33.04,2.19ZM940.04,1343.64c-14.1,3.77-6.47,19.48,7.08,18.52,14.29-1.01,17.83-25.19-7.08-18.52Z"/>
      <path class="cls-9" d="M1163.38,1086.1c-15.98-4.26-29.58-13.82-45.72-18.05-7.54-1.98-38.92-5.49-39.83-7.91-3.91-10.45,36.24-63.67,42.11-77.44,3.89-9.1,13.76-61.5,17.97-62.41,12.42-2.68,104.91,63.93,103.46,73.49s-101.35,29.12-110.46,47.48c-11.11,22.39,23.61,29.84,32.46,44.83ZM1153.22,987.62c-9.76.21-20.59,16.31-10.78,21.4,13.31,6.91,27.94-21.78,10.78-21.4ZM1111.97,1038.51c4.91,4.72,24.8-8.32,18.22-17.23-7.37-9.98-22.75,12.87-18.22,17.23Z"/>
      <path class="cls-3" d="M702.52,920.46c1.23,4.23,3.57,15.5,1.6,18.75s-42.13,9.35-49.74,12.14c-12.89,4.73-21.4,14.99-34.37,20.86-18.57,8.4-36.71,8.43-53.71,22.46-7.28,6.01-22.66,29.57-27.64,31.5-10.9,4.21-22.82-15.73-32.3-4.78-6.78-1.54-17.06.78-24.76-3.81,24.05-66,156.45-121.17,220.91-97.12Z"/>
      <path class="cls-9" d="M1342.39,977.58c2.1,14.52-16.56,41.39-15.23,53.32-52.54-16.27-94.69,23.33-89.52,76.16-17.89-3.2-35.24-13.23-50.51-22.79-6.7-4.19-42.23-28.57-40.7-34.91,1.26-5.24,43.93-22.91,51.85-26.41,30.72-13.54,114.9-50.75,144.11-45.38ZM1183.79,1046.49c-8.65,2.74-7.21,19.05,4.97,14.6,6.84-2.5,8.43-18.84-4.97-14.6ZM1216.16,1055.98c-10.34,2.8-18.08,33.56.45,21.48,9.34-6.09,12.11-24.88-.45-21.48Z"/>
      <path class="cls-6" d="M1490.92,928.08c-.13,39.27-33.83,64.53-67.57,76.18-7.41,2.56-48.47,13.2-52.4,9.49-2.15-2.03,15.11-41.4-14.71-50.97-40.81-13.1-69.62,22.43-98.64,18.71-5.18-.67-39.21-30.15-40.88-33.45-1.94-3.82,3.25-2.65,4.71-2.83,34.53-4.22,84.42,3.19,122.01,2,49.6-1.57,99.21-8.17,147.48-19.13ZM1418.02,962.77c-15.3,4.61-8.5,26.39,9.93,11.81,12.91-10.21,1.65-15.3-9.93-11.81ZM1397.61,975.69c-3.31-3.07-22.74,4.99-20.94,12.31,2.77,11.25,25.94-7.68,20.94-12.31Z"/>
      <path class="cls-6" d="M1444.56,1155.02c5.36-.89,35.57,20.6,40.44,25.59,35.9,36.86,3.19,78.09-40.66,80.76-17.73,1.08-72.03-6.18-75.36-27.59-3.67-23.55,10.91-38.88,30.66-49.47,9.77-5.24,24.22-6.61,32.15-13.55,4.26-3.73,8.19-14.98,12.77-15.74ZM1384.3,1228.97c-4.46,6.66,37.38,17.59,39.97,10.42,3.82-10.58-36.76-15.21-39.97-10.42Z"/>
      <path class="cls-11" d="M1574.72,1187.05c-3.62,111.67-133.79,166.08-225.17,194.74-13.01,4.08-105.47,29.87-110.01,26.16-.32-.26.12-4.43,0-5.71,23.39,2.5,13.52-4.32,18.56-16.67,6.95-17,71.6-10.15,89.19-17.45,9.2-3.82,11.96-14.68,20.41-19.58,12.18-7.06,35.17-8.29,50.23-14.52,30.61-12.68,118.67-75.64,125.87-108.45,1.58-7.21-3.32-13.71-.56-19.45,1.98-4.13,26.08-15.21,31.47-19.06Z"/>
      <path class="cls-17" d="M1054.83,693.85c-52.14,45.65,14.57,36.79,37.99,52.46,10.3,6.89,16.12,28.62,23.39,31.83,23.71,10.47,46.09-20.02,67.09-21.58,24.43-1.81,56.38,22.87,59.56,47.27,2.64,20.27-19.9,91.31,23.8,66.6,25.28-14.29,7.98-63.84,28.14-86.12,20.02-22.12,60.29-3.96,84.71-4.65,17.66-.49,29.21-9.08,51.49-7.81,17.51,1,41.29,12.23,56.95,9.45,14.78-2.62,12.52-21.26,23.92-28.43,5.58,14.45,6.41,24.9-8.85,33.99-34.41,20.5-57.64-16.23-92.58-8.79-6.96,1.48-10.48,7.57-15.25,9.5-26.11,10.57-58.32-14.08-83.4-1.52-38.19,19.12-.76,120.5-65.44,109.49-48.91-8.33,16.19-113.91-52.05-123.14-36.19-4.89-48.3,24.39-71.62,22.26-25.46-2.32-21.42-30.81-38.66-39.57-14.54-7.38-34.87-4.61-49.27-11.67-28.79-14.1.23-53.53,20.08-49.6Z"/>
      <path class="cls-18" d="M1304.32,832.85c-1.01-59.26,46.74-26.73,79.07-28.49,14.89-.81,25.58-10.69,41.53-10.71,27.49-.05,47.77,20.29,77.91,8.26,14.26-5.69,33.96-33.91,35.73,3.43,1.92,40.35-36.77,26.52-59.93,27.54-28.91,1.28-50.12,19.56-82.57,12.01-15.35-3.57-26.35-21.11-43.37-23.27s-32.16,6.64-48.37,11.23Z"/>
      <path class="cls-6" d="M1058.64,1217.52c-5.64.67-13.7,4.18-19.04,3.81-6.61-.46-16.31-8.43-24.05-8.87-5.46-.31-18.7,3.73-25.47,5.06.87-7.24-.1-4.57-4.37-6.03-3.66-1.25-30.58-6.44-31.8-5.39-6.8,5.86,21.16,10.21,19.03,15.22-8.07,1.72-16.62,3.85-24.76,5.71-3.16-18-2.89-35.73,1.9-53.32,5.51-5.72,10.53-16.09,17.07-21.97,22.46-20.18,53.97-33.67,76.19-5.59,19.15,24.2,10.59,44.94,15.29,71.36Z"/>
      <path class="cls-18" d="M1216.71,823.35c-38.2-7.65-84.89,37.21-117.85,6.43-5.38-5.02-9.07-14.64-13.56-18.81-19.06-17.71-97.72-1.17-80.62-52.06,5.95-17.72,22.03-.16,32.9,2.66,11.09,2.88,28.41.44,38.71,5.09,15.84,7.15,14.1,41.6,43.16,44.39,31.63,3.04,89-60.72,97.26,12.3Z"/>
      <path class="cls-1" d="M1029.47,1233.37c20.69,19.41-14.95,39.03-14.67,46.13.14,3.6,37.79,25.2,15.24,41.77-30.25,22.23-46.31-20-62.3-23.31-7.62-1.58-34.49,3.37-36.68,1.43-4.26-3.77,12.88-17.69,13.36-21.96,1.46-13.2-27.24-17.31-13.29-30.33,10.88-10.15,87.2-24.18,98.34-13.73Z"/>
      <path class="cls-14" d="M1262.41,1116.6c-.13-.16-2.79.39-3.85-1.32-30.61-49.21,35.59-101.11,81.02-61.56,15.59,13.57,29.48,44.24,17.72,63.5-4.66,7.63-10.19,6.96-12.53,9.36-1.21,1.24.09,6.35-4.09,10.21-4.78,4.42-14.93,4.41-21.13,4.57.23-10.11-17.97-10.08-26.61-14.33-12.26-6.03-27.81-27.01-33.41-29.45-7.08-3.08,2.09,18.13,2.89,19.02,4.2,4.74,26.08,12.34,30.47,20.95-17.48-4.91-19.85-7.5-30.47-20.95ZM1308.12,1067.07c3.98,4.39,18.61-9.72,8.48-13.3-6.87-2.42-10.8,10.74-8.48,13.3ZM1298.09,1063.54c-13.57,1.67-8.28,19.94,1.4,18.9,8.6-.93,9.95-20.3-1.4-18.9ZM1275.75,1072.81c-6.13,6.16,13.82,16.11,14.42,17.13s.21,23.48,12.35,14.41c9.81-7.33-24.24-34.08-26.77-31.54ZM1311.93,1110.87c4.11,3.85,24.68-6.75,18.2-15.33-6.59-8.73-21.75,12.01-18.2,15.33Z"/>
      <path class="cls-1" d="M685.38,568.17c-.79,26.82-17.15,49.54-13.15,76.94,2.65,18.18,22.4,32.63,26.48,50.64-5.59,3-13.26,19.03-16.19,19-3.81-.03-28.91-47.24-38.07-53.29-11.88-7.85-27.43-3.62-40.42-7.19-33.53-9.21-22.77-62.92,18.63-54.79,13.31,2.61,34.86,22.82,43.17,1.5,5.13-13.16-1.92-40.79,19.56-32.81Z"/>
      <path class="cls-1" d="M851.06,526.28c-.11.35-3.95,1.67-4.71,3.77-8.41,23.18,33.65,26.82,31.38,1.94,10.28-3.57,7.29-11.3,26.66-9.52,11.62,38.78-42.31,33.85-55.34,47.08-5.84,5.93-20.61,55.96-22.74,67.17-15.43-3.51-8.36-3.93-11.55-15.73-4.53-16.77.31-11.83,1.8-27.33,3.26-33.89-31.29-57.26-25.97-83.13,6.77-32.98,70.9-16.38,60.48,15.74Z"/>
      <path class="cls-11" d="M950.09,1387c.47,9.25,11.98,4.71,17.93,5.87,4.95.96,15.56,5.56,19.2,5.56h86.65c.95,0,.68,18.38.01,19.05-4.31,4.31-107.22-4.7-121.89,1.89-42.4-3.99-82.86-8.51-123.78-20.97,19.74-41.59,45.38-20.62,77.62-15.7,14.27,2.18,29.86,3.22,44.26,4.3Z"/>
      <path class="cls-20" d="M1182.18,1352.48c-3.51,2.5-56.2-.92-64.92-2.2-11.28-1.66-68.96-15.51-70.11-27.16-.43-4.41,3.76-7.82,3.79-11.43.15-18.94-12.1-24.92-20.87-38.92,16.72-2.67,22.47,21.98,32.87,27.09,11.66,5.73,61.11,9.06,74.26,6.7s14.95-11.62,20.52-13.88c15.61-6.34,31.92,54.49,24.46,59.81Z"/>
      <path class="cls-19" d="M704.43,1143.25c2.79-.22,29.14,12.76,35.78,14.68,21.42,6.21,42.83,7.99,64.22,15.76,25.63,9.31,46.82,27.22,75.19,30.5-4.3,2.18-11.64,11.67-17.7,13.77-13.41,4.65-25.38-11.96-36.22-17.94-43.05-23.73-89.81-33.92-138.84-24.77l-100.52-35.81c.2-2.46,1.12-12.38,2.13-13.1,4.85-3.47,19.95,6.76,9.3-9.75,16.04,9.3,79.41,37.22,95.26,33.4,3.73-.9,9.66-6.61,11.39-6.74Z"/>
      <path class="cls-13" d="M950.09,1387c73.8,5.5,148.3.92,221.91-3.94,7.51,1.03,1.28,26.83-.5,30.15-2.65,4.93-6.55,4.82-11.2,5.94-51.74,12.42-154.03,5.34-208.3.23,14.67-6.59,117.58,2.41,121.89-1.89.67-.67.94-19.05-.01-19.05h-86.65c-3.64,0-14.25-4.59-19.2-5.56-5.95-1.16-17.46,3.38-17.93-5.87Z"/>
      <path class="cls-6" d="M1100.38,988.94c-3.02,1.68-34.56-9.49-39.91-12.23-29.23-14.95-54.09-48.64-51.33-82.91,14.73,7.16,98.37,25.64,104.78,33.26,5.95,7.07-10.27,60.05-13.54,61.87ZM1048.61,928.34c-13.85,3.58,7.81,30.98,18.76,22.73,8.13-6.12-11.32-24.65-18.76-22.73ZM1092.63,944.93c6.75-3.96-5.96-22.85-15.07-16.03-7.96,5.96,5.4,21.7,15.07,16.03Z"/>
      <path class="cls-11" d="M573.03,1219.42c-.92,9.6,12.47,13.9,15.23,17.14,11.32,13.25-2.34,27.09-13.32,35.24-11.72,8.69-13.14,10.09-23.82-.95-27.5-28.44-37.37-70.6-33.07-109.25.82-7.37,8.88-45.08,20.68-38.44,15.78,8.87-7.79,75.67,17.32,91.34,2.95,1.84,13.68,5.35,16.97,4.92Z"/>
      <path class="cls-19" d="M1530.92,1055.66c-1.96,31.53-38.83,71.39-56.56,96.88-13.03-6.81-96.88-46.82-100.65-53.04-6.33-10.44,23.98-14.9,29.61-17.18,1.24,2.03,10.44,9.28,11.43,9.52-.29,3.1.43,6.46,0,9.52-.31,2.2-3.72,9.66-1.91,11.42.84.82,22.36,2.03,23.47,1.63,3.68-1.32,6.51-12.44,11.75-16.88,7.79-6.61,21.97-4.39,20.04-17.11,5.47,13.93,8.47-.05,11.36.01,3.58.08.96,12.79,7.34,14.98,32.11,11.03,23.48-27.94,44.12-39.76ZM1471.89,1112.78c-5.47-5.46-24.62,11.34-15.29,18.23,6.6,4.87,20.99-12.54,15.29-18.23Z"/>
      <path class="cls-8" d="M534.94,1048.04c-.84-3.6-24.05-25.63-28.57-26.66,9.48-10.95,21.39,8.99,32.3,4.78,4.98-1.92,20.35-25.49,27.64-31.5,17.01-14.03,35.14-14.06,53.71-22.46,12.97-5.87,21.47-16.13,34.37-20.86,7.61-2.79,47.76-8.86,49.74-12.14s-.37-14.52-1.6-18.75c6.67,2.49,13.13-.46,17.28,10.33,13.78,35.81-25.98,25-43.95,28.7-5.56,1.15-95.97,47.56-100.94,51.41-14.39,11.15-22.45,30.4-39.98,37.15Z"/>
      <path class="cls-9" d="M1087.03,1002.54c4.33,6.84-24.6,47.25-25.19,58.23-5.69,4.12-20.48,10.4-26.63,6.47-3.93-2.52-30.1-83.76-26.09-87.76,3.54-3.54,75.74,19.62,77.91,23.06ZM1040.84,1010.22c-6.01,2.38-4.16,13.38,3.63,14.95,17.67,3.57,11.4-20.92-3.63-14.95Z"/>
      <path class="cls-9" d="M1403.33,1082.32c15.63-6.32,120.06-49.63,127.6-41.9.53.55.16,12.6,0,15.24-20.64,11.82-12.01,50.79-44.12,39.76-6.38-2.19-3.76-14.9-7.34-14.98-2.89-.07-5.89,13.91-11.36-.01,1.93,12.72-12.25,10.5-20.04,17.11-5.24,4.44-8.07,15.56-11.75,16.88-1.11.4-22.63-.81-23.47-1.63-1.81-1.76,1.61-9.22,1.91-11.42,5.33,4.21,19.58,7.25,20.79-2.79,1.36-11.26-14.35-5.18-20.79-6.73-.99-.24-10.18-7.49-11.43-9.52ZM1496.13,1055.97c-10.9,2.83-10.32,26.35,5.39,16.94,8.35-5,4.48-19.51-5.39-16.94Z"/>
      <path class="cls-14" d="M715.48,1002.74c20.44-1.88,63.2,11.87,59.34,38.48-4.64,32.02-107.23,25.88-89.89-19.35,3.31-8.64,21.6-18.3,30.55-19.13ZM715.28,1008.26c-7.91,1.88-6.76,19.08,1.55,18.92,8.69-.17,9.31-21.5-1.55-18.92ZM743.13,1035.29c-11.59,14.28,17.35,14.19,18.5,2.19.96-9.92-14.03-7.71-18.5-2.19Z"/>
      <path class="cls-6" d="M837.73,653.86c9.41,1.82,5.98,25.06.83,26.39-2.03.52-16.11-5.46-15.75,4.69.42,11.9,16.12,6.25,16.82,7.01,1.03,1.13,0,29.19-1.92,30.45-9.56,6.28-43.65-58.89-38.06-1.89-8.13-8.32-9.33-12.26-16.15-20.99-12.07-15.45-24.26-9.34-10.82-35.5,6.08-11.84,18.4-22.43,32.63-16.77,15.36,6.11-2.64,17.17,32.42,6.6Z"/>
      <path class="cls-19" d="M1350.01,1295.59c-9.22,2.69-11.12-7.41-11.54-14.19-1.77-29.12,7.88-71.78,7.73-103.88,0-1.26.07-2.55,0-3.81,11.08-1.21,19.8-9.4,29.95-12.9,6.38-2.2,28.22,1.43,25.39-14.64-.88-4.98-20.54-15.28-25.7-14.37-7.45,1.31-13.63,16.56-31.54,20.96,23.91-36.43,36.19-41.65,71.09-13,11.58,9.51,19.7,14.04,2.59,22.88-27.68,14.31-57.21,2.95-62.03,42.71-3.5,28.85-1.69,59.2-5.93,90.23Z"/>
      <path class="cls-17" d="M506.37,1021.38c4.52,1.03,27.72,23.06,28.57,26.66,3.57,15.26-18.46,19.25-9.28,38.8,1.41,2.99,17.67,15.87,14.98,18.32-45.35-10.69-77-38.24-59.02-87.59,7.7,4.59,17.98,2.26,24.76,3.81Z"/>
      <path class="cls-17" d="M826.31,636.72c2.13-11.21,16.89-61.24,22.74-67.17,13.03-13.23,66.96-8.3,55.34-47.08,31.16,2.86,28.91,45.15,2.72,49.36-18.48,2.98-26.83-12.95-37.97,7.75-12.1,22.46-5.01,65.75-42.83,57.14Z"/>
      <path class="cls-6" d="M1066.26,1238.47c13.52,25.97,43.14,17.35,62.82,3.81,1.04,1.29,2.64,27.37,4.32,32.83,1.11,3.59,13.65,18.58,6.17,18.58h-32.37c-12.3,0-51.83-10.6-55.77-24.21-1.85-6.41.81-15.24-.41-21.49l15.23-9.52Z"/>
      <path class="cls-15" d="M576.83,1091.84c-1.62,12.44,12.23,19.7,20.95,24.76,10.65,16.51-4.45,6.28-9.3,9.75-1,.72-1.93,10.64-2.13,13.1-.98,12.22,4.77,73.01-19.55,66.31-18.53-5.11-8.2-76.61-11.05-93.79-1.68-10.12-17.23-26.58-17.01-33.46l38.09,13.33ZM561.61,1190.85c13.39,14.43,9.91-56.78,2.85-57.07-5.17-.21-4.81,54.96-2.85,57.07Z"/>
      <path class="cls-13" d="M573.03,1219.42c.92-.12,15.94-7.51,16.6-8.15,12.29-11.81,9.33-51,12.07-52.72,3.03-1.9,66.19,18.16,68.36,21,.33.43.31,5.01-.04,5.44-28.27,14.89-66.56,19.69-81.75,51.57-2.77-3.24-16.15-7.54-15.23-17.14Z"/>
      <path class="cls-17" d="M1285.26,1291.79c2.32.67,5.93-.86,9.48.95,6.62,3.38,15.89,32.69,8.45,38.88-3.9,3.24-66.83,17.91-69.34,15.39-2.06-2.07,4.87-33.25,11.42-36.17,15.13.79,39.3.55,39.99-19.04Z"/>
      <path class="cls-13" d="M1490.93,1034.69c-1.85,2.29-53.31,17.39-56.25,17.27-8.32-.34-29.18-17.97-37.05-22.93,18.07-.07,43.75-21.81,59.94-21.08,7.46.34,37.63,21.48,33.36,26.75Z"/>
      <path class="cls-6" d="M1443.32,1276.57c-6.66,11.53-76.56,43.96-81.87,38.06-1.94-2.15,4.92-56.23,8.61-57.13,1.25-.3,17.56,9.22,23.34,10.9,16.32,4.73,33.2,5.94,49.93,8.18ZM1405.22,1289.89c-3.83-3.45-32.33,8.73-36.75,11.79-2.52,1.74-5.25,5.31-3.22,7.23,3.4,3.23,48.53-11.31,39.97-19.02Z"/>
      <path class="cls-20" d="M677.77,773.83c-.4-28.92,17.33,1.85,21.86,13.37,15.9,40.45-9.34,37.88-12.29,63.95-1.35,11.9,8.1,16.46,7.55,27.4-49.89-8.84-1.51-51.73-1.96-73.58-.18-8.68-6.52-5.33-9.45-8.29-3.96-4-5.63-17.05-5.71-22.85Z"/>
      <path class="cls-6" d="M932.95,1192.77l3.81,36.18c-12.74,2.9-23.57,11.39-39.02,11.57-5.75.07-24.1-2.44-23.94-10.64.1-4.75,50.76-29.96,59.14-37.11Z"/>
      <path class="cls-17" d="M685.38,568.17c22.31,8.29-.88,32.79-3.36,45.19-7.12,35.56,33.56,59.11,33.8,75.82.07,4.81-12.69,4.21-17.1,6.57-4.08-18.01-23.83-32.46-26.48-50.64-3.99-27.41,12.37-50.13,13.15-76.94Z"/>
      <path class="cls-19" d="M1538.54,1169.91c2.25-4.79-3.46-8.99-3.81-10.5-.26-1.1,7.12-.76,3.79-4.75-.37-.45-2.52,1.7-3.36,1.31s-4.35-9.17-8.1,1.56c10.72,4.02-17.12,13.75-18.99,21.87,6.78-1.7,18.8-3.11,24.76-5.69-14.34,14.55-29.62,18.49-41.88-.95-6.1-9.68,3.91-26.54,12.56-31.21,10.47-5.66,64.97,7.96,35.04,28.35Z"/>
      <path class="cls-19" d="M1371.28,1076.34c-6.03-3.17-29.55-50.82,1.05-42.05,3.5,1,42.37,21.78,42.38,24.23.01,2.73-39.58,19.86-43.43,17.83Z"/>
      <path class="cls-10" d="M1346.2,1173.72c-.69-11.85-4.89-12.61-13.33-19.04,2.42-.32,9.54-1.44,11.43-1.9,17.91-4.4,24.09-19.66,31.54-20.96,5.17-.91,24.83,9.39,25.7,14.37,2.83,16.07-19,12.44-25.39,14.64-10.15,3.5-18.88,11.68-29.95,12.9Z"/>
      <path class="cls-19" d="M1327.16,1030.9c-1.32-11.93,17.33-38.8,15.23-53.32,6.18,1.14,13.73-.21,16.35,7.53,2.08,6.15-11.01,52.22-14.38,54.47-5.05,3.38-16.71-4.19-17.21-8.69Z"/>
      <path class="cls-20" d="M776.79,720.51c-7.48-1.28-18.75,4.45-25.33,3.43s-14.91-15.73-27.99-16.76c17.82-23.96,36.78-12.54,51.58,6.59,1.79,2.31,1.37,6.27,1.74,6.74Z"/>
      <path class="cls-19" d="M1209.09,1196.57c1.01,1.23,5.48,1.99,9.56,8.53,9.95,15.94,8.12,39.46,26.6,51.48-3.5,8.04-17.21-.28-20.01-4.77l-2.83,7.6c-.5-.49-3.51-.04-5.48-3.01-9.05-13.71-2.28-43.26-7.86-59.83Z"/>
      <path class="cls-19" d="M1279.55,1286.07c-1.08,3.83,2.7,4.84,5.71,5.71-.69,19.59-24.86,19.83-39.99,19.04-9.2-.48-11.69-10.94-20.95,7.62.11-.79-2.86-3.05-1.01-7.5,5.75-13.89,42.8-19.09,56.24-24.87Z"/>
      <path class="cls-19" d="M1190.04,1192.77c-7.37-4.02-16.21,5.54-17.14,5.71-6.72,1.23-51.31.53-55.25-2.83-3.04-2.6-1.79-7.16-1.88-10.5,20.21,5.09,57.21-8.41,74.27,7.62Z"/>
      <path class="cls-19" d="M1300.49,1247.99c-20.4-21.1-12.53-5.11-18.63,10.89-7.07,18.53-18.99,23.72-36.6,23.39,8.34-3.82,17.62-8.28,22.57-16.47,4.74-7.84,9.31-37.24,13.59-39.74,11.28-6.58,20.12,12.52,19.07,21.93Z"/>
      <path class="cls-19" d="M1262.41,1116.6c-.79-.9-9.97-22.11-2.89-19.02,5.6,2.44,21.15,23.41,33.41,29.45,8.64,4.25,26.84,4.23,26.61,14.33-10.53.26-16.74-1.02-26.66-3.81-4.39-8.61-26.27-16.2-30.47-20.95Z"/>
      <path class="cls-20" d="M948.19,1227.04c-4.46,1.02-8.16,1.16-11.43,1.9l-3.81-36.18c5.02-4.27,11.67-13.37,17.14-19.04-4.79,17.59-5.07,35.31-1.9,53.32Z"/>
      <path class="cls-17" d="M877.72,531.99c2.27,24.87-39.79,21.24-31.38-1.94.76-2.11,4.6-3.42,4.71-3.77,3.95,7.46,20.29,7.92,26.66,5.71Z"/>
      <path class="cls-19" d="M548.27,1068.99c10.35-.86,22.98,13.96,34.28,13.33-.72.65-5.64,8.97-5.71,9.52l-38.09-13.33c.15-4.71,4.86-9.13,9.52-9.52Z"/>
      <path class="cls-20" d="M1058.64,1217.52c.66,3.72,5.69,17.24,7.62,20.95l-15.23,9.52c-1.78-9.08-6.87-18.64-11.43-26.66,5.34.37,13.41-3.14,19.04-3.81Z"/>
      <path class="cls-20" d="M1332.87,1154.68c8.44,6.43,12.64,7.19,13.33,19.04.07,1.26,0,2.54,0,3.81-11.15,3.01-26.63-9.85-22.85-20.95,1.57-.07,6.48-1.5,9.52-1.9Z"/>
      <path class="cls-19" d="M1224.32,1390.81c.41,18.31,3.85,44.48-20.95,43.8.21-7.44,9.68-8.64,11.94-13.77,4.07-9.25-4.18-30.63,9.01-30.03Z"/>
      <path class="cls-17" d="M1532.83,1173.72c-5.95,2.58-17.98,3.99-24.76,5.69,1.86-8.12,29.71-17.85,18.99-21.87,3.75-10.73,7.22-1.96,8.1-1.56s2.99-1.75,3.36-1.31c3.33,3.99-4.05,3.65-3.79,4.75.36,1.51,6.07,5.7,3.81,10.5-1.75,1.19-3.93,3.04-5.71,3.81Z"/>
      <path class="cls-19" d="M972.94,1221.33c2.13-5.01-25.84-9.36-19.03-15.22,1.22-1.05,28.15,4.14,31.8,5.39,4.28,1.46,5.24-1.21,4.37,6.03-5.49,1.08-11.5,2.61-17.14,3.81Z"/>
      <path class="cls-20" d="M1190.04,1192.77c2.42,2.28,4.99,3.88,5.71,7.62-5.64,13.84-17.48,10.01-22.85-1.9.93-.17,9.77-9.74,17.14-5.71Z"/>
      <path class="cls-1" d="M1290.46,538.18c3.93,3.49,2.83,14.1-2.79,16.21-34.74,5.91-70.27,9.45-104.14,19.64-11.75,3.53-39.26,17.82-46.37,18.53-20.49,2.06,1.92-17.92,8.48-22.14,19.47-12.55,129.19-46.13,144.83-32.24Z"/>
      <path class="cls-6" d="M1315.2,591.44c24.49-5.62,70.77,33.43,22.37,30.1-20.41-1.4-46.45-24.57-22.37-30.1Z"/>
      <path class="cls-6" d="M1369.35,560.86c5.02-8.35,40.32,8.93,28.46,23.69-9.08,11.3-36.83-9.76-28.46-23.69Z"/>
      <path class="cls-6" d="M1208.56,574.28c24.05-5.36,9.25,31.87-9.52,25.9-11.94-3.8-.76-23.6,9.52-25.9Z"/>
      <path class="cls-6" d="M1318.85,544.05c19.68-1.46,26.9,22.59,3.77,20.16-16.3-1.71-19.16-19.02-3.77-20.16Z"/>
      <path class="cls-6" d="M1235.76,642.43c-3.42-3.77,4.57-32.13,19.03-23.83,15.63,8.97-14.84,28.45-19.03,23.83Z"/>
      <path class="cls-6" d="M1128.57,608.52c26.9-7.76-12.5,39.53-14.78,19.61-.61-5.32,10.28-18.31,14.78-19.61Z"/>
      <path class="cls-6" d="M1315.73,648.14c6.27,6.27-8.57,29.46-17.15,20.96-5.86-5.81,9.9-28.2,17.15-20.96Z"/>
      <path class="cls-6" d="M1376.17,644.81c9.78,10.02-11.9,26.35-15.86,9.11-2.02-8.82,11.06-14.03,15.86-9.11Z"/>
      <path class="cls-6" d="M1188.14,632.91c2.8,2.84-1.48,23.08-11.4,18.2-11.07-5.45,4.97-24.73,11.4-18.2Z"/>
      <path class="cls-20" d="M1187.43,1131.97c8.04-3.12,16.68,11.27,10.36,16.19-8.05,6.27-19.83-12.52-10.36-16.19Z"/>
      <path class="cls-20" d="M1105.54,1097.67c5.06-.75,12.25,9.48,4.66,16.22-12.27,10.89-12.55-15.05-4.66-16.22Z"/>
      <path class="cls-20" d="M833.29,829.38c6.11-2.26,25.13,1.38,28.21,7.32,1.84,3.55,2,31.36-.81,33.44-12.37,9.15-13.48-18.27-14.41-20.12s-25.17-16.13-12.99-20.64Z"/>
      <path class="cls-20" d="M765.39,752.88c1.04.62,3.5-3.71,6.58-3.74,6.13-.06,19.82,9.51,15.35,17.09-6.32,10.72-17.25-5.97-20.99-5.76-1.73.1-1.01,4.48-4.04,5.52-15.57,5.33-16.5-27.21-2.03-22.42,4.43,1.47,4.67,9.04,5.12,9.31Z"/>
      <path class="cls-20" d="M753.26,844.59c8.47-1.54,23.01,22.7,10.72,26.09-12.42,3.42-22.4-23.97-10.72-26.09Z"/>
      <path class="cls-20" d="M820.49,907.05c-5.12,3.26-25.51-13.79-16.24-21.05,12.02-9.42,23.15,16.65,16.24,21.05Z"/>
      <path class="cls-20" d="M736.23,777.93c13.94-3.99,10.01,26.32-2.01,24.16-8.06-1.45-6.35-21.76,2.01-24.16Z"/>
      <path class="cls-20" d="M762.78,814.03c11.37-4.51,19.31,15.08,10.2,19.84-11.75,6.14-18.45-16.57-10.2-19.84Z"/>
      <path class="cls-20" d="M841.24,803.98c-6.28,10.21-24.55-12.57-12.99-17.9,6.81-3.14,17.32,10.87,12.99,17.9Z"/>
      <path class="cls-7" d="M1161.69,874.95c3.36-4.67,28.55-1.67,21.74,11.23-5.78,10.96-28.7-1.55-21.74-11.23Z"/>
      <path class="cls-7" d="M1005.79,837.14c9.09-9.14,15.4,2.11,12.42,13.39-4.9,18.55-21.53-4.22-12.42-13.39Z"/>
      <path class="cls-7" d="M1387.6,884.79c13.54,11.28-7.57,26-13.89,9.13-5.04-13.43,6.13-15.6,13.89-9.13Z"/>
      <path class="cls-7" d="M1052.46,854.16c12.24-2.39,18.56,11.61,9.95,15.94-7.95,4-26.5-12.7-9.95-15.94Z"/>
      <path class="cls-7" d="M1481.9,893.31c-6.13-6.28.11-20.46,9-15.8,10.1,5.29.59,25.62-9,15.8Z"/>
      <path class="cls-20" d="M675.13,1210.44c23.29-2.85,37.26,33.49,4.39,25.29-15.64-3.9-20.91-23.27-4.39-25.29Z"/>
      <path class="cls-20" d="M806.77,1257.99c29.53-4.97,28.68,18.61,1.18,20.31s-20.74-17.02-1.18-20.31Z"/>
      <path class="cls-20" d="M726.73,1320.77c29.5-6.98,18.17,26.5-5.64,22.09-14.35-2.65-4.14-19.78,5.64-22.09Z"/>
      <path class="cls-20" d="M726.74,1254.12c22.46-5.33,35.51,13.24,16.6,16.57-19.3,3.4-35.75-12.02-16.6-16.57Z"/>
      <path class="cls-20" d="M770.61,1294.06c14.54-.95,16.18,18.38,2.92,20.22-16.06,2.22-19.88-19.11-2.92-20.22Z"/>
      <path class="cls-20" d="M681.09,1267.33c15.7-2.93,15.11,17.11,3.2,18.79-12.63,1.78-16.43-16.32-3.2-18.79Z"/>
      <path class="cls-20" d="M782,1227.46c15.83-3.71,14.57,12.48,8.13,15.77-15.88,8.1-22.13-12.49-8.13-15.77Z"/>
      <path class="cls-20" d="M639.02,1242.57c10.23-3.92,23.09,6.59,14.96,13.06-12.53,9.96-24.71-9.32-14.96-13.06Z"/>
      <path class="cls-20" d="M641.1,1278.94c11.79,11.36-19.36,23.07-16.69,4.41,1.11-7.75,12.01-8.93,16.69-4.41Z"/>
      <path class="cls-7" d="M839.22,1088.57c31.93-3.75,89.02,10.27,86.17,51.77-4.13,60.09-131.65,45.8-138.66-8.06-3.41-26.22,31.29-41.22,52.5-43.71ZM839.18,1101.87c-16.67,1.96-44.24,18.54-35.27,38.09,15.16,33.05,120.2,36.44,105.34-12.04-6.24-20.35-51.99-28.17-70.06-26.05Z"/>
      <path class="cls-7" d="M704.43,1143.25c-1.73.13-7.66,5.84-11.39,6.74-15.85,3.82-79.22-24.1-95.26-33.4-8.72-5.06-22.57-12.32-20.95-24.76.07-.55,5-8.88,5.71-9.52,7.62-6.86,37.94-11.55,48.5-11.55,38.25-.03,79.45,31.02,73.38,72.49ZM691.09,1135.63c1.14-1.15-1.75-11.39-2.43-13.73-9.11-31.08-57.1-48.55-85.18-34.85-9.54,4.65-12.21,8.08-2.38,13.86,10.78,6.34,38.35,18.63,50.64,23.62,5.65,2.29,36.4,14.06,39.35,11.09Z"/>
      <path class="cls-7" d="M629.81,1027.54c30.33-1.37,26.6,25.04-2.49,26.35-37.1,1.67-28.69-24.94,2.49-26.35Z"/>
      <path class="cls-7" d="M795.41,1071.27c20.35-2.28,20.68,18.71,2.39,23.47-27.76,7.22-23.02-21.15-2.39-23.47Z"/>
      <path class="cls-7" d="M741.96,1128.43c19.43-6.63,45.08,23.02,14.84,22.6-17.23-.24-27.69-18.22-14.84-22.6Z"/>
      <path class="cls-7" d="M747.93,1106.79c-3.44,5.56-24.77,2.48-15.95-11.19,5.53-8.57,22.57.49,15.95,11.19Z"/>
      <path class="cls-7" d="M806.76,1040.73c5.31-1.41,19.8,4.76,16.82,11.13-5.5,11.77-32.65-6.93-16.82-11.13Z"/>
      <path class="cls-7" d="M653.5,1011.37c-3.96-4.28-3.49-14.48,2.76-16.34,15.26-4.53,7.6,27.56-2.76,16.34Z"/>
      <path class="cls-17" d="M1254.23,785.66c22.33-7.19,26.53,16.52,8.94,18.59-14.91,1.75-18.81-15.41-8.94-18.59Z"/>
      <path class="cls-6" d="M820.6,1345.09c-8.43-8.18,34.87-41.3,38.08-27.55,2.2,9.39-32.11,33.35-38.08,27.55Z"/>
      <path class="cls-6" d="M677.76,1377.47c-1.45,1.48-37.79-4.46-35.45-15.26,4.67-21.54,44.71,5.77,35.45,15.26Z"/>
      <path class="cls-6" d="M780.15,1353.13c21.51-2.41,5.75,13.61-6.15,18.69-38.76,16.54-19.1-15.87,6.15-18.69Z"/>
      <path class="cls-7" d="M940.04,1343.64c24.91-6.66,21.37,17.51,7.08,18.52-13.55.96-21.18-14.75-7.08-18.52Z"/>
      <path class="cls-20" d="M1153.22,987.62c17.16-.38,2.53,28.31-10.78,21.4-9.81-5.09,1.02-21.19,10.78-21.4Z"/>
      <path class="cls-20" d="M1111.97,1038.51c-4.53-4.36,10.85-27.21,18.22-17.23,6.58,8.91-13.31,21.95-18.22,17.23Z"/>
      <path class="cls-20" d="M1216.16,1055.98c12.56-3.41,9.79,15.39.45,21.48-18.53,12.08-10.79-18.67-.45-21.48Z"/>
      <path class="cls-20" d="M1183.79,1046.49c13.4-4.24,11.81,12.1,4.97,14.6-12.17,4.45-13.62-11.86-4.97-14.6Z"/>
      <path class="cls-20" d="M1418.02,962.77c11.58-3.49,22.84,1.6,9.93,11.81-18.43,14.58-25.22-7.2-9.93-11.81Z"/>
      <path class="cls-20" d="M1397.61,975.69c5.01,4.63-18.16,23.57-20.94,12.31-1.81-7.33,17.62-15.38,20.94-12.31Z"/>
      <path class="cls-20" d="M1384.3,1228.97c3.21-4.79,43.79-.15,39.97,10.42-2.59,7.17-44.43-3.76-39.97-10.42Z"/>
      <path class="cls-20" d="M1275.75,1072.81c2.53-2.54,36.58,24.21,26.77,31.54-12.14,9.07-11.75-13.38-12.35-14.41s-20.54-10.97-14.42-17.13Z"/>
      <path class="cls-20" d="M1298.09,1063.54c11.35-1.4,10,17.97,1.4,18.9-9.68,1.04-14.97-17.23-1.4-18.9Z"/>
      <path class="cls-20" d="M1311.93,1110.87c-3.55-3.32,11.62-24.06,18.2-15.33,6.48,8.58-14.1,19.18-18.2,15.33Z"/>
      <path class="cls-20" d="M1308.12,1067.07c-2.32-2.56,1.6-15.72,8.48-13.3,10.14,3.57-4.49,17.68-8.48,13.3Z"/>
      <path class="cls-20" d="M1048.61,928.34c7.45-1.92,26.89,16.6,18.76,22.73-10.95,8.25-32.61-19.15-18.76-22.73Z"/>
      <path class="cls-20" d="M1092.63,944.93c-9.66,5.66-23.03-10.07-15.07-16.03,9.11-6.82,21.82,12.07,15.07,16.03Z"/>
      <path class="cls-20" d="M1414.76,1091.84c6.45,1.55,22.15-4.53,20.79,6.73-1.21,10.05-15.46,7.01-20.79,2.79.43-3.06-.29-6.42,0-9.52Z"/>
      <path class="cls-20" d="M1471.89,1112.78c5.7,5.69-8.69,23.1-15.29,18.23-9.33-6.89,9.82-23.69,15.29-18.23Z"/>
      <path class="cls-20" d="M1040.84,1010.22c15.03-5.96,21.3,18.52,3.63,14.95-7.79-1.57-9.64-12.57-3.63-14.95Z"/>
      <path class="cls-20" d="M1496.13,1055.97c9.88-2.56,13.75,11.94,5.39,16.94-15.71,9.41-16.29-14.12-5.39-16.94Z"/>
      <path class="cls-7" d="M743.13,1035.29c4.48-5.51,19.46-7.73,18.5,2.19-1.16,11.99-30.1,12.08-18.5-2.19Z"/>
      <path class="cls-7" d="M715.28,1008.26c10.86-2.58,10.24,18.75,1.55,18.92-8.31.16-9.46-17.04-1.55-18.92Z"/>
      <path class="cls-19" d="M561.61,1190.85c-1.96-2.11-2.32-57.29,2.85-57.07,7.06.29,10.55,71.5-2.85,57.07Z"/>
      <path class="cls-19" d="M1405.22,1289.89c8.56,7.71-36.57,22.24-39.97,19.02-2.03-1.93.7-5.49,3.22-7.23,4.42-3.06,32.92-15.24,36.75-11.79Z"/>
      <path class="cls-14" d="M839.18,1101.87c18.07-2.13,63.83,5.7,70.06,26.05,14.86,48.48-90.18,45.1-105.34,12.04-8.96-19.55,18.61-36.13,35.27-38.09ZM871.4,1114.89c-7.43,1.82-10.37,18.08,1.45,17.01,10.79-.98,7.09-19.11-1.45-17.01ZM835.3,1132.16c-5.87,1.49-9.98,10.66-4.4,15.09,12.36,9.82,19.52-18.93,4.4-15.09ZM885.34,1133.74c-7.79-7.67-28.24,20.31-9.01,16.82,6.99-1.27,11.98-13.9,9.01-16.82Z"/>
      <path class="cls-14" d="M691.09,1135.63c-2.95,2.96-33.7-8.8-39.35-11.09-12.3-4.99-39.86-17.28-50.64-23.62-9.84-5.78-7.16-9.21,2.38-13.86,28.09-13.7,76.07,3.77,85.18,34.85.69,2.34,3.58,12.58,2.43,13.73Z"/>
      <path class="cls-20" d="M885.34,1133.74c2.97,2.92-2.02,15.55-9.01,16.82-19.23,3.49,1.22-24.49,9.01-16.82Z"/>
      <path class="cls-20" d="M835.3,1132.16c15.12-3.84,7.96,24.9-4.4,15.09-5.57-4.43-1.47-13.6,4.4-15.09Z"/>
      <path class="cls-20" d="M871.4,1114.89c8.55-2.1,12.24,16.03,1.45,17.01-11.82,1.07-8.88-15.19-1.45-17.01Z"/>
    </g>
  </g>
</svg>