<?xml version="1.0" encoding="UTF-8"?>
<svg id="Layer_2" data-name="Layer 2" xmlns="http://www.w3.org/2000/svg" viewBox="0 0 2048.06 2048.2">
  <defs>
    <style>
      .cls-1 {
        fill: #606060;
      }

      .cls-2 {
        fill: #e6556b;
      }

      .cls-3 {
        fill: #0b0507;
      }

      .cls-4 {
        fill: #c74058;
      }

      .cls-5 {
        opacity: 0;
      }
    </style>
  </defs>
  <g id="BubblegumHatch">
    <g>
      <g>
        <path class="cls-1" d="M1214.85,1590.46c-.37,10.09.19,18.73,7.83,25.9,30.67,28.77,132.92,25.67,172.95,19.12,22.09-3.61,57.75-9.78,52.64-39.17-1.83-10.57-21.33-50.6-28.15-59.68-12.21-16.26-25.27-11-12.54-36.61,5.93-11.92,16-22.65,21.77-34.69,9.67-20.18,12.18-43.45,20.55-64.14,9.7-24,26.24-45.69,38.23-68.43,60.04-113.88,45.9-270.73-13.57-382.16-5.71-10.69-13.26-20.57-18.9-31.3-19.15-36.44-23.27-75.24-34.85-114.15-44.15-148.34-166.1-356.37-335.6-376.54-216.07-25.72-391.52,250.04-469.51,417.95-55.52,119.54-125.15,319.27-81.43,447.91,10.07,29.63,30,52.17,41.18,79.6,9.14,22.43,10.36,47.18,19.86,69.53,9.32,21.92,26.1,42.41,41.93,60.02,1.45,2.22,2.29,4.61,1.55,7.29-.46,1.66-22.05,23.57-24.01,24.74-2.25,1.34-3.22,2.04-6.02,1.26-2.62-.73-19.85-25.06-23.86-29.59-5.3-6-27.63-28.75-33.66-30.64-13.54-4.25-25.69,7.26-35.36,15.02-12.4,9.97-53.64,49.39-55.66,63.59-2.23,15.66,20.34,18.39,32.51,20.63,31.14,5.72,61.89,3.9,92.93-1.13-12.07,21.3-15.75,37.88,10.55,48.25,39.28,15.48,149.44,18.71,182.48-9.8,10.17-8.77,7.02-18.85,7.8-19.65.71-.73,17.26.55,20.4.02-5.99,22.39-28.62,40.92,3.63,53.61,19.65,7.73,73.83,13.92,91.07,1.03,18.84-14.09-6.39-42.48-2.12-46.8,38.39,1.8,78.42,20.31,116.97,18.87,23.23-.87,47.55-11.16,70.74-13.97,17.92-2.17,37.03-.5,54.69-1.79,24.1-1.77,48.54-12.39,72.97-14.09Z"/>
        <path class="cls-1" d="M1489.01,1485.74c-13.71,2.84-50.65,39.68-50.84,54.02-.33,25.39,62.18,31.73,80.28,30.28,8.86-.71,36.39-6.09,36.43-17.69,0-2.24-2.66-17.65-3.39-19.99-2.88-9.25-42.38-45.32-51.93-46.89-3.17-.52-7.39-.38-10.55.27Z"/>
        <path class="cls-1" d="M1104.7,1608.04c-10.51.88-31.46,22.97-37.07,32.07-15.36,24.92-.4,34.39,24.09,36.57,23.59,2.1,131.25-2.06,76.59-43.62-12.19-9.27-48.73-26.27-63.6-25.03Z"/>
        <path class="cls-3" d="M1214.85,1590.46c-24.43,1.7-48.87,12.32-72.97,14.09-17.67,1.3-36.77-.38-54.69,1.79-23.18,2.81-47.5,13.1-70.74,13.97-38.55,1.44-78.57-17.07-116.97-18.87-4.28,4.32,20.96,32.71,2.12,46.8-17.24,12.9-71.42,6.71-91.07-1.03-32.25-12.69-9.62-31.23-3.63-53.61-3.14.53-19.69-.75-20.4-.02-.78.8,2.37,10.88-7.8,19.65-33.03,28.51-143.2,25.28-182.48,9.8-26.3-10.37-22.62-26.95-10.55-48.25-31.04,5.02-61.79,6.84-92.93,1.13-12.17-2.23-34.74-4.96-32.51-20.63,2.02-14.2,43.26-53.62,55.66-63.59,9.66-7.77,21.82-19.27,35.36-15.02,6.03,1.89,28.36,24.64,33.66,30.64,4,4.53,21.24,28.87,23.86,29.59,2.8.78,3.77.08,6.02-1.26,1.95-1.17,23.55-23.08,24.01-24.74.74-2.68-.1-5.07-1.55-7.29-15.83-17.6-32.61-38.09-41.93-60.02-9.5-22.36-10.72-47.1-19.86-69.53-11.17-27.43-31.11-49.97-41.18-79.6-43.71-128.64,25.91-328.37,81.43-447.91,77.99-167.91,253.43-443.67,469.51-417.95,169.49,20.17,291.45,228.21,335.6,376.54,11.58,38.9,15.7,77.7,34.85,114.15,5.64,10.73,13.19,20.6,18.9,31.3,59.47,111.43,73.61,268.28,13.57,382.16-11.99,22.74-28.53,44.43-38.23,68.43-8.37,20.69-10.88,43.97-20.55,64.14-5.78,12.05-15.84,22.77-21.77,34.69-12.74,25.61.33,20.35,12.54,36.61,6.82,9.08,26.31,49.11,28.15,59.68,5.1,29.39-30.55,35.56-52.64,39.17-40.03,6.55-142.28,9.65-172.95-19.12-7.64-7.17-8.2-15.81-7.83-25.9Z"/>
        <path class="cls-3" d="M1131.7,477.03c-134.36-47.08-238,31.79-320.89,128.64-2.03,4.4,3.64,14.41,5.96,19.11,7.43,15.03,21.39,24.52,22.88,41.41,2,22.62-14.63,65.71-5.71,84.13,3.46,7.16,25.78,17.82,34,24.05,26.65,20.18,35.31,38.64,55.08,63.35,2.14,2.67,3.8,9.27,8.58,9.37,8.46.17,43.02-35.95,50.28-43.85,14-15.24,34.92-37.49,39.55-57.7,5.22-22.78,2.27-73.97,14.55-90.53,8.8-11.88,45.02-21.06,59.7-28.15,6.64-3.2,27.93-15.1,31.1-20.67,5.45-9.55,3.69-32.16,4.93-43.69,2.99-27.82,8.12-55.7,7.67-83.76-2.53-.62-5.22-.86-7.68-1.73Z"/>
        <path class="cls-3" d="M1243.11,558.57c-1.32-1.41-2.32-4.67-4.67-7.1-23.57-24.43-50.2-46.77-81.62-60.33l-7.87,99.55c-.71,22.83-32.68,52.89-52.97,59.97-26.23,9.15-44.1.65-50.37,35.9-9.39,52.76,5.33,78.66-31.61,126.79-37.4,48.74-76.53,70.47-78.47,141.11-1.68,61.41,71.45,80.14,53.65,149.3-7.98,31.02-35.2,52.73-10.31,85.09,28.36,36.88,53.67,37.17,52.43,94.22-.22,10.07-2.06,13.39,0,25.09,2.57,14.57,10.31,28.34,9.47,43.18-.19,3.43-4.75,24.02-6.25,25.12-7.14,5.25-4.71-9.81-4.79-14.98-.46-27.32-3.62-20.34-11.26-41.28-11.83-32.45,8.79-46.93-21.69-82.6-2.97-3.48-15.24-18.16-19.45-17.13-2.78.68-31.77,40.8-34.18,45.86-8.39,17.61-4.27,29.59-6.19,47.13-.95,8.74-5.99,24.68-10.09,7.34-3.01-12.73-3.24-33.94-2.27-47.13,2.54-34.43,34.95-41.61,23.09-80.32-5.33-17.39-11.4-21.55-8.97-42.79,1.87-16.37,19.07-32.4,21.59-48.98,2.82-18.54-10.7-37.58-20.93-52.03-7.41-10.46-32.52-35.87-35.67-44.32-1.14-3.06-2.3-9.68-2.61-13.08-4.04-44.85,21.69-98.09-7.87-138.76-1.83-6.04-8.72-17.59-12.57-22.7-1.09-1.44-1.54-.6-2.3.77-4.45,7.99-11.35,33.92-12.93,43.54-4.39,26.8.92,61.17-16.13,84.24-6.61,8.95-19.39,14.33-24.16,24.47-5.58,11.86-2.96,26.3-8.02,39.03-3.93,9.89-13.56,16.14-11.34,1.21,2.33-15.69,4.03-19.27,4.44-36.32s23.65-34.35,30.97-49.04c10.92-21.92,5.96-46.72,10.09-69.89,4.44-24.91,22.94-43.99,7.18-69.15-10.35-16.52-34.88-23.75-41.28-41.85-10.92-30.88,14.11-68.55,1.02-98.25-4.56-10.34-16.2-19.94-20.65-31.14-6.42-3.31-11.01,5.83-14.77,10.41-19.65,23.98-39.82,55.15-56.51,81.52-80.82,127.64-185.49,364.7-170.36,516.58,2.17,21.83,14.85,82.73,34.51,93.32,2.59,15.68,13.32,28.45,18.86,43.09,15.46,40.8,12,71.59,47.05,106.66,14.53,14.54,15.43.78,29.86,3.02,19.03,2.96,60.39,35.98,72.77,51.22,6.07,7.47,12.12,23.12,20.95,26.1,6.22,2.1,44.25,3.56,49.53,1.74,4.08-1.4,6.66-14.35,9.64-17.01,8.77-7.82,28.38,11.66,35.81,16,18.32,10.69,33.64,8.89,53.16,12.74,18.28,3.6,37.33,9.43,55.63,11.83,46.64,6.1,86.55-9.84,131.77-15.27,34.58-4.15,70.7-2.13,104.48-11.62,29.67-8.34,30.91-23.29,49.06-43.48,15.04-16.73,49.88-45.87,73.67-42.22,19.03,2.92,26.91,33.29,44.06,1.49,16.29-30.21,21.8-67.04,36.57-98.32,12.84-27.18,32.42-51.33,44.48-79.43,40.74-94.87,28.31-222.08-16.19-313.69-12.86-26.48-31.12-50.26-40.85-78.36-7.04-20.34-10.08-41.88-15.86-62.56-13.67-48.87-34.23-94.5-54.49-140.79-2.18.32-4.03,5.16-4.73,7-6.97,18.19-13.9,37.31-20.35,55.72s-12.56,54.88-25.83,69.06c-18.91,20.2-63.62,18.43-76.84,40.81-18.99,32.16-12.96,93.91-37.74,122.23-3.18,3.63-15.61,11.78-16.23,13.57-1.75,5.11,1.83,30.57,4.14,36.12,4.22,10.16,16.04,15.29,20.53,24.95,4.78,10.26,2.28,17.9,3.34,28.03,2.29,21.92,23.61,28.33,23.56,50.18-.03,12.14-9.35-7.4-11.03-9.43-1.5-1.81-3.79-2.79-4.71-3.87-19.53-23.11-12.88-20.53-21.53-46.7-5.08-15.37-13.03-14.54-20.83-24.66-8.95-11.62-8.74-27.98-12.58-41.55-3.28-.18-6.46,4.04-7.82,4.71-22.27,10.85-40.89,25.16-50.49,49.12-11.53,28.75-5.71,49.14-41.02,62.5-26.03,9.85-7.94-5.31-1.97-14.52,21.27-32.85,26.41-84.3,60.54-108.08,13.08-9.12,29.93-14.09,43.1-25.14,34.47-28.92,30.89-79.59,42.39-119.15,11.77-40.48,56.51-29.72,84.74-51.73,25.65-19.99,21.74-56.55,35.49-82.14,8.52-15.85,21.11-19.55,23.33-42.55,4.24-43.94-55.95-106.5-84.71-137.2Z"/>
        <path class="cls-3" d="M1327.83,1501.07c-4.1.02-24.02,15.89-28.26,19.58-11.69,10.18-50.54,51.85-54.16,65.05-3.98,14.53,7.49,16.33,18.37,19.37,26.12,7.3,54.3,9.37,81.32,8.91-.55-24.53,4.45-48.34,3.21-73.01-.48-9.48-3.45-19.47-3.21-28.94.06-2.3-1.35-7.34,2.32-6.25,5.06,1.5,11.06,9.8,11.74,15.01.69,5.26-1.52,9.15-1.57,13.91-.31,26.41.37,52.87.06,79.27,2.87,2.86,61.86-9.01,65.21-15.7,3.97-7.95-32.31-56.03-39.29-64.31-9.17-10.87-37.97-43.59-53.2-39.29-1.68.47-1.19,4.97-2.52,6.38Z"/>
        <path class="cls-3" d="M532.34,1510.47c-8.16,8.52-20.2,20.77-29.07,28.19-5.43,4.55-15.44,6.33-14.87,14.14,17.98,1.97,36.05,3.41,54.17,3.12,2.51-.04,4.97-1.44,7.03-1.55,8.27-.41,41.62,3.26,37.02-12.57-2.47-8.51-34.26-37.16-42.9-38.88-9.59-1.91-7.71,3.7-11.38,7.53Z"/>
        <path class="cls-3" d="M687.67,1512.04c-2.34-1.44.28-7.73-12.1-1.9-14.43,6.8-54.57,51.18-64.74,65.45-5.12,7.18-13.44,17.24-2.7,23.02s67.94,14.91,76.94,9.22c6.29-3.97-.32-26.86-.58-33.77-.3-8.09,1.5-14.94,1.63-22.81,21.27,5.75,4.05,46.35,10.1,54.99,4.3,6.13,45.56-6.64,53.07-9.88,8.89-3.83,16.77-6.75,12.49-18.01-6.06-15.94-49.2-58.68-65.12-65.08-3.08-1.24-8.59-.98-8.98-1.22Z"/>
        <path class="cls-3" d="M853.78,1573.42c-1.44-.84-3.13-.16-4.49.57-4.43,2.36-32.98,46.85-31.3,49.25,15.77,7.7,36.13,14.42,53.88,12.51,5.09-.55,19.48-3.97,17.62-10.84l-35.7-51.5Z"/>
        <path class="cls-3" d="M1489.01,1485.74c3.16-.65,7.38-.79,10.55-.27,9.54,1.57,49.05,37.63,51.93,46.89.73,2.34,3.4,17.75,3.39,19.99-.04,11.6-27.58,16.98-36.43,17.69-18.1,1.45-80.6-4.89-80.28-30.28.18-14.34,37.13-51.18,50.84-54.02ZM1530.24,1548.11c1.99-12.35-23.39-42.88-33.98-43.45-11.02-.59-39.95,27.72-29.94,38.35.82.87,11.97,5.1,12.92,5.1h50.99Z"/>
        <path class="cls-3" d="M1104.7,1608.04c14.87-1.24,51.41,15.76,63.6,25.03,54.66,41.56-53,45.71-76.59,43.62-24.49-2.18-39.45-11.65-24.09-36.57,5.61-9.1,26.56-31.2,37.07-32.07ZM1156.8,1648.46c5.91-8.78-20.25-10.42-23.56-11.71-7.19-2.8-8.66-9.35-19.52-8.73-11.71.67-27.14,13.62-29.08,25.14,10.38,2.58,19.75,3.92,30.57,3.13,4.61-.34,40.42-6.08,41.6-7.84Z"/>
        <path class="cls-2" d="M1243.11,558.57c.09,5.98,3.01,12.07,5.1,17.64,16.19,43.17,33.82,85.81,49.73,129.1,1.25,17.1-9.38,31.56-13.58,47.4-3.34,12.59-4,44.59-13.5,51.58-24.33,13.77-57.66,21.16-80.63,36.25-43.13,28.33-13.12,113.43-58.66,149.94-8.07,6.47-23.58,12.4-29.75,18.88-2.15,2.26-3.52,3.71-3.06,7.13-34.13,23.78-39.26,75.23-60.54,108.08-5.96,9.21-24.06,24.36,1.97,14.52,35.31-13.36,29.49-33.75,41.02-62.5,9.61-23.96,28.22-38.27,50.49-49.12,8.24,14.68,5.51,29.98,11.8,45.45,5.25,12.9,5.95,8.83,14.81,14.99,14.82,10.31,7.47,27,14.42,38.9,4.53,7.76,12.95,9.74,19.4,15.11l2.33-6.26c.91,1.08,3.21,2.07,4.71,3.87,1.68,2.03,11,21.57,11.03,9.43.05-21.86-21.27-28.26-23.56-50.18-1.06-10.13,1.44-17.76-3.34-28.03-4.5-9.67-16.31-14.8-20.53-24.95-2.31-5.55-5.89-31.01-4.14-36.12.62-1.79,13.05-9.94,16.23-13.57,24.78-28.32,18.75-90.08,37.74-122.23,13.22-22.39,57.93-20.61,76.84-40.81,13.27-14.18,19.21-50.16,25.83-69.06,4.4-1.05,4.41,6.83,5.18,9.72,9.25,34.52,14.13,70.07,24.21,104.39,8.75,29.8,30,70.69,34.56,98.75,3.19,19.64-9.21,17.55-11.8,32.93-4.25,25.22,9.36,51.69,34.25,59.39-.71,21.45.27,45.32-4.27,66.23-5.52,25.45-22.01,48.52-30.4,73.11-7.41,21.7-10.02,47.16-20.07,67.76-17.48,35.85-95.11,75.58-131.51,92.81-4.74,2.24-12.69,3.46-16.19,5.78-2.93,1.94-3.23,6.65-7.14,7.1-7.14.82-5.63-8.12-7.94-12.54-3.09-5.91-38.19-31.47-43.63-29.82-3.04.92-17.09,47.99-25.26,57.97-3.78,4.61-34.12,25.2-40.54,28.48-35.28,18.06-70.03-7.29-103.43-17.96-31.2-9.96-66.83-14.99-96.4-29.1-5.29-2.52-17.27-12.05-21.95-12.46-4.21-.37-11.2,7.26-13.06,5.91-1.17-13.52-37.76-68.08-47.96-69.08-5.16-.5-12.59,10.2-15.47,14.34-8.83,12.72-13.74,32.65-21.49,42.8-1.07,1.4-1.7,2.64-3.78,2.62l-55.16-23.34c-12.92-7.39-44.12-37.16-57.41-34.49-16.01,3.21-6.58,39.62-31.42,33.91-3.84-.88-6.78-4.92-10.47-6.84-2.17-1.13-4.87-1.46-6.33-2.24-19.66-10.59-32.33-71.49-34.51-93.32-15.13-151.88,89.54-388.94,170.36-516.58,16.69-26.36,36.86-57.54,56.51-81.52,3.76-4.58,8.35-13.72,14.77-10.41,4.45,11.2,16.09,20.81,20.65,31.14,13.09,29.7-11.94,67.37-1.02,98.25,6.4,18.11,30.94,25.34,41.28,41.85,15.76,25.16-2.74,44.23-7.18,69.15-4.13,23.17.83,47.97-10.09,69.89-7.32,14.69-30.56,32-30.97,49.04s-2.11,20.63-4.44,36.32c-2.22,14.92,7.41,8.68,11.34-1.21,5.06-12.73,2.44-27.16,8.02-39.03,4.77-10.14,17.55-15.52,24.16-24.47,17.05-23.07,11.74-57.45,16.13-84.24,1.58-9.62,8.48-35.54,12.93-43.54.76-1.37,1.22-2.21,2.3-.77,3.86,5.11,10.75,16.66,12.57,22.7,11.96,39.49-5.24,96.97.41,138.38,5.12,37.54,47.09,52.26,51.36,94.51,3.29,32.58-19.42,59.94-15.27,90.54,1.62,11.94,11.58,26.32,10.5,37.85-.79,8.4-11,21.43-13.96,31.65-2.14,7.41-3.37,14.95-4.04,22.64-.25,2.85-2.83,5.4,2.37,4.71-.97,13.19-.74,34.4,2.27,47.13,4.1,17.35,9.14,1.4,10.09-7.34,1.92-17.54-2.2-29.52,6.19-47.13,2.41-5.06,31.39-45.18,34.18-45.86,4.22-1.03,16.48,13.65,19.45,17.13,2.53,12.1,9.45,24.68,10.82,37.02,1.6,14.44-2.33,34.48.84,47.77,1.75,7.36,12.1,13.49,14.28,21.79,1.75,6.66.26,13.7.74,20.43l6.27-3.13c.09,5.17-2.35,20.23,4.79,14.98,1.5-1.1,6.05-21.69,6.25-25.12.84-14.84-6.9-28.61-9.47-43.18,6.6-4.69,4.73-13.53,3.63-20.18-.46-2.8.6-5.83-3.63-4.91,1.24-57.05-24.07-57.34-52.43-94.22-24.89-32.37,2.33-54.08,10.31-85.09,17.8-69.15-55.33-87.89-53.65-149.3,1.94-70.64,41.06-92.37,78.47-141.11,36.94-48.14,22.23-74.03,31.61-126.79,6.27-35.26,24.15-26.75,50.37-35.9,20.29-7.08,52.26-37.14,52.97-59.97l7.87-99.55c31.42,13.56,58.05,35.9,81.62,60.33,2.35,2.43,3.35,5.69,4.67,7.1ZM1198.7,574.58c-11.43,3.41.36,44.04,19.31,34.96,10.63-5.1,3.02-41.62-19.31-34.96ZM1173.61,692.21c-16.26,3.75-14.17,48.01-7.16,59.81,7.38,12.43,24.62,18.03,34.3,4.94,13.07-17.66.82-71.21-27.14-64.76ZM1255.21,692.09c-9.83,2.66-1.31,28.42,7.18,26.26,11.1-2.82,5.73-29.76-7.18-26.26ZM748.41,753.32c-8.05,2.38-22.95,35.32-5.13,32.69,11.23-1.65,21.84-37.63,5.13-32.69ZM1109.29,789.43c-14.86,4.4-2.76,42.3,15.02,37.01,14.26-4.24,5.99-43.22-15.02-37.01ZM739.17,839.65c-57.68,2.27-105.65,132.92-51,159.87,43.9,21.65,87.15-35.06,95.72-72.69,7.5-32.93-.14-88.93-44.72-87.17ZM1071.69,869.41c-30.82,5.12-28.13,77.15-4.77,82.46,26.46,6.01,39.41-18.04,38.1-41.18-.94-16.59-12.51-44.73-33.33-41.27ZM1300.7,908.62c-12.64,3.77-8.56,40.13,11.92,33.86,10.45-3.2,8.59-39.97-11.92-33.86ZM1253.66,1018.41c-46.11,9.34-42.48,140.17,30.33,127.54,54.62-9.47,41.9-142.18-30.33-127.54ZM621.31,1046.62c-18.89,4.32-24.49,50.75-17.11,65.06,8.75,16.97,27.56,12.76,37.08-1.2,11.98-17.54,11.34-71.02-19.97-63.86ZM858.23,1090.53c-21.16,4.88-29.74,64.69,2.81,64.08,33.02-.62,34.15-72.61-2.81-64.08ZM731.3,1101.68c-59.99,5.86-83.71,121.43-29.46,139.8,39.93,13.53,76.53-39.28,79.77-73.86,3.03-32.31-11.81-69.7-50.31-65.94ZM1110.85,1162.67c-23.9,5.45-42.14,90.09,2.46,80.85,32.77-6.79,38.84-90.26-2.46-80.85ZM610.36,1189.3c-16.2,3.53-10.58,45.27,8.98,42.05,14.66-2.42,14.8-47.23-8.98-42.05ZM1292.91,1203.35c-14.94,2.64-11.14,37.87,7.04,35.54,20.19-2.59,8.75-38.33-7.04-35.54ZM1197.13,1280.27c-10.61,3.18-.31,31.67,9.93,28.85,10.41-2.87,8.49-34.38-9.93-28.85ZM863.05,1291.25c-18.68,2.54.71,34.85,10.24,32.41s9.07-35.05-10.24-32.41Z"/>
        <path class="cls-4" d="M1315.28,764.01c6.45-18.41,13.38-37.53,20.35-55.72.7-1.84,2.56-6.68,4.73-7,20.26,46.29,40.82,91.92,54.49,140.79,5.78,20.67,8.82,42.22,15.86,62.56,9.72,28.1,27.98,51.88,40.85,78.36,44.5,91.61,56.93,218.82,16.19,313.69-12.07,28.1-31.64,52.25-44.48,79.43-14.77,31.28-20.28,68.11-36.57,98.32-17.15,31.79-25.03,1.43-44.06-1.49-23.79-3.65-58.63,25.48-73.67,42.22-18.15,20.2-19.39,35.15-49.06,43.48-33.78,9.49-69.91,7.47-104.48,11.62-45.22,5.43-85.13,21.37-131.77,15.27-18.3-2.39-37.35-8.23-55.63-11.83-19.52-3.85-34.84-2.05-53.16-12.74-7.43-4.34-27.04-23.82-35.81-16-2.98,2.66-5.57,15.61-9.64,17.01-5.28,1.82-43.32.36-49.53-1.74-8.84-2.99-14.88-18.63-20.95-26.1-12.38-15.24-53.74-48.26-72.77-51.22-14.43-2.25-15.33,11.52-29.86-3.02-35.04-35.07-31.59-65.86-47.05-106.66-5.54-14.64-16.27-27.41-18.86-43.09,1.46.79,4.17,1.12,6.33,2.24,3.69,1.92,6.63,5.96,10.47,6.84,24.84,5.71,15.41-30.69,31.42-33.91,13.29-2.67,44.5,27.1,57.41,34.49l55.16,23.34c2.07.02,2.7-1.21,3.78-2.62,7.75-10.15,12.66-30.08,21.49-42.8,2.88-4.14,10.31-14.84,15.47-14.34,10.2,1,46.79,55.56,47.96,69.08,1.86,1.35,8.85-6.28,13.06-5.91,4.67.41,16.66,9.94,21.95,12.46,29.58,14.11,65.2,19.14,96.4,29.1,33.4,10.67,68.15,36.02,103.43,17.96,6.42-3.29,36.77-23.87,40.54-28.48,8.17-9.98,22.22-57.05,25.26-57.97,5.44-1.65,40.54,23.9,43.63,29.82,2.31,4.42.8,13.36,7.94,12.54,3.91-.45,4.21-5.15,7.14-7.1,3.5-2.32,11.45-3.53,16.19-5.78,36.4-17.23,114.04-56.96,131.51-92.81,10.04-20.61,12.66-46.06,20.07-67.76,8.4-24.59,24.88-47.66,30.4-73.11,4.54-20.91,3.56-44.77,4.27-66.23-24.88-7.71-38.49-34.18-34.25-59.39,2.59-15.39,14.99-13.29,11.8-32.93-4.55-28.06-25.81-68.95-34.56-98.75-10.08-34.32-14.96-69.87-24.21-104.39-.77-2.89-.78-10.77-5.18-9.72Z"/>
        <path class="cls-2" d="M1131.7,477.03c-4.92,28.16-5.65,57-9.61,85.27-1.23,8.75-3.69,31.15-7.85,37.63-3.65,5.7-23.27,16.35-30.12,20.08-14.67,7.99-46.84,18.33-55.11,31.17-8.4,13.04-7.82,46.15-10.98,62.73-6.92,36.29-32.93,77.06-61.31,100.24-10.4,8.5-22.32,16.4-33.69,23.57-19.77-24.71-28.43-43.17-55.08-63.35-8.22-6.22-30.53-16.89-34-24.05-8.92-18.43,7.71-61.51,5.71-84.13-1.5-16.89-15.46-26.38-22.88-41.41-2.32-4.7-8-14.71-5.96-19.11,82.89-96.84,186.53-175.72,320.89-128.64ZM1024.47,521.19c-7.64,2.68-11.51,36.45,7.73,37.28,23.43,1.02,11.93-44.17-7.73-37.28ZM930.6,563.65c-43.24,1.27-85.45,65.07-44.44,95.29,23.35,17.21,57.87,8.86,75.33-12.52,25.5-31.23,15.67-84.12-30.88-82.76Z"/>
        <path class="cls-4" d="M1098.75,1016.49c-.45-3.42.91-4.87,3.06-7.13,6.17-6.47,21.68-12.41,29.75-18.88,45.54-36.51,15.54-121.61,58.66-149.94,22.97-15.09,56.31-22.48,80.63-36.25,9.5-7,10.16-38.99,13.5-51.58,4.2-15.84,14.82-30.3,13.58-47.4-15.91-43.28-33.55-85.93-49.73-129.1-2.09-5.57-5-11.66-5.1-17.64,28.77,30.71,88.95,93.26,84.71,137.2-2.22,23-14.81,26.7-23.33,42.55-13.75,25.59-9.85,62.15-35.49,82.14-28.23,22.01-72.98,11.25-84.74,51.73-11.5,39.56-7.92,90.24-42.39,119.15-13.17,11.05-30.02,16.02-43.1,25.14Z"/>
        <path class="cls-2" d="M1327.83,1501.07c5.11-.02,10.83,10.87,17.26,10.98-.24,9.46,2.74,19.46,3.21,28.94,1.24,24.67-3.76,48.48-3.21,73.01-27.02.46-55.2-1.61-81.32-8.91-10.88-3.04-22.36-4.85-18.37-19.37,3.62-13.2,42.47-54.87,54.16-65.05,4.24-3.7,24.17-19.56,28.26-19.58Z"/>
        <path class="cls-2" d="M687.67,1512.04c-2.86,12.59-1.36,26.23-1.57,39.21-.13,7.87-1.93,14.72-1.63,22.81.26,6.91,6.87,29.8.58,33.77-9,5.69-66.27-3.48-76.94-9.22s-2.42-15.84,2.7-23.02c10.18-14.27,50.31-58.65,64.74-65.45,12.38-5.84,9.76.46,12.1,1.9Z"/>
        <path class="cls-4" d="M1131.7,477.03c2.47.86,5.16,1.11,7.68,1.73.45,28.06-4.67,55.93-7.67,83.76-1.24,11.53.52,34.14-4.93,43.69-3.18,5.56-24.47,17.47-31.1,20.67-14.69,7.08-50.9,16.27-59.7,28.15-12.27,16.56-9.33,67.75-14.55,90.53-4.63,20.21-25.55,42.46-39.55,57.7-7.26,7.9-41.81,44.02-50.28,43.85-4.78-.1-6.44-6.69-8.58-9.37,11.37-7.17,23.29-15.07,33.69-23.57,28.38-23.18,54.39-63.95,61.31-100.24,3.16-16.58,2.58-49.69,10.98-62.73,8.27-12.84,40.44-23.18,55.11-31.17,6.85-3.73,26.47-14.38,30.12-20.08,4.16-6.49,6.62-28.89,7.85-37.63,3.96-28.27,4.7-57.11,9.61-85.27Z"/>
        <path class="cls-4" d="M687.67,1512.04c.39.24,5.9-.02,8.98,1.22,15.92,6.41,59.05,49.14,65.12,65.08,4.28,11.26-3.6,14.17-12.49,18.01-7.51,3.24-48.77,16.02-53.07,9.88-6.05-8.64,11.17-49.23-10.1-54.99.21-12.98-1.3-26.61,1.57-39.21Z"/>
        <path class="cls-4" d="M1327.83,1501.07c1.33-1.42.84-5.91,2.52-6.38,15.23-4.3,44.04,28.42,53.2,39.29,6.98,8.27,43.26,56.36,39.29,64.31-3.35,6.7-62.34,18.56-65.21,15.7.31-26.4-.37-52.86-.06-79.27.06-4.76,2.27-8.65,1.57-13.91-.68-5.21-6.68-13.51-11.74-15.01-3.67-1.09-2.27,3.95-2.32,6.25-6.43-.11-12.15-11-17.26-10.98Z"/>
        <path class="cls-4" d="M924.59,1273.68c-5.2.69-2.62-1.86-2.37-4.71.66-7.69,1.9-15.23,4.04-22.64,2.95-10.22,13.17-23.25,13.96-31.65,1.08-11.53-8.89-25.91-10.5-37.85-4.15-30.6,18.55-57.96,15.27-90.54-4.26-42.25-46.24-56.97-51.36-94.51-5.64-41.42,11.56-98.89-.41-138.38,29.56,40.67,3.83,93.91,7.87,138.76.31,3.4,1.46,10.02,2.61,13.08,3.15,8.45,28.27,33.86,35.67,44.32,10.23,14.45,23.75,33.49,20.93,52.03-2.52,16.58-19.72,32.61-21.59,48.98-2.42,21.24,3.65,25.4,8.97,42.79,11.86,38.71-20.55,45.89-23.09,80.32Z"/>
        <path class="cls-4" d="M853.78,1573.42l35.7,51.5c1.86,6.87-12.53,10.29-17.62,10.84-17.75,1.9-38.11-4.82-53.88-12.51-1.68-2.41,26.88-46.89,31.3-49.25,1.36-.73,3.05-1.4,4.49-.57Z"/>
        <path class="cls-2" d="M549.6,1554.38c-2.06.1-4.52,1.51-7.03,1.55-18.11.28-36.19-1.15-54.17-3.12-.57-7.82,9.44-9.59,14.87-14.14,8.86-7.42,20.9-19.67,29.07-28.19,11.27,12.55,15.63,27.48,17.26,43.91Z"/>
        <path class="cls-4" d="M532.34,1510.47c3.67-3.83,1.79-9.44,11.38-7.53,8.64,1.72,40.43,30.36,42.9,38.88,4.6,15.83-28.75,12.15-37.02,12.57-1.63-16.43-5.99-31.35-17.26-43.91Z"/>
        <path class="cls-4" d="M1194.47,1135.67l-2.33,6.26c-6.45-5.37-14.87-7.36-19.4-15.11-6.95-11.9.4-28.6-14.42-38.9-8.86-6.17-9.56-2.09-14.81-14.99-6.29-15.47-3.55-30.77-11.8-45.45,1.37-.67,4.54-4.88,7.82-4.71,3.84,13.57,3.63,29.94,12.58,41.55,7.8,10.12,15.74,9.3,20.83,24.66,8.66,26.17,2.01,23.58,21.53,46.7Z"/>
        <path class="cls-4" d="M1029.72,1361.5l-6.27,3.13c-.48-6.73,1.01-13.78-.74-20.43-2.19-8.31-12.53-14.44-14.28-21.79-3.17-13.29.76-33.34-.84-47.77-1.37-12.34-8.29-24.92-10.82-37.02,30.49,35.68,9.86,50.16,21.69,82.6,7.64,20.95,10.8,13.96,11.26,41.28Z"/>
        <path class="cls-4" d="M1031.29,1283.08c4.22-.92,3.16,2.11,3.63,4.91,1.1,6.65,2.97,15.49-3.63,20.18-2.06-11.7-.22-15.02,0-25.09Z"/>
        <path class="cls-4" d="M1530.24,1548.11h-50.99c-.95,0-12.1-4.23-12.92-5.1-10.01-10.63,18.91-38.94,29.94-38.35,10.59.57,35.96,31.1,33.98,43.45Z"/>
        <path class="cls-4" d="M1156.8,1648.46c-1.18,1.76-36.99,7.5-41.6,7.84-10.82.79-20.19-.54-30.57-3.13,1.95-11.52,17.37-24.47,29.08-25.14,10.86-.62,12.33,5.93,19.52,8.73,3.31,1.29,29.47,2.93,23.56,11.71Z"/>
        <path class="cls-4" d="M739.17,839.65c44.58-1.75,52.22,54.24,44.72,87.17-8.57,37.63-51.81,94.34-95.72,72.69-54.65-26.95-6.68-157.6,51-159.87Z"/>
        <path class="cls-4" d="M731.3,1101.68c38.5-3.76,53.34,33.62,50.31,65.94-3.25,34.58-39.84,87.39-79.77,73.86-54.24-18.37-30.52-133.94,29.46-139.8Z"/>
        <path class="cls-4" d="M1253.66,1018.41c72.23-14.64,84.94,118.07,30.33,127.54-72.81,12.63-76.44-118.2-30.33-127.54Z"/>
        <path class="cls-4" d="M1071.69,869.41c20.82-3.46,32.4,24.68,33.33,41.27,1.31,23.15-11.65,47.19-38.1,41.18-23.36-5.3-26.05-77.33,4.77-82.46Z"/>
        <path class="cls-4" d="M1110.85,1162.67c41.3-9.42,35.23,74.06,2.46,80.85-44.6,9.24-26.36-75.4-2.46-80.85Z"/>
        <path class="cls-4" d="M621.31,1046.62c31.3-7.16,31.95,46.32,19.97,63.86-9.53,13.95-28.33,18.17-37.08,1.2-7.38-14.31-1.77-60.74,17.11-65.06Z"/>
        <path class="cls-4" d="M1173.61,692.21c27.96-6.45,40.22,47.09,27.14,64.76-9.69,13.09-26.92,7.49-34.3-4.94-7-11.8-9.1-56.06,7.16-59.81Z"/>
        <path class="cls-4" d="M858.23,1090.53c36.96-8.53,35.83,63.46,2.81,64.08-32.55.61-23.97-59.2-2.81-64.08Z"/>
        <path class="cls-4" d="M610.36,1189.3c23.78-5.18,23.64,39.63,8.98,42.05-19.55,3.23-25.18-38.52-8.98-42.05Z"/>
        <path class="cls-4" d="M1109.29,789.43c21.01-6.22,29.28,32.76,15.02,37.01-17.78,5.29-29.88-32.61-15.02-37.01Z"/>
        <path class="cls-4" d="M1198.7,574.58c22.32-6.66,29.94,29.86,19.31,34.96-18.95,9.09-30.74-31.55-19.31-34.96Z"/>
        <path class="cls-4" d="M1292.91,1203.35c15.79-2.79,27.23,32.95,7.04,35.54-18.19,2.33-21.98-32.9-7.04-35.54Z"/>
        <path class="cls-4" d="M1300.7,908.62c20.51-6.11,22.37,30.66,11.92,33.86-20.47,6.27-24.56-30.1-11.92-33.86Z"/>
        <path class="cls-4" d="M863.05,1291.25c19.32-2.63,19.66,30.01,10.24,32.41s-28.92-29.87-10.24-32.41Z"/>
        <path class="cls-4" d="M748.41,753.32c16.71-4.94,6.11,31.04-5.13,32.69-17.83,2.63-2.92-30.32,5.13-32.69Z"/>
        <path class="cls-4" d="M1197.13,1280.27c18.43-5.52,20.34,25.98,9.93,28.85-10.24,2.82-20.54-25.67-9.93-28.85Z"/>
        <path class="cls-4" d="M1255.21,692.09c12.9-3.5,18.28,23.44,7.18,26.26-8.49,2.16-17-23.6-7.18-26.26Z"/>
        <path class="cls-4" d="M930.6,563.65c46.55-1.36,56.38,51.53,30.88,82.76-17.46,21.39-51.98,29.74-75.33,12.52-41-30.22,1.21-94.02,44.44-95.29Z"/>
        <path class="cls-4" d="M1024.47,521.19c19.66-6.89,31.17,38.3,7.73,37.28-19.25-.83-15.37-34.6-7.73-37.28Z"/>
      </g>
      <rect class="cls-5" width="2048.06" height="2048.2"/>
    </g>
  </g>
</svg>