<?xml version="1.0" encoding="UTF-8"?>
<svg id="Layer_2" data-name="Layer 2" xmlns="http://www.w3.org/2000/svg" viewBox="0 0 2048.06 2048.2">
  <defs>
    <style>
      .cls-1 {
        fill: #e1c90d;
      }

      .cls-2 {
        fill: #13120b;
      }

      .cls-3 {
        fill: #c3a808;
      }

      .cls-4 {
        fill: #606060;
      }

      .cls-5 {
        opacity: 0;
      }
    </style>
  </defs>
  <g id="MangoHatch">
    <g>
      <g id="IqyTzr.tif">
        <g>
          <path class="cls-4" d="M1263.17,1620.21c10.03-1.43,19.88-4.84,29.91-6.19,55.58-7.51,85.99,35.48,147.83,9.79,16.1-6.69,42.71-19.14,39.95-39.59-3.5-25.89-47.46-57.58-59.31-80.99,22.26-16.96,43.47-37.5,51.19-65.32,9.04-32.57.86-66.29,6.06-99.01,5.31-33.43,28.77-62.11,35.78-95.87,19.88-95.63-57.7-159.22-62.71-248.79-1.01-18.06,2.26-34.77-.03-53.14-6.13-49.37-37.01-83.6-59.72-125.11-46.13-84.33-52.59-188.55-132.15-252.71-137.08-110.54-336.24,6.67-447.63,101.84-104.76,89.5-180.18,208-245.04,328.47-30.57,56.78-66.27,130.82-61.37,196.84,1.09,14.65,6.86,28.83,8.69,43.21,8.69,67.99-44.62,127.5,1.66,194.54,16.42,23.78,72.95,61.09,72.95,88.84,0,16.38-19.53,30.92-26.15,45.75-19.6,43.87,20.63,67.46,59.81,64.84,21.44-1.43,40-14.66,60.9-16.34,20.15-1.61,37.1,3.71,56.39,7.65,2.2,2.1-8.66,8.17-10.14,9.47-14.41,12.77-8.73,23.06,6.75,29.99,27.01,12.09,100.36,21.55,127.11,10.15,12.9-5.5,7.01-9.77,9.5-18.35,1.52-5.26,9.82-2.9,14.16-3.57,29.78-4.58,55.1-14.59,86.31-12.56,27.31,1.78,55.27,14.08,82.42,16.34,11.71.98,24.15-.38,35.93.16-1.15,9.8,2.77,15.51,11.39,19.62,32.99,15.73,116.01,2.06,148.18-15.16,16.44-8.8,22.5-17.33,11.38-34.82Z"/>
          <path class="cls-2" d="M1263.17,1620.21c11.12,17.49,5.06,26.02-11.38,34.82-32.16,17.22-115.18,30.89-148.18,15.16-8.62-4.11-12.55-9.82-11.39-19.62-11.79-.53-24.22.82-35.93-.16-27.16-2.27-55.11-14.56-82.42-16.34-31.21-2.04-56.53,7.98-86.31,12.56-4.34.67-12.63-1.69-14.16,3.57-2.49,8.59,3.4,12.86-9.5,18.35-26.75,11.4-100.09,1.94-127.11-10.15-15.48-6.93-21.16-17.21-6.75-29.99,1.47-1.31,12.34-7.38,10.14-9.47-19.29-3.94-36.24-9.26-56.39-7.65-20.9,1.67-39.46,14.9-60.9,16.34-39.18,2.62-79.41-20.97-59.81-64.84,6.63-14.83,26.15-29.36,26.15-45.75,0-27.75-56.53-65.06-72.95-88.84-46.27-67.04,7.03-126.55-1.66-194.54-1.84-14.37-7.61-28.56-8.69-43.21-4.9-66.02,30.8-140.06,61.37-196.84,64.85-120.46,140.28-238.97,245.04-328.47,111.39-95.17,310.55-212.38,447.63-101.84,79.56,64.16,86.02,168.38,132.15,252.71,22.71,41.51,53.59,75.74,59.72,125.11,2.28,18.36-.99,35.07.03,53.14,5.01,89.57,82.59,153.15,62.71,248.79-7.02,33.77-30.47,62.44-35.78,95.87-5.2,32.72,2.98,66.43-6.06,99.01-7.72,27.83-28.93,48.37-51.19,65.32,11.85,23.41,55.81,55.1,59.31,80.99,2.76,20.45-23.85,32.9-39.95,39.59-61.83,25.69-92.25-17.31-147.83-9.79-10.02,1.35-19.88,4.77-29.91,6.19ZM928.86,713.88c-3.51,9.91-10.88,11.44-8.78,24.61,1.18,7.39,12.02,18.21,16.38,24.76,10.04,15.1,8.08,14.13,21.54,27.2,26.86,26.06-3.66,64.39-15.44,89.66-9.56,20.51-10.48,26.98,7.16,42.66,6.83,6.07,15.85,9.94,22.19,15.16,17.82,14.65,28.23,42.4,41.51,61.67,8.37,12.14,18.32,23.05,27.41,34.62,5.55,4.1,12.84-3.33,17.21-7.03,24.89-21.11,63.67-68.18,79.15-96.82,8.14-15.06,13-33.65,21.89-47.74,10.52-16.67,31.31-20.84,45.87-32.63,17.36-14.06,35.57-51.72,45.37-72.36,6.22-13.1,19.62-37.92,17.79-51.61-1.05-7.85-5.39-15.69-4.7-24.15,2.04-12.23.74-25.77,2.27-38,.29-2.32-.41-2.04,2.54-1.87v36.08c0,7.53,7.67,17.69,8.75,25.42.8,5.7-.84,20.14-2.42,25.84-2.58,9.29-10.1,21.53-13.61,31.33-6.02,16.81-11.1,39.53-19.31,54.74-3.8,7.04-13.92,19.34-20.26,24.05-14.69,10.92-37.55,16.21-49.36,31.04-10.22,12.83-13.94,32.04-21.81,46.55-11.5,21.2-35.06,40.18-38.87,64.94-1.78,11.55.18,22.68-.15,34.03-.11,3.9-1.63,19.55-3.14,22.17-.35.61-1.62,1.63-1.9,1.25l-1.26-56.25-3.19-.74c-11.57,12.64-22.64,27.96-35.42,39.3-7.5,6.65-21.48,13.74-25.65,22.46-5.34,11.18-2.08,27.66-2.89,40.15-1.26,19.39-10.43,40.91-1.01,59.26,15.05,29.34,72.03,74.23,75.63,101.61,3.2,24.41-8.34,52.23-1.73,75.15,2.33,8.08,13.24,24.4,13.24,31.07v25.32c0,7.56-3.73,17.66-6.33,24.68-.58-18.65,4.89-38.35-4.39-55.74-3.22-6.03-7.95-10.17-10.52-17.33-9.6-26.75,5.39-72.32-7.89-90.84-6.5-9.07-21-23.5-29.12-32.28-1.37-1.48-1.48-5.83-5.06-5.06-.71,17.78-14.68,31.35-23.02,45.98-6.95,12.19-11.7,25.76-19.43,37.55-3.23.24-1.43-.45-.93-2.2,4.04-14.14,12.1-37.72,18.04-50.96,8.29-18.51,20.48-20.43,12-44.28-6.67-18.78-22.35-30.58-33.53-46.28,4.26-35.67,13.14-75.05,4.48-110.74-2.56-10.54-7.07-13.05-11.83-21.09-14.71-24.84-23.36-46.91-44.56-67.48-1.89-1.83-3.42-5.3-6.32-6.33-.39,12.2-2.47,25.6-8.63,36.32-12.13,21.07-59.05,54.47-80.63,67.51-7.16,4.33-30.43,14.73-34.12,19.05-5.8,6.79-5.39,26.14-7.65,35.39-3.58,14.65-21.32,38.45-32.96,48.06-1.43,1.18-2.05,3.07-4.43,2.52,8.52-19.94,22.04-32.41,27.26-54.38,2-8.39,4.42-36.17,8.13-41.24,3.27-4.46,34.94-19.93,42.51-24.6,19.89-12.28,64.68-43.23,74.74-63.27,16.02-31.93-5.49-40.15-19.43-62.95-6.71-10.96-7.66-14.08-2.59-26.15,11.65-27.75,34.08-46.56,28.86-81.12-2.7-17.87-32.02-40.37-38.26-60.48-7.41-23.87,6.32-25.5,11.42-43.72,4.35-15.54-1.71-33.96.44-50.19.98-7.42,17.35-40.78,15.08-43.78-78.16,42.84-146.24,104.24-201.91,173.47-3.45,10.18,4.51,34.45,7.84,45.21,3.76,12.15,8.79,26.32,14.05,37.86,4,8.77,15.27,24.43,15.45,32.75.36,16.81-19.22,36.52-24.26,52.3-2.21.27-3.92,1.22-3.58-1.65,1.58-13.29,15.52-35.44,13.83-48.07-1.55-11.54-17.72-34.02-22.75-46.31-4.23-10.35-6.82-22.18-10.13-32.91-1.81-5.85-3.31-11.85-5.08-17.72-1.61-1.23-5.18,3.3-6.28,4.46-13.09,13.78-27.32,36.88-38.05,53.1-44.41,67.12-132.14,208.06-137.99,286.11-2.12,28.32,6.97,53.54,8.83,81.01,4.41,65-46.34,121.43-1.75,182.76,14.1,19.39,30.81,29.68,46.08,45.71,5.61,5.89,15.14,18.62,19.21,25.73,13.22,23.08,14.71,57.59,42.49,68.92,3.2,1.3,12.93,2,13.02,5.97.07,3.15-27.85-1.96-31.08-3.11-7.54-2.68-20.64-16.97-25.22-16.56-6.33.56-16.82,23.43-19.69,29.18-1.41,2.82-3.93,3.97-4.76,8.52-2.85,15.53,9.71,21.9,23.15,23.11,33.55,3.02,58.85-25.05,92.26-22.6,24.85,1.83,58.69,27.11,81.62,20.5,5.75-1.66,7.13-5.71,10.35-8.01,2.17-1.54,20.34-10.17,22.76-10.8,10.07-2.61,13.58-.21,19.56,7.11,8.11,9.93,11.88,23.31,22.27,31.54,1.53,1.21,1.52,2.84,4.7,3.53,16.53,3.59,53.49-11.48,72.27-14.57,29.71-4.88,58.17-2.67,87.66,2.18,21.31,7.76,47.45,14.64,70.34,13.97,4.12-.12,17.85-1.58,21.14-2.91,6.92-2.81,32.97-33.97,40.82-41.47,10.01-9.57,34.66-31.01,48.37-31.15,6.14-.06,9.82,2.95,13.73,7.12,5.89,6.29,23.33,36.84,27.23,38.6,5.61,2.54,20.73-1.39,26.57-3.79,1.96-.81,13.13-7.57,13.66-8.48,1.07-1.84-.11-7.49.35-10.43,4.24-27.42,113.24-80.04,137.97-101.31,44.28-38.09,22.68-78.95,29.28-128.96,4.67-35.37,18.5-56.78,30.83-88.17,35.03-89.15-52.77-166.63-57.58-253.78-.87-15.7,1.86-31.19,1.31-46.88-2.16-61.92-44.33-92.31-68.26-145.69-34.99-78.03-38.33-143.31-102.75-208.05-61.52-61.82-145.87-61.16-224.79-34.2-13.06,4.46-66.9,27.46-73.37,36.78-3.86,5.56-12.79,29.87-15.56,37.61-3.25,9.06-7.19,19.12-7.96,28.75-1.19,14.99,2.61,31.83-2.49,46.25ZM1391.07,1525.26c.12-2.21,1.02-4.15,1.26-6.32-19.63,5.12-38.72,16.1-55.6,27.32-7.72,5.13-24.86,16.69-30.51,23.04-6.35,7.12-3.65,7.92,2.53,12.93,14.92,12.09,76.78,32.18,95.59,30.36,8.47-.82,19.41-5.99,25.97-11.37,7.13-2.16,22.36-8.5,21.02-17.76-1.04-7.19-20.46-32.01-26.12-38.53-2.26-2.61-6.07-7.58-8.21-9.52s-8.99-4.83-9.27-5.28c-.29-.48-1.75-14.15-4.38-4.62-1.32,4.76-1.53,9.71-3.08,14.68-1.64,5.29-6.04,12.44-6.37,17.68-.57,8.94,5.74,19.16,6.01,28.17-10.82-8.23-7.83-24.21-24.69-24.16-9.08.03-18.65,1.54-28.49,1.38,8.85-7.06,31.4-3.99,38.67-11.34,4.83-4.88,5.27-19.9,5.65-26.63ZM1112.48,1649.31c-.6.57-6.69,1.05-2.49,4.39,5.3,4.21,41.54,3.69,50.03,3.26,31.26-1.57,61.9-10.42,89.89-24.07l-47.52-58.26c4.61,26.46-.81,50.14-10.15,74.67-5.47-2.56.15-8.59.94-12.36,1.17-5.59,2.49-13.66,2.88-19.28.71-10.4.34-31.16-2.77-40.9-.41-1.29-1.44-2.46-2.91-2.13-19.36,19.92-40.75,37.78-60.84,56.92-5.91,5.64-11.2,12.17-17.06,17.75ZM813.63,1605.01c-18.34,10.83-47.64,20.88-63.75,33.11-1.43,1.09-2.59,1.33-2.1,3.59,27.32,6.2,56.02,13.18,84.36,11.49,2.29-.14,3.83-1.32,4.28-1.36,5.02-.49,10.18-.57,15.2-1.27.27-2.21-.16-3.94-1-5.97-3.75-9.09-17.74-22.83-24.1-31.6-1.59-2.19-5.97-10.86-6.5-11.24-3.74-2.68-5.24,2.56-6.4,3.24Z"/>
          <path class="cls-3" d="M1253.04,598.7c64.42,64.73,67.76,130.02,102.75,208.05,23.93,53.37,66.1,83.77,68.26,145.69.55,15.69-2.18,31.19-1.31,46.88,4.81,87.15,92.61,164.63,57.58,253.78-12.33,31.39-26.17,52.79-30.83,88.17-6.6,50.01,15,90.86-29.28,128.96-24.73,21.27-133.73,73.9-137.97,101.31-.45,2.94.72,8.59-.35,10.43-.53.91-11.7,7.67-13.66,8.48-5.84,2.4-20.96,6.33-26.57,3.79-3.9-1.77-21.34-32.31-27.23-38.6-3.91-4.17-7.58-7.18-13.73-7.12-13.71.14-38.35,21.58-48.37,31.15-7.85,7.5-33.9,38.67-40.82,41.47-3.28,1.33-17.02,2.79-21.14,2.91-22.89.67-49.03-6.22-70.34-13.97-21.35-7.77-44.5-10.03-67.8-8.91l-96.82,17.77c-10.38-8.23-14.16-21.61-22.27-31.54-5.98-7.32-9.49-9.71-19.56-7.11-2.42.63-20.59,9.25-22.76,10.8-5.48-3.54-8.5,4.89-13.56,6.06-16.74,3.86-52.83-19.33-73.2-21.23-28.15-2.61-45.94,9.92-71.52,17.7-1.5-9.56,8.4-4.81,15.21-8.2,15.72-7.8-5.52-21.93-13.46-15.94-2.14,1.62-.35,4.7-4.63,3.69-7-1.65-5.45-10.21-16.7-11.25-13.44-1.24-16.8,1.22-22.88,12.7l-1.88-5.05c2.87-5.75,13.36-28.61,19.69-29.18,4.58-.41,17.67,13.88,25.22,16.56,3.23,1.15,31.15,6.26,31.08,3.11-.09-3.97-9.82-4.66-13.02-5.97-27.78-11.33-29.27-45.84-42.49-68.92-4.07-7.11-13.6-19.85-19.21-25.73,8.89-.85,19.02-9.48,27.37-10.08,13.38-.96,27.45,13.09,42.76,4.86,14.83-7.97,12.44-51,33.4-56.49,34.13-8.93,55.74,34.35,85.75,32.61,41.71-2.41,77.76-76.82,125.4-82.31,44.59-5.14,49.92,35.55,77.29,58.2,37.57,31.08,71.23-4.86,101.79,13.44,7.97,4.78,13.45,13.55,21.63,18.24,2.21-23.01,8.15-47.27-.64-69.6-5.14-13.05-14.92-21.39-16.72-36.45-3.4-28.5,5.53-50.79-9-78.34-3.83-7.26-12.38-17.16-14.84-24.41-.82-2.42-1.76-4.43,1.96-3.85,8.12,8.78,22.62,23.22,29.12,32.28,13.28,18.53-1.71,64.09,7.89,90.84,2.57,7.17,7.3,11.3,10.52,17.33,9.28,17.39,3.81,37.08,4.39,55.74-1.22,3.3-4.06,6.16-1.99,10.21,1.44,2.02,7.49,1.28,9.92.87,11.93-2.01,38.47-24.98,46.48-34.54,20.86-24.91,45.32-84.74,85.41-78.96,14.99,2.16,25.36,30.04,38.17,7.55,13.57-23.83,11.23-62.6,15.86-89.21-16.91-5.81-14.76-32.44-6.96-44.92,3.2-5.12,11.51-8.13,12.63-11.43,1.82-5.36-.04-14.82.57-20.95,2.72-27.72,38.67-49.79,22.53-79.51-13.51-24.88-29.98-32.78-27.59-66.05.48-6.71,7.4-31.81,6.2-35.29-.88-2.55-6.95-2.41-9.92-4.07-17.86-9.96-27.71-53.59-14.04-69.54,2.9-3.38,11.3-5.86,11.39-10.08s-14.04-24.25-16.48-31.63c-2.79-8.44-2.48-16.54-4.32-24.8-2.76-12.44-9.89-24.34-9.56-37.25.23-9.17,4.08-20.15,3.89-29.15-.15-7.09-3.05-16.55-5.15-23.41,1.58-5.7,3.22-20.14,2.42-25.84-1.08-7.74-8.75-17.89-8.75-25.42v-36.08c-2.95-.17-2.25-.44-2.54,1.87-1.54,12.23-.24,25.77-2.27,38-.69,8.47,3.65,16.3,4.7,24.15,1.82,13.69-11.57,38.51-17.79,51.61-9.81,20.65-28.01,58.3-45.37,72.36-14.55,11.79-35.35,15.96-45.87,32.63-8.89,14.09-13.74,32.68-21.89,47.74-15.49,28.64-54.27,75.72-79.15,96.82-4.36,3.7-11.65,11.13-17.21,7.03-9.09-11.57-19.04-22.47-27.41-34.62-13.28-19.27-23.69-47.02-41.51-61.67.84-1.33,1.88-3.79,3.87-3.3,5.73,1.41,14.34,17.79,21.81,15.79,1.41-.38,13.92-15.38,17.36-18.2,38.03-31.08,79.8,5.54,69.67,48.74,3.64,3.52,26.14-19.82,29.09-23.44,24.78-30.42,27.37-85.26,59.13-106.71,8.38-5.66,18.94-9.72,27.4-15.65,30.59-21.42,56.85-77.09,52.65-114.19-.56-4.98-3.14-10.17-3.65-15.33-2.58-25.97,11.1-50.37,8.7-75.78-.96-10.13-5.96-20.68-4.91-31.17Z"/>
          <path class="cls-1" d="M733.85,856.92c5.02,12.29,21.2,34.77,22.75,46.31,1.69,12.63-12.25,34.77-13.83,48.07-.34,2.87,1.37,1.92,3.58,1.65,5.04-15.78,24.62-35.49,24.26-52.3-.18-8.32-11.45-23.97-15.45-32.75-5.26-11.53-10.29-25.71-14.05-37.86-3.33-10.77-11.29-35.04-7.84-45.21,55.67-69.24,123.75-130.63,201.91-173.47,2.28,3-14.1,36.36-15.08,43.78-2.14,16.23,3.91,34.65-.44,50.19-5.1,18.22-18.83,19.85-11.42,43.72,6.25,20.11,35.57,42.62,38.26,60.48,5.21,34.56-17.21,53.36-28.86,81.12-5.07,12.07-4.11,15.19,2.59,26.15,13.95,22.8,35.45,31.02,19.43,62.95-10.05,20.04-54.85,50.99-74.74,63.27-7.56,4.67-39.24,20.14-42.51,24.6-3.71,5.07-6.13,32.85-8.13,41.24-5.22,21.96-18.74,34.44-27.26,54.38,2.38.55,3-1.35,4.43-2.52,11.65-9.61,29.38-33.42,32.96-48.06,2.26-9.25,1.85-28.6,7.65-35.39,3.7-4.33,26.96-14.73,34.12-19.05,21.57-13.04,68.5-46.44,80.63-67.51,6.17-10.71,8.25-24.12,8.63-36.32,2.9,1.03,4.43,4.49,6.32,6.33-.24,7.61,5.13,14.38,7.26,21.23,2.28,7.35,2.94,15.17,5.36,22.49,3.74,11.31,13.99,22.77,15.93,33.44,2.19,12.06-1.69,30.16,6.91,39.93,2.79,3.17,8.03,4.69,8.83,8.9,4.02,21.31-13.77,44.66-10.79,65.22,3.03,20.99,25.46,37.07,34.67,55.22,7.51,14.81,1.62,28.15,5.28,43.45-5.93,13.24-14,36.82-18.04,50.96-.5,1.75-2.3,2.44.93,2.2,7.73-11.79,12.48-25.36,19.43-37.55,8.34-14.63,22.3-28.2,23.02-45.98,3.58-.77,3.69,3.58,5.06,5.06-3.72-.58-2.78,1.43-1.96,3.85,2.46,7.25,11.01,17.15,14.84,24.41,14.53,27.56,5.6,49.84,9,78.34,1.8,15.06,11.58,23.4,16.72,36.45,8.79,22.33,2.85,46.59.64,69.6-8.18-4.69-13.65-13.46-21.63-18.24-30.56-18.3-64.22,17.64-101.79-13.44-27.37-22.65-32.7-63.33-77.29-58.2-47.65,5.49-83.69,79.9-125.4,82.31-30.01,1.74-51.62-41.54-85.75-32.61-20.96,5.48-18.57,48.51-33.4,56.49-15.31,8.23-29.37-5.82-42.76-4.86-8.35.6-18.48,9.22-27.37,10.08-15.28-16.03-31.99-26.32-46.08-45.71-44.59-61.33,6.16-117.76,1.75-182.76-1.86-27.47-10.95-52.68-8.83-81.01,5.84-78.05,93.58-218.99,137.99-286.11,10.73-16.23,24.96-39.32,38.05-53.1,1.1-1.16,4.67-5.7,6.28-4.46,1.77,5.86,3.27,11.87,5.08,17.72-7.96-.1-11.43,18.99-11.39,24.69.08,9.59,9.12,20.14,17.73,12.63,1.74-1.52.12-5.28,3.79-4.4ZM861.41,806.59c-35.16,5.89-80.4,76.39-45.85,104.73,29.75,24.41,75.23-10.69,86.94-39.61,14.04-34.71,3.02-72.5-41.09-65.12ZM871.43,1026.09c9.45-9.01,20.11-38.48,1.76-43.25-19.01-4.94-36.19,19.43-34.26,36.77s22.13,16.38,32.5,6.48ZM690.47,983.8c-33.92,5.35-70.48,74.2-73.1,105.41-2.95,35.15,18.1,61.7,53.06,40.38,32.89-20.06,77.16-93.7,55.23-130.95-7.5-12.73-20.95-17.09-35.19-14.85ZM904.52,1088.91c-38.25,4.56-86.64,74.6-58,107.9,30.11,35.01,87.61-5.01,101.03-38.31,14.09-34.95-.28-74.7-43.03-69.59ZM578.97,1124.37c-18.66.04-24.88,53.33-5.18,54.01,17.63.61,24.81-54.05,5.18-54.01ZM701.86,1177.47c-20.58,3.5-36.55,36.71-36.04,55.67.79,29.44,31.5,37.81,50.26,16.77,17.71-19.86,26.9-79.44-14.22-72.44ZM618.49,1197.53c-7.88-5.37-14.57,15.24-15.72,20.13-5.04,21.32,4.72,43.24,13.95,13.94,1.72-5.46,5.85-31.29,1.77-34.07ZM969.01,1201.48c-10.76,3.15-8.39,31.34,6.01,28.86,9.62-1.66,14-26.22,4.86-28.85-2.35-.68-8.53-.69-10.87,0ZM817,1225.47c-5.76,2.02-8.53,25.22-3.39,28.3,12.29,7.36,20.02-34.13,3.39-28.3ZM888.03,1264.74c-16.07,3.1-32.19,34.45-15.52,45.34,12.64,8.25,28.79-10.86,30.72-22.45,1.66-9.97-2-25.44-15.2-22.89ZM599.27,1286.32c-17.01,3.52-19.63,37.37-18.71,51.03,1.63,24.07,18.76,61.75,48.25,55.71,17.77-3.64,21.06-25.47,20.23-40.63-1.27-23.23-19.8-72.32-49.78-66.11ZM772.76,1286.32c-16.02,3.32-30.19,41.64-13.2,50.59,32.73,17.25,52.34-58.7,13.2-50.59ZM1039.94,1297.6c-4.83.7-10.63,13.5-12.54,17.94-7.67,17.92-23.48,60.3,11.99,52.49,13.1-2.89,1.58-28.1.86-37.02-.3-3.76-.16-8.77.2-12.55.49-5.1,7.5-22.02-.51-20.85ZM545.17,1351.85v31.01c0,.94,5.65,16.07,6.52,17.54,4.32,7.31,20.4,20.62,26.5,9.01l-33.01-57.56Z"/>
          <path class="cls-1" d="M1274.57,749.33c2.1,6.86,5,16.32,5.15,23.41.2,8.99-3.65,19.98-3.89,29.15-.33,12.91,6.8,24.82,9.56,37.25,1.83,8.25,1.53,16.36,4.32,24.8,2.44,7.38,16.57,27.21,16.48,31.63s-8.49,6.69-11.39,10.08c-13.67,15.95-3.82,59.58,14.04,69.54,2.97,1.66,9.04,1.51,9.92,4.07,1.2,3.48-5.72,28.58-6.2,35.29-2.39,33.27,14.08,41.17,27.59,66.05,16.14,29.72-19.81,51.79-22.53,79.51-.6,6.13,1.25,15.59-.57,20.95-1.12,3.29-9.43,6.31-12.63,11.43-7.81,12.48-9.96,39.11,6.96,44.92-4.63,26.61-2.3,65.39-15.86,89.21-12.8,22.49-23.18-5.39-38.17-7.55-40.08-5.78-64.54,54.05-85.41,78.96-8.01,9.56-34.55,32.53-46.48,34.54-2.43.41-8.48,1.15-9.92-.87-2.07-4.05.77-6.92,1.99-10.21,2.6-7.03,6.33-17.12,6.33-24.68v-25.32c0-6.67-10.91-22.99-13.24-31.07-6.6-22.92,4.94-50.74,1.73-75.15-3.6-27.39-60.58-72.27-75.63-101.61-9.42-18.36-.24-39.88,1.01-59.26.81-12.49-2.45-28.97,2.89-40.15,4.17-8.72,18.15-15.81,25.65-22.46,12.79-11.34,23.85-26.66,35.42-39.3l3.19.74,1.26,56.25c.27.38,1.55-.65,1.9-1.25,1.51-2.63,3.02-18.27,3.14-22.17.33-11.35-1.63-22.48.15-34.03,3.81-24.76,27.38-43.74,38.87-64.94,7.87-14.51,11.59-33.72,21.81-46.55,11.81-14.83,34.67-20.13,49.36-31.04,3.99,4.52-1.06,9.48-2.18,13.64-4.13,15.42,4.15,22.16,5.87,35.2,1.26,9.55-4.7,41.05,13.14,35.7,9.62-2.89,12.27-29.95,10.95-38.27-1.25-7.92-16.04-14.74-16.24-21.54-.17-5.95,5.61-22.28,7.07-29.54,1.14-5.67,3.19-13.81,1.64-19.25,8.21-15.21,13.3-37.93,19.31-54.74,3.51-9.8,11.03-22.05,13.61-31.33ZM1219.77,974.93c-20.71,4.29-23.99,47.71,4.48,42.44,20.01-3.71,25.44-48.64-4.48-42.44ZM1280.9,1063.88c.63,5.63,0,13.07,0,18.99,0,6.45,7.3,2.23,9.16-3.51,4.06-12.54-1.4-32.72-9.38-43.11-2.41-3.14-6.69-8.55-11.19-6.54,3.77,10.05,10.22,23.59,11.41,34.16ZM1108.18,1065.86c-1.42.49-1.78,1.8-2.04,3.09-.7,11.86-7.76,23.53-6.22,35.33,2.36,18.07,24.01,19.72,24.04-3.7,0-6.85-4.83-38.47-15.79-34.72ZM1211.03,1080.01c-51.78,1.12-55.51,112.76-12.79,128.52,36.19,13.36,56.08-32.16,57.39-61.06,1.19-26.45-12.39-68.16-44.59-67.47ZM1120.99,1158.41c-11.09,3.22-4.23,38.52,6.74,28.3,7.51-6.99,5.97-32-6.74-28.3ZM1179.22,1281.22c-9.46,2.87-26.53,38.9-2.86,35.11,13.9-2.23,22.98-41.22,2.86-35.11Z"/>
          <path class="cls-1" d="M1253.04,598.7c-1.05,10.49,3.96,21.04,4.91,31.17,2.4,25.41-11.28,49.82-8.7,75.78.51,5.16,3.09,10.36,3.65,15.33,4.19,37.1-22.06,92.76-52.65,114.19-8.46,5.92-19.03,9.99-27.4,15.65-31.77,21.45-34.35,76.29-59.13,106.71-2.95,3.62-25.45,26.95-29.09,23.44,10.13-43.2-31.64-79.82-69.67-48.74-3.44,2.81-15.95,17.82-17.36,18.2-7.47,2-16.08-14.38-21.81-15.79-1.99-.49-3.03,1.97-3.87,3.3-6.34-5.22-15.37-9.09-22.19-15.16-17.64-15.68-16.72-22.16-7.16-42.66,11.78-25.27,42.3-63.6,15.44-89.66-13.46-13.06-11.5-12.1-21.54-27.2,10.51-8.94,32.37-37.25,20.85-50.59-7.73-8.95-19.36,1.14-28.45,1.22,5.1-14.42,1.29-31.26,2.49-46.25.77-9.63,4.71-19.69,7.96-28.75,2.77-7.74,11.71-32.04,15.56-37.61,6.47-9.33,60.31-32.32,73.37-36.78,78.92-26.96,163.27-27.62,224.79,34.2ZM1136.16,582.5c-11.07,3.27,5.09,21.83,13.97,23.49,7.74,1.45,13.25.48,10.89-8.32-2.88-10.7-13.7-18.46-24.85-15.17ZM1214.68,615.42c-12.86,2.94-13.38,25.72-.97,29.54,27.62,8.52,29.62-36.09.97-29.54ZM1093.15,635.71c-17.92,3.06-24.79,30.78-2.83,32.62,27.19,2.27,34.84-38.08,2.83-32.62ZM1129.98,704.1c-54.61,2.45-98.48,85.21-45.26,119.17,37.56,23.97,92.49-.49,102.12-43.29,8.51-37.81-15.69-77.74-56.86-75.89ZM1222.29,741.96c-6.25,1.83-10.72,17.78-2.65,21.04,9.85,1.94,16.58-25.11,2.65-21.04ZM995.72,779.96c-20.57,1.67-16.65,34.12.92,33.97,16.54-.14,18.77-35.57-.92-33.97Z"/>
          <path class="cls-3" d="M1308.76,1582.22c-6.18-5.01-8.88-5.8-2.53-12.93,5.65-6.34,22.78-17.9,30.51-23.04,16.88-11.22,35.97-22.2,55.6-27.32-.24,2.17-1.14,4.11-1.26,6.32-7.97,2.83-4.22,18.1-10.16,23.38-4.39,3.91-20.42,4.61-26.84,6.08-5.01,1.15-14.7,2.19-12.39,8.5,1.68.06,3.38-.02,5.07,0,9.83.17,19.41-1.35,28.49-1.38,16.86-.05,13.87,15.93,24.69,24.16-.26-9.01-6.57-19.23-6.01-28.17.33-5.24,4.73-12.39,6.37-17.68,1.54-4.98,1.76-9.92,3.08-14.68,2.64-9.53,4.09,4.14,4.38,4.62s7.15,3.35,9.27,5.28,5.95,6.91,8.21,9.52c5.65,6.52,25.07,31.34,26.12,38.53,1.35,9.26-13.89,15.6-21.02,17.76-45.49,13.79-74.46-6.33-115.85-19.02-1.67-.51-4.6-2.4-5.72.03Z"/>
          <path class="cls-3" d="M1035.23,1250.58c-3.67-15.3,2.23-28.64-5.28-43.45-9.2-18.15-31.63-34.23-34.67-55.22-2.97-20.56,14.81-43.91,10.79-65.22-.79-4.21-6.04-5.73-8.83-8.9-8.6-9.77-4.72-27.87-6.91-39.93-1.94-10.67-12.19-22.13-15.93-33.44-2.42-7.32-3.08-15.14-5.36-22.49-2.13-6.85-7.5-13.62-7.26-21.23,21.2,20.57,29.85,42.64,44.56,67.48,4.76,8.04,9.27,10.54,11.83,21.09,8.66,35.7-.21,75.07-4.48,110.74,11.18,15.7,26.86,27.5,33.53,46.28,8.47,23.85-3.71,25.77-12,44.28Z"/>
          <path class="cls-3" d="M1196.05,1617.66c-.38,5.62-1.71,13.68-2.88,19.28-.79,3.77-6.41,9.8-.94,12.36,9.34-24.53,14.76-48.21,10.15-74.67l47.52,58.26c-28,13.64-58.63,22.49-89.89,24.07-8.49.43-44.73.95-50.03-3.26-4.2-3.33,1.89-3.82,2.49-4.39,3.08.52,8.67-2.53,10.76-2.53h46.85c1.63,0,10.65-4.01,12.45-5.28,9.99-7.02,8.47-20.74,8.45-31.43,4.56-.97,2.37,5.55,5.06,7.59Z"/>
          <path class="cls-1" d="M1196.05,1617.66c-2.69-2.04-.5-8.56-5.06-7.59.02,10.69,1.54,24.4-8.45,31.43-1.8,1.26-10.82,5.28-12.45,5.28h-46.85c-2.1,0-7.69,3.05-10.76,2.53,5.86-5.58,11.15-12.12,17.06-17.75,20.08-19.15,41.47-37,60.84-56.92,1.46-.32,2.49.84,2.91,2.13,3.11,9.74,3.49,30.5,2.77,40.9Z"/>
          <path class="cls-1" d="M588.22,1569.56l1.88,5.05c6.08-11.48,9.43-13.95,22.88-12.7,11.24,1.04,9.7,9.6,16.7,11.25,4.28,1.01,2.48-2.07,4.63-3.69,7.94-5.99,29.18,8.14,13.46,15.94-6.82,3.38-16.71-1.37-15.21,8.2,25.57-7.78,43.37-20.31,71.52-17.7,20.37,1.89,56.47,25.09,73.2,21.23,5.06-1.17,8.08-9.6,13.56-6.06-3.22,2.3-4.6,6.35-10.35,8.01-22.93,6.61-56.76-18.67-81.62-20.5-33.41-2.46-58.71,25.61-92.26,22.6-13.43-1.21-26-7.58-23.15-23.11.84-4.55,3.36-5.7,4.76-8.52Z"/>
          <path class="cls-1" d="M813.63,1605.01c.56,8.38,6.68,15.59,10.36,23.19,3.88,8,5.17,17.17,12.43,23.65-.45.04-1.99,1.22-4.28,1.36-28.33,1.69-57.03-5.29-84.36-11.49-.5-2.26.66-2.5,2.1-3.59,16.1-12.23,45.4-22.29,63.75-33.11Z"/>
          <path class="cls-3" d="M1221.38,859.45c6.34-4.71,16.46-17.01,20.26-24.05,1.54,5.44-.5,13.58-1.64,19.25-1.46,7.26-7.25,23.58-7.07,29.54.2,6.8,14.99,13.62,16.24,21.54,1.32,8.32-1.33,35.38-10.95,38.27-17.85,5.35-11.88-26.15-13.14-35.7-1.72-13.04-9.99-19.78-5.87-35.2,1.11-4.16,6.17-9.12,2.18-13.64Z"/>
          <path class="cls-3" d="M928.86,713.88c9.08-.08,20.71-10.17,28.45-1.22,11.52,13.34-10.33,41.65-20.85,50.59-4.36-6.55-15.19-17.37-16.38-24.76-2.1-13.17,5.27-14.69,8.78-24.61Z"/>
          <path class="cls-1" d="M1020.04,1610.07c-29.49-4.85-57.95-7.06-87.66-2.18-18.78,3.08-55.74,18.15-72.27,14.57-3.18-.69-3.17-2.31-4.7-3.53l96.82-17.77c23.3-1.12,46.45,1.14,67.8,8.91Z"/>
          <path class="cls-3" d="M813.63,1605.01c1.16-.68,2.66-5.93,6.4-3.24.53.38,4.91,9.04,6.5,11.24,6.36,8.77,20.35,22.51,24.1,31.6.84,2.03,1.27,3.76,1,5.97-5.02.7-10.18.78-15.2,1.27-7.26-6.48-8.56-15.64-12.43-23.65-3.68-7.6-9.8-14.81-10.36-23.19Z"/>
          <path class="cls-1" d="M1430.32,1601.21c-6.56,5.38-17.5,10.56-25.97,11.37-18.82,1.82-80.67-18.28-95.59-30.36,1.12-2.44,4.05-.55,5.72-.03,41.39,12.69,70.35,32.81,115.85,19.02Z"/>
          <path class="cls-3" d="M723.72,824.01c3.31,10.73,5.9,22.56,10.13,32.91-3.67-.88-2.05,2.89-3.79,4.4-8.61,7.51-17.65-3.03-17.73-12.63-.05-5.7,3.42-24.78,11.39-24.69Z"/>
          <path class="cls-1" d="M1391.07,1525.26c-.37,6.73-.81,21.75-5.65,26.63-7.28,7.35-29.83,4.28-38.67,11.34-1.69-.03-3.39.05-5.07,0-2.31-6.31,7.37-7.35,12.39-8.5,6.42-1.47,22.45-2.17,26.84-6.08,5.94-5.29,2.2-20.55,10.16-23.38Z"/>
          <path class="cls-3" d="M690.47,983.8c14.24-2.25,27.7,2.11,35.19,14.85,21.93,37.25-22.34,110.89-55.23,130.95-34.97,21.32-56.01-5.23-53.06-40.38,2.62-31.21,39.18-100.06,73.1-105.41Z"/>
          <path class="cls-3" d="M904.52,1088.91c42.75-5.1,57.12,34.65,43.03,69.59-13.42,33.3-70.92,73.32-101.03,38.31s19.75-103.34,58-107.9Z"/>
          <path class="cls-3" d="M861.41,806.59c44.1-7.38,55.13,30.41,41.09,65.12-11.7,28.92-57.18,64.02-86.94,39.61-34.55-28.34,10.69-98.84,45.85-104.73Z"/>
          <path class="cls-3" d="M599.27,1286.32c29.98-6.21,48.51,42.88,49.78,66.11.83,15.16-2.47,36.99-20.23,40.63-29.49,6.04-46.62-31.65-48.25-55.71-.93-13.66,1.69-47.5,18.71-51.03Z"/>
          <path class="cls-3" d="M701.86,1177.47c41.12-7,31.94,52.58,14.22,72.44-18.76,21.04-49.47,12.67-50.26-16.77-.51-18.96,15.46-52.16,36.04-55.67Z"/>
          <path class="cls-3" d="M772.76,1286.32c39.14-8.11,19.53,67.83-13.2,50.59-16.99-8.95-2.82-47.27,13.2-50.59Z"/>
          <path class="cls-3" d="M871.43,1026.09c-10.37,9.9-30.6,10.63-32.5-6.48s15.25-41.71,34.26-36.77c18.35,4.77,7.69,34.24-1.76,43.25Z"/>
          <path class="cls-3" d="M1039.94,1297.6c8.01-1.16.99,15.75.51,20.85-.36,3.78-.5,8.79-.2,12.55.72,8.92,12.24,34.14-.86,37.02-35.47,7.81-19.65-34.57-11.99-52.49,1.9-4.44,7.7-17.24,12.54-17.94Z"/>
          <path class="cls-3" d="M888.03,1264.74c13.2-2.55,16.87,12.92,15.2,22.89-1.93,11.59-18.08,30.7-30.72,22.45-16.67-10.88-.55-42.24,15.52-45.34Z"/>
          <path class="cls-3" d="M578.97,1124.37c19.63-.05,12.45,54.62-5.18,54.01-19.69-.68-13.48-53.96,5.18-54.01Z"/>
          <path class="cls-3" d="M545.17,1351.85l33.01,57.56c-6.1,11.61-22.17-1.7-26.5-9.01-.87-1.47-6.52-16.6-6.52-17.54v-31.01Z"/>
          <path class="cls-3" d="M618.49,1197.53c4.08,2.78-.05,28.61-1.77,34.07-9.22,29.29-18.99,7.38-13.95-13.94,1.15-4.88,7.84-25.5,15.72-20.13Z"/>
          <path class="cls-3" d="M969.01,1201.48c2.33-.68,8.52-.67,10.87,0,9.14,2.63,4.76,27.2-4.86,28.85-14.4,2.48-16.77-25.71-6.01-28.86Z"/>
          <path class="cls-3" d="M817,1225.47c16.63-5.83,8.9,35.66-3.39,28.3-5.14-3.08-2.37-26.28,3.39-28.3Z"/>
          <path class="cls-3" d="M1211.03,1080.01c32.2-.7,45.79,41.02,44.59,67.47-1.3,28.9-21.19,74.41-57.39,61.06-42.72-15.76-38.98-127.4,12.79-128.52Z"/>
          <path class="cls-3" d="M1219.77,974.93c29.92-6.2,24.49,38.73,4.48,42.44-28.47,5.27-25.19-38.15-4.48-42.44Z"/>
          <path class="cls-3" d="M1108.18,1065.86c10.96-3.75,15.8,27.87,15.79,34.72-.03,23.42-21.68,21.76-24.04,3.7-1.54-11.81,5.51-23.47,6.22-35.33.26-1.29.62-2.6,2.04-3.09Z"/>
          <path class="cls-3" d="M1179.22,1281.22c20.11-6.11,11.03,32.88-2.86,35.11-23.66,3.79-6.6-32.23,2.86-35.11Z"/>
          <path class="cls-3" d="M1280.9,1063.88c-1.19-10.58-7.64-24.11-11.41-34.16,4.5-2.02,8.78,3.4,11.19,6.54,7.98,10.39,13.43,30.57,9.38,43.11-1.85,5.73-9.16,9.95-9.16,3.51,0-5.92.63-13.35,0-18.99Z"/>
          <path class="cls-3" d="M1120.99,1158.41c12.71-3.69,14.25,21.31,6.74,28.3-10.97,10.22-17.83-25.08-6.74-28.3Z"/>
          <path class="cls-3" d="M1129.98,704.1c41.16-1.85,65.37,38.08,56.86,75.89-9.63,42.79-64.56,67.25-102.12,43.29-53.22-33.97-9.35-116.72,45.26-119.17Z"/>
          <path class="cls-3" d="M1093.15,635.71c32.01-5.46,24.36,34.89-2.83,32.62-21.96-1.84-15.09-29.56,2.83-32.62Z"/>
          <path class="cls-3" d="M1214.68,615.42c28.66-6.55,26.65,38.06-.97,29.54-12.42-3.83-11.9-26.61.97-29.54Z"/>
          <path class="cls-3" d="M995.72,779.96c19.69-1.6,17.46,33.83.92,33.97-17.57.15-21.49-32.3-.92-33.97Z"/>
          <path class="cls-3" d="M1136.16,582.5c11.15-3.29,21.98,4.47,24.85,15.17,2.37,8.8-3.14,9.76-10.89,8.32-8.88-1.66-25.04-20.21-13.97-23.49Z"/>
          <path class="cls-3" d="M1222.29,741.96c13.92-4.07,7.2,22.98-2.65,21.04-8.07-3.26-3.6-19.21,2.65-21.04Z"/>
        </g>
      </g>
      <rect class="cls-5" width="2048.06" height="2048.2"/>
    </g>
  </g>
</svg>