<?xml version="1.0" encoding="UTF-8"?>
<svg id="Layer_2" data-name="Layer 2" xmlns="http://www.w3.org/2000/svg" viewBox="0 0 2048.06 2048.2">
  <defs>
    <style>
      .cls-1 {
        fill: #606060;
      }

      .cls-2 {
        fill: #7d9b7a;
      }

      .cls-3 {
        fill: #030404;
      }

      .cls-4 {
        fill: #667d66;
      }

      .cls-5 {
        opacity: 0;
      }
    </style>
  </defs>
  <g id="PukeHatch">
    <g>
      <g>
        <path class="cls-1" d="M1171.24,1614.68c5.6-1.03,11.12-1.52,16.66-3.05,7.63-2.1,21.75-10.49,28.06-10.21s15.89,10.34,22.07,13.85c32.2,18.28,101.28,14.59,136.45,4.99,6.13-1.67,26.15-7.8,28.93-12.87,1.25-2.29,4.29-14.6,4.17-17.15-.55-11.99-28.41-40.53-37.5-49.66-3.59-3.6-16.45-12.22-16.18-17.17.29-5.35,31.8-38.87,37.32-47.59,21.68-34.27,10.34-66.03,12.88-102.93,3.42-49.63,40.21-99.71,59.07-145.11,39.59-95.32,15.35-210.88-27-301.25-12.83-27.37-28.74-53.29-40.65-81.14-23.39-54.69-30.18-112.67-45.27-169.65-45.04-170.14-175.07-341.92-373.15-274.12-182.15,62.34-317.32,313.82-382.46,483.26-41.27,107.34-88.19,243.49-46.9,356.7,19.76,54.16,62.4,110.48,59.79,169.56-1.73,39.07-14.68,75.87,12.1,110.78,2.59,3.38,19.18,17.96,18.9,19.29-.2.97-15.51,4.98-18.71,6.38-12.15,5.33-35.91,24.6-43.39,35.42-8.83,12.78,6.93,27.73,18.85,31.31,20.46,6.13,42.65-1.51,63.36,2.91,3.57,8.94,1.16,17.85,9.83,24.21,17.6,12.9,85.52,18.67,107.99,17.38s76.94-9.46,80.52-36.5c.63-4.74-2.22-14.44.08-16.65,1.66-1.6,17.23-6.71,20.27-7.18,21.56-3.32,31.78,14.01,50.15,20.43l57.4,6.5c-1.46,14.91-13.79,23.86,1.18,36.42,29.38,24.65,148.65,16.23,182-1.95,21.6-11.78,6.57-28.53,3.18-45.17Z"/>
        <path class="cls-3" d="M1171.24,1614.68c3.38,16.64,18.42,33.39-3.18,45.17-33.35,18.18-152.62,26.6-182,1.95-14.97-12.56-2.64-21.51-1.18-36.42l-57.4-6.5c-18.37-6.41-28.59-23.75-50.15-20.43-3.04.47-18.61,5.58-20.27,7.18-2.3,2.22.55,11.91-.08,16.65-3.58,27.04-58.92,35.26-80.52,36.5s-90.39-4.48-107.99-17.38c-8.68-6.36-6.26-15.27-9.83-24.21-20.71-4.42-42.9,3.22-63.36-2.91-11.92-3.57-27.68-18.53-18.85-31.31,7.48-10.82,31.24-30.09,43.39-35.42,3.19-1.4,18.51-5.42,18.71-6.38.28-1.33-16.31-15.91-18.9-19.29-26.77-34.91-13.83-71.71-12.1-110.78,2.62-59.08-40.03-115.4-59.79-169.56-41.29-113.21,5.63-249.36,46.9-356.7,65.14-169.44,200.31-420.91,382.46-483.26,198.08-67.8,328.12,103.98,373.15,274.12,15.08,56.98,21.88,114.96,45.27,169.65,11.91,27.85,27.82,53.77,40.65,81.14,42.35,90.38,66.6,205.93,27,301.25-18.86,45.4-55.65,95.48-59.07,145.11-2.54,36.9,8.8,68.66-12.88,102.93-5.52,8.72-37.03,42.25-37.32,47.59-.27,4.96,12.59,13.57,16.18,17.17,9.09,9.14,36.95,37.68,37.5,49.66.12,2.55-2.92,14.86-4.17,17.15-2.77,5.08-22.79,11.2-28.93,12.87-35.17,9.6-104.25,13.28-136.45-4.99-6.18-3.51-15.46-13.56-22.07-13.85s-20.43,8.11-28.06,10.21c-5.54,1.53-11.05,2.02-16.66,3.05ZM596.72,1285.11c16.35,34.8,50.16,87.52,44.05,125.81-4.4,27.54-19.5,45.62-6.85,75.19,8.8,20.57,43.84,58.54,67.37,59.3,18.54.6,32.23-21.79,49.17-27.22,20.43-6.54,36.59,6.22,49.32,20.59,6.07,6.85,26.53,38.82,32.86,40.02,10.44,1.97,26.36-16.06,39.47-17.8,23.49-3.11,28.98,13.71,46.26,22.8,18.5,9.73,66.65,12.84,87.06,9,38.05-7.16,61.73-74.5,104.82-58.74,19.3,7.06,22.8,25.27,32.06,40.78,8.9,14.9,11.83,14.1,28.88,10.55,17.08-3.56,37.52-14.45,50.71-25.72,17.35-14.82,50.62-66.41,70.6-69.1,16.47-2.21,26.69,15.72,33.98,13.72,8.29-2.28,40.15-45.39,44.35-54.82,10.91-24.47,4.14-50.91,4.69-76.49,1.81-84.06,77.43-148.92,82.28-236.53,6.35-114.73-58.87-186.08-93.19-286.48-23.03-67.37-30.16-139.37-53.68-206.61-25.97-74.26-73.38-148.03-140.95-190.41-65.73-41.22-125.69-45.5-196.68-13.34-190.11,86.13-328.29,362-385.55,552.99-34.31,114.47-43.01,181.87,8.95,292.5ZM1375.42,1588.34c.64-.87-2.29-5.98-3.07-7.07-9.94-14.03-52.2-54.31-66.97-61.99-7.26-3.78-6.65-1.13-6.25,5.05.91,13.96,6.55,28.58,8.19,42.54-9.41-7.69-12.18-25.3-19.77-33.35-5.64-5.98-9.94,3.25-13.44,7.9-6.59,8.76-21.11,31.46-24.37,41.29-.9,2.73-2.36,5.47.54,7.2,4.79,2.87,15.56,6.03,21.21,7.4,35.29,8.53,70.05,2.16,103.91-8.97ZM732.87,1628.95c.83,2.73,3.08,2.33,5.31,2.46,29.74,1.7,59.41-2.63,87.85-10.82-5.51-23.66-22.7-45.64-40.59-61.5-5.08-4.5-11.61-10.3-17.93-12.52-3.07-10.44-4.86-9.92-14.75-5.79-18.45,7.69-51.04,47.58-59.52,65.86-1.89,4.08-6.72,13.25-2.64,16.23,2.6,1.9,28.11,6.99,32.32,7.18,2.8.12,7.21-.49,9.96-1.1ZM1073.25,1613.43c2.28-8.18,6.09-28.38,6-36.44-.17-15.09-17.51,2.4-22.16,6.56-10.02,8.97-45.84,45.84-48.06,57.05-.26,1.29-.77,4.01-.15,4.93,1.01,1.47,30.99,5.83,35.11,6.09,15.22.96,30.94-.15,45.97-1.18,15.23-1.05,29.37-2.06,44.19-6.57,7.5-2.28,14.42-2.29,12.87-11.64-2.59-15.69-29.89-62.08-42.7-71.95-10.21-7.86-8.1,6.66-10.14,13.79-3.98,13.93-10.86,28.94-20.94,39.36ZM606.39,1591.84c1.85,2.2,38.22,2.86,43.53,2.54,5.72-.35,15.36-1.36,20.6-3.28,11.43-4.18,20.42-21.6,6.3-28.48-15.03-7.32-46.42,1.51-59.17,11.45-2.95,2.3-14.65,13.76-11.26,17.78Z"/>
        <path class="cls-2" d="M1169.99,452.96c-.95,5.86,2.05,10.21,4.57,15.13,12.48,24.3,31.22,47.08,44.6,71.22,3.58,6.45,12.9,22.73,13.92,29.17.8,5.05-5.79,33.9-7.33,41.1-9.6,44.97-21.36,76.66-51.57,112.02-13.67,16-37.89,17.02-56.64,29.34-22.4,14.71-18.4,23.59-31.38,42.66-10.65,15.66-30.01,24.15-34.41,43.8-9.87,10.16-18.75,23.52-28.63,34.06-3.77,4.02-24.3,24.49-28.14,24.49l-30.39-34.1c-36.43-34.6-27.29-84.35-44-126.74-10.71-27.15-32.64-53.22-26.35-84.41,2.19-10.86,10.09-21.13,11.49-31.49,4.52-33.39-13.25-68.96-18.45-101.51-.41-2.45-3.05-1.29-5.13-1.46v96.11c0,13.98-22.87,50.7-24.93,71.78-2.32,23.72,25.48,73.01,35.05,97.2,17.13,43.33,27.89,94.3,9.21,139.27-7.71,18.57-24.44,31.12-34.27,48.12-6.04,10.44-7.35,19.63-11.61,30.18-8.82,21.84-31.97,38.17-28.38,65.35,8.18,1.12,5.04-4.44,6.54-9.58,4.96-16.91,23.22-31.34,30.68-46.93,5.2-10.87,5.05-22.25,11.23-32.94,14.56-25.18,36.09-26.62,41.97-61.91,1.15-6.93,3.26-43.91,7.57-46.77,4.23-2.81,7.24,9.1,8.87,11.9,11.34,19.53,27.82,31.33,35.25,53.7-3.39,14.99-2.69,30.55-4.95,45.8-3.16,21.37-18.87,63.46-7.99,82.35,16.73,29.05,51.7,33.5,55.79,75.56,2.63,27.06-17.14,34.08-16.61,54.71.42,16.59,11.78,37.64,13.28,54.87l2.88,1.98c5.67,0,3.78-14.56,6.57-17.98,1.15,7.29,3.08,16.17,3.57,23.3,1.54,22.69-5,46.01-5.94,68.63l15.73-27.84c5.57-18.9,17.6-37.21,16.55-57.57-.59-11.47-6.06-23.48-7.06-34.71-3.27-36.93,33.43-59.64,7.77-99.7-10.88-16.98-36.02-33.09-41.74-52.6-5.74-19.57.35-62.91,6.04-83.07,10.87-38.51,39.47-74.12,69.57-99.38,1.26,12.88-2.83,25.52-3.57,38.2-2.96-.62-2.52,1.39-3.26,3.24-3.83,9.52-7.83,27.06-5.29,36.94,3.08,11.97,19.02,10.68,23.29,22.09,2.67,20.15.69,86.75,18.76,98.24,2.06,1.31,5.95,3.3,7.79.72,1.23-1.73-3.1-21.87-4.26-25.13,3.61.67,2.3-1.83,2.39-4.12.48-13.09-3.24-25.36-2.44-38.3.71-11.37,5.21-21.12,3.53-33.28-1.87-13.53-14.59-19.39-20.45-29.7-7.97-14.03-.99-48.25.24-64.73.68-9.08-1.09-19.18.55-28.1,1.89-10.3,23.66-48.7,31.67-55.5,10.95-9.3,31.37-6.59,44.78-14.93,20.31-12.63,43-64.27,50.8-87.11,2.72.16,3.09-1.79,4.33-3.43,6.6-8.78,12.84-19.27,18.39-28.79,2.88-.68,2.58,1.02,3.19,3.3,4.54,16.85,7.89,56.05,4.12,72.66-3.11,13.72-10.71,26.74-9.57,41.48,2.22,28.57,30.63,48.62,36.52,75.72,6.2,28.5-5.56,61.78-3.21,91.56,3.23,40.82,37.12,71.63,19.31,116.04-6.91,17.21-20.25,33-25.61,50.81-8.46,28.12-.02,82.3-21.75,102.42-13.48,12.49-32.93,9.4-49.66,12.44-75.13,13.63-100.36,123.26-176.11,133.17-35.81,4.69-70.83-7.05-94.97-33.98-14.21-15.85-32.09-53.82-56.73-50.8-18.66,2.29-50.93,49.68-66.82,63.33-25.32,21.75-92.24,47.9-124.51,37.25-30.15-9.95-30.65-68.71-62.15-83.53-8.75-4.11-17.58-6.2-25.36.88-51.96-110.63-43.27-178.04-8.95-292.5,57.25-190.99,195.44-466.86,385.55-552.99,70.98-32.16,130.94-27.88,196.68,13.34ZM1010.83,446.08c-8.01,1.38-33.12,17.3-38.56,23.53-7.18,8.22-3.96,19.3,7.21,20.4,10.2,1,41.27-9.85,48.44-17.3,12.43-12.92.69-29.69-17.09-26.63ZM1075.32,490.26c-15,2.77-12.12,29.8,5.45,25.72,12.8-2.97,13.76-29.26-5.45-25.72ZM1166.13,532.66c4.12-4.15,3.31-17.94-6.86-13.41-8.99,4.01-1.4,21.73,6.86,13.41ZM955.86,546.33c-5.62,1.69-8.35,13.01-2.01,15.85,12.51,5.62,18.52-20.81,2.01-15.85ZM1123.13,557.13c-54.23,7.34-80.27,103.03-30.67,131.52,36.88,21.18,88.51-10.15,91.85-51.26,2.81-34.57-19.97-85.84-61.18-80.26ZM1208.22,584.28c.5-17.9-13.2-17-13.15,0h13.15ZM1002.51,602.41c-14.56,1.7-26.89,26.73-13.46,35.61,15.46,10.21,34.72-14.98,26.23-28.61-2.52-4.05-7.76-7.59-12.77-7ZM819.73,603.67c-19.87,3.66-39.44,52.08-5.15,47.37,25.35-3.49,34.93-52.85,5.15-47.37ZM775.56,707.55c-11.06,2.85-20.01,30.09-7.18,32.9,19.26,4.22,34.6-39.96,7.18-32.9ZM992.91,726.64c-19.23,3.5-24.9,43.63-6.15,46.23,22.11,3.06,36.15-51.68,6.15-46.23ZM793.5,791.14c-24.55,3.55-52.32,40.64-62.47,61.72-13.12,27.24-28.84,100.99,16.78,105.1,35.08,3.16,76.26-40.8,87.8-70.99,13.69-35.79,12.17-103.68-42.11-95.83ZM1193.6,822.08c-13.72,1.81-16.29,27.18-3.98,32.1,19.89,7.95,22.11-34.5,3.98-32.1ZM677.63,851.93c-12.61,1.86-24.68,37.97-11.96,41.41,14.73,3.98,30.19-44.09,11.96-41.41ZM1204.37,914.08c-46.4,4.89-56.57,108.81-9.62,126.01,47.06,17.24,60.96-51.7,53.52-84.54-4.13-18.21-23.15-43.65-43.9-41.47ZM656.05,952.31c-10.23.31-14.37,24.12-4.95,25.95,15.51,3,16.2-26.28,4.95-25.95ZM658.51,1015.57c-27.46,4.51-40.37,68.04-36.16,90.5,1.9,10.13,11.95,18.54,22.47,16.38,16.5-3.38,29.28-45.65,31.57-60.36,2.37-15.22,7.17-50.63-17.88-46.52ZM771.97,1023.91c-15.84,3.26-29.14,44.43-.33,39.07,14.45-2.69,22.5-43.62.33-39.07ZM915.3,1089.56c-11.74,2.29-21.74,25.31-10.86,32.99,19.18,13.52,34.69-37.65,10.86-32.99ZM1174.44,1108.69c-18.19,3.74-32.15,56.15-4.39,50.54,23.02-4.65,31.33-56.08,4.39-50.54ZM817.38,1114.69c-15.7,2.28-38.62,24-46.06,37.52-10.98,19.94-20.3,68.11,8.14,77.37,35.32,11.49,71.85-33.83,75.09-65.8,2.5-24.76-7.25-53.44-37.17-49.09ZM709.85,1137.31c-8.59,1.91-18.67,30.21-4.93,31.96,17.41,2.21,22.34-35.83,4.93-31.96ZM955.88,1177.93c-17.94,3.69-28.51,55.06.12,46.67,18.21-5.34,25.27-51.89-.12-46.67ZM629.82,1183.87c-19.34,4.37-14.07,69.2,11.69,51.09,13.87-9.75,9.16-55.79-11.69-51.09ZM1114.78,1186.23c-14.66,1.94-17.65,38.38.97,30.91,12.06-4.84,12.47-32.69-.97-30.91ZM715.84,1260.22c-9.31,1.71-21.15,30.91-4.74,31.76s20.72-34.7,4.74-31.76Z"/>
        <path class="cls-4" d="M596.72,1285.11c7.79-7.08,16.62-4.99,25.36-.88,31.5,14.81,32,73.58,62.15,83.53,32.27,10.65,99.19-15.5,124.51-37.25,15.89-13.65,48.15-61.04,66.82-63.33,24.65-3.02,42.52,34.94,56.73,50.8,24.14,26.93,59.15,38.67,94.97,33.98,75.75-9.92,100.98-119.54,176.11-133.17,16.74-3.04,36.18.05,49.66-12.44,21.73-20.12,13.29-74.3,21.75-102.42,5.36-17.81,18.7-33.6,25.61-50.81,17.82-44.41-16.08-75.22-19.31-116.04-2.36-29.78,9.4-63.06,3.21-91.56-5.89-27.1-34.31-47.15-36.52-75.72-1.14-14.74,6.45-27.76,9.57-41.48,3.77-16.61.42-55.82-4.12-72.66-.61-2.28-.31-3.98-3.19-3.3-5.55,9.52-11.79,20.01-18.39,28.79-1.23,1.64-1.61,3.59-4.33,3.43,2.66-7.79,6.99-20.53,8.05-28.37.17-1.28,1.44-6.24-1.46-5.05-2.75,1.12-10.95,13.55-13.05,16.8-16.12,24.98-29.36,68.06-58.78,79.73-10.4,4.13-22.47,3.84-32.67,7.94-23.3,9.37-33.08,37.79-48.38,55.51-8.58,9.94-20.2,16.92-29.27,26.25,4.41-19.65,23.76-28.14,34.41-43.8,12.97-19.06,8.97-27.95,31.38-42.66,18.76-12.32,42.97-13.34,56.64-29.34,30.21-35.35,41.97-67.05,51.57-112.02,1.54-7.2,8.13-36.05,7.33-41.1-1.02-6.44-10.34-22.72-13.92-29.17-13.38-24.14-32.12-46.92-44.6-71.22-2.53-4.92-5.52-9.27-4.57-15.13,67.57,42.38,114.98,116.14,140.95,190.41,23.52,67.24,30.65,139.24,53.68,206.61,34.31,100.4,99.54,171.75,93.19,286.48-4.85,87.61-80.47,152.47-82.28,236.53-.55,25.57,6.22,52.01-4.69,76.49-4.2,9.43-36.06,52.54-44.35,54.82-7.29,2-17.51-15.93-33.98-13.72-19.98,2.69-53.25,54.28-70.6,69.1-13.19,11.27-33.63,22.16-50.71,25.72-17.05,3.55-19.98,4.35-28.88-10.55-9.26-15.5-12.76-33.71-32.06-40.78-43.09-15.76-66.77,51.57-104.82,58.74-20.41,3.84-68.57.73-87.06-9-17.28-9.09-22.77-25.91-46.26-22.8-13.11,1.74-29.03,19.77-39.47,17.8-6.33-1.19-26.79-33.17-32.86-40.02-12.73-14.37-28.89-27.13-49.32-20.59-16.94,5.42-30.63,27.82-49.17,27.22-23.53-.76-58.58-38.73-67.37-59.3-12.65-29.57,2.46-47.65,6.85-75.19,6.11-38.3-27.7-91.01-44.05-125.81Z"/>
        <path class="cls-4" d="M1375.42,1588.34c-33.86,11.13-68.62,17.51-103.91,8.97-5.65-1.37-16.42-4.53-21.21-7.4-2.9-1.74-1.45-4.47-.54-7.2,3.26-9.83,17.77-32.54,24.37-41.29,3.5-4.65,7.8-13.88,13.44-7.9,7.59,8.05,10.36,25.65,19.77,33.35-1.64-13.96-7.29-28.58-8.19-42.54-.4-6.18-1.02-8.83,6.25-5.05,14.77,7.68,57.03,47.96,66.97,61.99.77,1.09,3.71,6.2,3.07,7.07Z"/>
        <path class="cls-2" d="M767.51,1546.57c11.32,38.49,10.6,72.38-34.64,82.38-2.75.61-7.16,1.22-9.96,1.1-4.22-.19-29.73-5.28-32.32-7.18-4.07-2.97.75-12.15,2.64-16.23,8.48-18.28,41.07-58.17,59.52-65.86,9.89-4.13,11.68-4.65,14.75,5.79Z"/>
        <path class="cls-4" d="M1089.97,1650.44c-4.92-7.52-32.56-1.21-35.83-3.59,7.36-10.82,15.51-20.5,19.11-33.42,10.08-10.42,16.96-25.43,20.94-39.36,2.04-7.13-.08-21.65,10.14-13.79,12.82,9.86,40.11,56.26,42.7,71.95,1.55,9.35-5.38,9.36-12.87,11.64-14.81,4.5-28.95,5.52-44.19,6.57Z"/>
        <path class="cls-4" d="M767.51,1546.57c6.32,2.22,12.86,8.02,17.93,12.52,17.9,15.86,35.09,37.83,40.59,61.5-28.44,8.19-58.11,12.53-87.85,10.82-2.23-.13-4.47.27-5.31-2.46,45.24-10,45.96-43.89,34.64-82.38Z"/>
        <path class="cls-2" d="M1073.25,1613.43c-3.6,12.92-11.75,22.59-19.11,33.42,3.27,2.38,30.91-3.92,35.83,3.59-15.03,1.03-30.75,2.14-45.97,1.18-4.12-.26-34.1-4.63-35.11-6.09-.63-.92-.11-3.64.15-4.93,2.22-11.21,38.04-48.07,48.06-57.05,4.64-4.16,21.99-21.66,22.16-6.56.09,8.06-3.72,28.26-6,36.44Z"/>
        <path class="cls-4" d="M606.39,1591.84c-3.39-4.02,8.31-15.48,11.26-17.78,12.75-9.94,44.14-18.77,59.17-11.45,14.12,6.88,5.13,24.3-6.3,28.48-5.25,1.92-14.88,2.93-20.6,3.28-5.31.32-41.68-.34-43.53-2.54Z"/>
        <path class="cls-3" d="M969.35,931.71c-7.44-22.38-23.91-34.17-35.25-53.7-1.63-2.8-4.64-14.71-8.87-11.9-4.3,2.86-6.41,39.84-7.57,46.77-5.88,35.29-27.41,36.73-41.97,61.91-6.18,10.69-6.03,22.08-11.23,32.94-7.46,15.6-25.73,30.02-30.68,46.93-1.51,5.14,1.64,10.69-6.54,9.58-3.6-27.18,19.56-43.51,28.38-65.35,4.26-10.56,5.56-19.74,11.61-30.18,9.84-16.99,26.56-29.55,34.27-48.12,18.68-44.97,7.92-95.94-9.21-139.27-9.56-24.19-37.37-73.48-35.05-97.2,2.06-21.08,24.93-57.8,24.93-71.78v-96.11c2.08.16,4.72-.99,5.13,1.46,5.2,32.55,22.97,68.12,18.45,101.51-1.4,10.36-9.3,20.63-11.49,31.49-6.29,31.19,15.64,57.26,26.35,84.41,16.71,42.38,7.57,92.14,44,126.74l30.39,34.1c3.83,0,24.36-20.47,28.14-24.49,9.88-10.54,18.76-23.9,28.63-34.06,9.07-9.33,20.69-16.31,29.27-26.25,15.3-17.72,25.08-46.14,48.38-55.51,10.19-4.1,22.26-3.81,32.67-7.94,29.42-11.67,42.66-54.75,58.78-79.73,2.1-3.25,10.3-15.68,13.05-16.8,2.91-1.18,1.64,3.77,1.46,5.05-1.06,7.84-5.39,20.58-8.05,28.37-7.81,22.84-30.49,74.48-50.8,87.11-13.41,8.34-33.83,5.63-44.78,14.93-8,6.8-29.77,45.2-31.67,55.5-1.64,8.92.13,19.02-.55,28.1-1.23,16.48-8.22,50.71-.24,64.73,5.86,10.31,18.58,16.17,20.45,29.7,1.68,12.15-2.82,21.91-3.53,33.28-.81,12.94,2.92,25.21,2.44,38.3-.09,2.3,1.23,4.79-2.39,4.12-.8-2.24-3.32-4.91-4.49-8.05-8.18-21.99.74-41.91-5.14-62.91-3.68-13.16-20.28-21.83-25.25-34.46-3.1-7.89-2.66-22.01-2.15-30.68.75-12.68,4.83-25.32,3.57-38.2-30.1,25.26-58.7,60.87-69.57,99.38-5.69,20.16-11.77,63.5-6.04,83.07,5.72,19.51,30.86,35.62,41.74,52.6,25.66,40.06-11.04,62.78-7.77,99.7,1,11.23,6.47,23.25,7.06,34.71,1.05,20.37-10.97,38.68-16.55,57.57l-15.73,27.84c.95-22.62,7.48-45.93,5.94-68.63-.48-7.12-2.42-16.01-3.57-23.3-3.43-21.79-10.47-36.15-2.1-58.81,2.91-7.87,8.29-14.67,10.16-23.27,4.06-18.71-3.98-35.27-15.81-49.26-7.97-9.43-48.07-44.41-49.55-51.94-.98-5,1.76-16.68,2.74-22.28,5.67-32.54,16.74-58.19,5.59-91.71Z"/>
        <path class="cls-4" d="M793.5,791.14c54.28-7.86,55.8,60.03,42.11,95.83-11.55,30.19-52.72,74.15-87.8,70.99-45.62-4.11-29.91-77.86-16.78-105.1,10.15-21.08,37.92-58.16,62.47-61.72Z"/>
        <path class="cls-4" d="M1123.13,557.13c41.21-5.58,63.99,45.69,61.18,80.26-3.34,41.11-54.97,72.44-91.85,51.26-49.6-28.49-23.56-124.18,30.67-131.52Z"/>
        <path class="cls-4" d="M1204.37,914.08c20.75-2.19,39.77,23.26,43.9,41.47,7.44,32.84-6.46,101.77-53.52,84.54-46.95-17.2-36.78-121.12,9.62-126.01Z"/>
        <path class="cls-4" d="M817.38,1114.69c29.91-4.35,39.67,24.33,37.17,49.09-3.23,31.97-39.77,77.29-75.09,65.8-28.45-9.26-19.12-57.42-8.14-77.37,7.44-13.52,30.37-35.24,46.06-37.52Z"/>
        <path class="cls-4" d="M658.51,1015.57c25.05-4.11,20.25,31.3,17.88,46.52-2.29,14.71-15.08,56.98-31.57,60.36-10.53,2.16-20.58-6.26-22.47-16.38-4.21-22.46,8.7-85.99,36.16-90.5Z"/>
        <path class="cls-4" d="M1018.32,1228.99c-2.79,3.42-.9,17.98-6.57,17.98l-2.88-1.98c-1.5-17.24-12.86-38.28-13.28-54.87-.52-20.63,19.24-27.64,16.61-54.71-4.09-42.06-39.06-46.51-55.79-75.56-10.88-18.89,4.83-60.98,7.99-82.35,2.26-15.25,1.55-30.81,4.95-45.8,11.14,33.53.08,59.17-5.59,91.71-.98,5.61-3.72,17.28-2.74,22.28,1.48,7.54,41.58,42.52,49.55,51.94,11.83,13.98,19.87,30.55,15.81,49.26-1.87,8.6-7.25,15.4-10.16,23.27-8.37,22.67-1.33,37.02,2.1,58.81Z"/>
        <path class="cls-4" d="M1079.23,904.25c-.51,8.67-.95,22.8,2.15,30.68,4.97,12.63,21.56,21.3,25.25,34.46,5.88,21-3.05,40.92,5.14,62.91,1.17,3.14,3.69,5.81,4.49,8.05,1.17,3.26,5.5,23.4,4.26,25.13-1.84,2.58-5.72.59-7.79-.72-18.08-11.49-16.1-78.09-18.76-98.24-4.27-11.41-20.2-10.12-23.29-22.09-2.55-9.88,1.45-27.43,5.29-36.94.75-1.85.3-3.86,3.26-3.24Z"/>
        <path class="cls-4" d="M1010.83,446.08c17.77-3.06,29.51,13.71,17.09,26.63-7.17,7.45-38.24,18.31-48.44,17.3-11.18-1.1-14.4-12.18-7.21-20.4,5.44-6.23,30.55-22.15,38.56-23.53Z"/>
        <path class="cls-4" d="M819.73,603.67c29.78-5.48,20.2,43.88-5.15,47.37-34.29,4.72-14.72-43.71,5.15-47.37Z"/>
        <path class="cls-4" d="M1174.44,1108.69c26.94-5.54,18.63,45.89-4.39,50.54-27.76,5.61-13.8-46.8,4.39-50.54Z"/>
        <path class="cls-4" d="M629.82,1183.87c20.85-4.7,25.56,41.34,11.69,51.09-25.76,18.11-31.03-46.72-11.69-51.09Z"/>
        <path class="cls-4" d="M955.88,1177.93c25.39-5.22,18.33,41.33.12,46.67-28.64,8.4-18.07-42.98-.12-46.67Z"/>
        <path class="cls-4" d="M992.91,726.64c30-5.45,15.96,49.29-6.15,46.23-18.75-2.6-13.08-42.73,6.15-46.23Z"/>
        <path class="cls-4" d="M1002.51,602.41c5.01-.59,10.25,2.95,12.77,7,8.49,13.63-10.77,38.82-26.23,28.61-13.43-8.87-1.1-33.9,13.46-35.61Z"/>
        <path class="cls-4" d="M771.97,1023.91c22.16-4.56,14.12,36.38-.33,39.07-28.81,5.37-15.51-35.81.33-39.07Z"/>
        <path class="cls-4" d="M915.3,1089.56c23.83-4.66,8.32,46.51-10.86,32.99-10.89-7.68-.88-30.7,10.86-32.99Z"/>
        <path class="cls-4" d="M677.63,851.93c18.23-2.69,2.77,45.39-11.96,41.41-12.72-3.44-.65-39.55,11.96-41.41Z"/>
        <path class="cls-4" d="M775.56,707.55c27.42-7.06,12.07,37.12-7.18,32.9-12.83-2.81-3.88-30.05,7.18-32.9Z"/>
        <path class="cls-4" d="M1193.6,822.08c18.12-2.4,15.91,40.06-3.98,32.1-12.31-4.92-9.74-30.29,3.98-32.1Z"/>
        <path class="cls-4" d="M709.85,1137.31c17.4-3.86,12.47,34.18-4.93,31.96-13.74-1.75-3.66-30.06,4.93-31.96Z"/>
        <path class="cls-4" d="M1114.78,1186.23c13.44-1.78,13.02,26.07.97,30.91-18.62,7.47-15.63-28.97-.97-30.91Z"/>
        <path class="cls-4" d="M715.84,1260.22c15.98-2.93,11.53,32.61-4.74,31.76s-4.56-30.05,4.74-31.76Z"/>
        <path class="cls-4" d="M1075.32,490.26c19.21-3.54,18.24,22.75,5.45,25.72-17.56,4.08-20.44-22.95-5.45-25.72Z"/>
        <path class="cls-4" d="M656.05,952.31c11.25-.34,10.56,28.95-4.95,25.95-9.42-1.82-5.28-25.64,4.95-25.95Z"/>
        <path class="cls-4" d="M955.86,546.33c16.51-4.96,10.51,21.47-2.01,15.85-6.34-2.85-3.61-14.17,2.01-15.85Z"/>
        <path class="cls-4" d="M1166.13,532.66c-8.26,8.32-15.85-9.41-6.86-13.41,10.17-4.53,10.98,9.27,6.86,13.41Z"/>
        <path class="cls-4" d="M1208.22,584.28h-13.15c-.06-17,13.64-17.9,13.15,0Z"/>
      </g>
      <rect class="cls-5" width="2048.06" height="2048.2"/>
    </g>
  </g>
</svg>