<?xml version="1.0" encoding="UTF-8"?>
<svg id="Layer_2" data-name="Layer 2" xmlns="http://www.w3.org/2000/svg" viewBox="0 0 2048.06 2048.2">
  <defs>
    <style>
      .cls-1 {
        fill: #606060;
      }

      .cls-2 {
        fill: #e6556b;
      }

      .cls-3 {
        fill: #0b0507;
      }

      .cls-4 {
        fill: #e6566b;
      }

      .cls-5 {
        fill: #c74058;
      }

      .cls-6 {
        opacity: 0;
      }
    </style>
  </defs>
  <g id="BubblegumEgg">
    <g>
      <g>
        <path class="cls-1" d="M899.55,1601.26c38.61,1.86,78.2,20,116.96,18.87,21.89-.64,42.28-9.94,63.36-13.2s43.31-.96,63.63-2.56c23.11-1.82,47.03-12.25,70.51-13.9,4.07.96,2,10.82,2.57,14.62,1.03,6.81,7.95,12.72,13.5,16.31,36.73,23.75,132.65,20.65,175.01,12.34,15.5-3.04,43.16-9.63,44.84-28.91,1.09-12.56-22.88-60.57-31.81-71.01-3.52-4.11-12.17-9.33-13.74-12.92-6.18-14.16,15.3-37.09,22.05-49.32,13.21-23.91,15.91-52.66,27.2-77.88,11.51-25.71,30.31-49.49,42.42-75.22,48.55-103.15,36.78-247.14-10.98-348.7-12.55-26.68-30.72-49.11-40.67-76.97-8.73-24.44-12.66-50.98-19.67-76-38.98-139.08-143.55-325.86-287.44-376.06-233.91-81.61-428.93,213.5-513.66,389.95-59.35,123.6-140.01,345.89-83.16,477.86,7.09,16.47,17.53,30.87,25.7,46.45,22.3,42.51,19.26,78.19,48.11,119.71,3.51,5.05,26.56,32.43,26.14,34.57-.37,1.91-25.45,26.83-27.57,27.43-1.44.41-2.59.48-4.04.05-2.12-.63-16.65-21.72-19.97-25.64-10.47-12.35-31.53-38.6-49.03-34.96-13.77,2.86-54.79,43.82-64.7,56.07-16.74,20.69-25.28,32.12,6.41,40.68,33.75,9.11,70.12,7.54,104.22,1.69-8.14,18.72-17.41,35.08,6.29,46.25,38.14,17.96,151.46,20.53,185.18-6.23,9.95-7.9,10.13-20.28,11.01-21.14s15.68.47,18.76-.06c-1.39,17.18-25.13,35.28-4.52,49.21,18.44,12.46,79.65,18.21,98.52,6.3,17.88-11.29,1.49-32.88-1.41-47.67Z"/>
        <path class="cls-1" d="M1489.06,1485.57c-12.22,2.57-46.87,37.14-49.42,49.4-5.11,24.54,41.14,33.62,58.51,34.9,12.6.93,50.49-.85,56.5-14.15.65-1.44-.59-18.25-1.14-20.79-2.04-9.34-42.86-47.31-52.59-49.36-3.64-.76-8.21-.76-11.85,0Z"/>
        <path class="cls-1" d="M1066.39,1668.15c19.14,19.52,179.09,7.89,91.52-42.08-10.66-6.08-40.34-19.28-51.86-18.49-14.13.97-44.69,35.13-44.41,49.06.06,3.15,2.5,9.21,4.75,11.5Z"/>
        <path class="cls-3" d="M899.55,1601.26c2.9,14.8,19.29,36.39,1.41,47.67-18.87,11.91-80.08,6.16-98.52-6.3-20.61-13.93,3.14-32.03,4.52-49.21-3.08.53-17.88-.8-18.76.06s-1.06,13.24-11.01,21.14c-33.72,26.76-147.04,24.2-185.18,6.23-23.7-11.16-14.43-27.53-6.29-46.25-34.1,5.85-70.46,7.42-104.22-1.69-31.69-8.55-23.15-19.99-6.41-40.68,9.91-12.25,50.93-53.21,64.7-56.07,17.5-3.64,38.56,22.62,49.03,34.96,3.32,3.92,17.85,25.01,19.97,25.64,1.45.43,2.6.36,4.04-.05,2.12-.6,27.2-25.51,27.57-27.43.42-2.14-22.63-29.51-26.14-34.57-28.85-41.52-25.81-77.2-48.11-119.71-8.17-15.58-18.61-29.99-25.7-46.45-56.86-131.97,23.8-354.25,83.16-477.86,84.73-176.45,279.75-471.56,513.66-389.95,143.89,50.2,248.46,236.98,287.44,376.06,7.01,25.02,10.94,51.56,19.67,76,9.95,27.86,28.13,50.29,40.67,76.97,47.76,101.56,59.54,245.55,10.98,348.7-12.11,25.73-30.91,49.51-42.42,75.22-11.29,25.22-14,53.97-27.2,77.88-6.75,12.22-28.23,35.15-22.05,49.32,1.57,3.59,10.22,8.81,13.74,12.92,8.93,10.43,32.91,58.45,31.81,71.01-1.68,19.28-29.34,25.87-44.84,28.91-42.37,8.31-138.28,11.42-175.01-12.34-5.55-3.59-12.47-9.5-13.5-16.31-.57-3.79,1.49-13.66-2.57-14.62-23.48,1.65-47.4,12.08-70.51,13.9-20.32,1.6-43.27-.59-63.63,2.56s-41.47,12.56-63.36,13.2c-38.76,1.13-78.35-17.01-116.96-18.87ZM590.44,1329.95c1.53,16.39,13.99,30.47,19.58,45.51,6.56,17.67,7.2,37.17,14.18,54.82,4.58,11.58,30.54,54.04,41.52,57.43,5.33,1.65,8.38-3.24,13.48-4,21.96-3.3,68.86,37.14,82.26,54.02,6.34,7.98,9.77,21.81,21.55,23.94,7.38,1.33,16.92.15,24.72.39,6.84.2,13.55,3.39,21.29.86,8.31-2.71,7.53-20.01,16.38-19.53,7.73.42,23.48,14.63,31.12,18.92,16.94,9.5,29.14,7.68,46.88,11.17,21.12,4.16,45.6,11.76,66.56,13.46,45.86,3.72,87.19-11.89,131.8-16.85,31.84-3.54,95.63-1.12,120.58-20.63,10.98-8.59,17.6-22.55,26.69-32.91,16.21-18.47,49.17-46.36,75.23-42.22,10.3,1.64,22.2,18.34,32.33,14.95,6.89-2.3,18.46-30.45,21.5-38.19,8.86-22.53,13.91-46.68,23.66-68.88,12.41-28.25,32.87-53.11,45.55-81.5,41.42-92.69,31.44-215.68-9.41-306.92-8.84-19.74-20.6-37.03-30.41-55.86-24.88-47.78-30.7-101.57-49.79-152.54-32.11-85.75-70.89-162.32-134.54-228.57-11.95-12.44-23.39-25.2-36.91-36.03-261.61-209.34-498.51,194.25-580.45,396.76-42.05,103.94-96.98,270.02-55.79,378.71,3.75,9.89,11.33,28.28,20.44,33.68ZM1327.89,1499.32c-8.25,7.68-22.27,14.65-31.4,22.72-9.75,8.62-47.89,51.51-51.04,61.89-4.52,14.9,4.79,17.74,16.52,21.26,26.35,7.91,57.38,9.55,84.75,10.18-1.61-24.4,4.56-48.64,3.21-73.01-.57-10.24-3.85-20.11-3.21-30.5.1-1.68-1.02-6.11,2.33-4.69.87.37,7.03,6.68,7.79,7.9,4.84,7.65.92,10.68.79,17.9-.48,27.44.49,54.97.07,82.4,2.07,2.03,50.38-8.83,56.91-11.34,7.32-2.81,10.46-3.75,8.65-12.61-2.26-11.04-31.07-49.04-39.64-59.2-9.82-11.64-36.53-42.79-53.2-37.38-2.8.91-2.14,4.12-2.53,4.48ZM532.39,1510.29c-5.82,6.72-18.15,18.27-25.08,24.33-3.04,2.66-24.91,15.2-20.41,19.58,5.44.27,11-.38,16.45.02,17.58,1.31,28.55,2.24,46.3,1.55,11.7-.45,42.5,3.36,37.27-16.09-2.26-8.4-38.05-39.89-47.11-38.55-6.85,1.02-5.83,7.33-7.42,9.16ZM687.72,1552.63c9.77,3.18,9.76,17.42,9.39,25.87-.89,20.28-12.65,32.05,17.63,28.59,9-1.03,42.55-10.95,47.82-17.26,5.84-6.99-5.37-21.5-9.86-27.65-12.68-17.35-39.28-42.29-58.74-51.13-2.06-.94-5.79-.48-6.24-.75-.14-.09.63-2.76-1.05-3.19-2.4-.62-6.85.56-9.27,1.52-14.22,5.62-63.93,59.51-71.95,73.91-3.37,6.05-6.35,11.58,1.11,15.94,10.08,5.9,50.6,11.99,63.07,12.27,29.08.66,17.49-14.43,16.46-33.74-.47-8.78,1.67-16.61,1.63-24.37ZM887.7,1620.96c-10.48-15.41-20.94-30.86-31.33-46.34-4.26-3.54-7.46-1.87-10.88,1.62-3.6,3.66-28.03,43.41-27.42,46.02,10.54,11.54,62.2,19.92,70.6,8.13,3.9-5.47,1.03-6.48-.97-9.43Z"/>
        <path class="cls-3" d="M1489.06,1485.57c3.64-.76,8.21-.76,11.85,0,9.73,2.05,50.55,40.02,52.59,49.36.55,2.54,1.79,19.34,1.14,20.79-6.01,13.31-43.9,15.09-56.5,14.15-17.37-1.29-63.61-10.36-58.51-34.9,2.55-12.26,37.2-46.82,49.42-49.4ZM1479.3,1547.93c13.54,1.9,35.57,0,50.21,0,.86,0,2.34-2.36,2.36-3.83.05-3.95-12.42-21.31-15.75-25.13-10.1-11.59-17.41-18.58-32.11-8.67-13.05,8.79-31.88,33.82-4.71,37.63Z"/>
        <path class="cls-3" d="M1066.39,1668.15c-2.25-2.3-4.68-8.36-4.75-11.5-.28-13.92,30.28-48.09,44.41-49.06,11.53-.79,41.2,12.4,51.86,18.49,87.57,49.97-72.39,61.6-91.52,42.08ZM1156.86,1648.28c5.92-8.77-20.17-10.39-23.56-11.71-7.2-2.8-8.65-9.34-19.52-8.73-11.87.67-26.18,13.62-29.08,25.15,10.82,2.31,20.94,4.01,32.14,3.12,4.47-.35,38.89-6.14,40.03-7.83Z"/>
        <path class="cls-4" d="M1243.16,556.82c.08,6.06,3.04,12.01,5.09,17.65,25.2,68.97,56.23,136.22,74.8,207.51,8.57,32.9,13.04,66.83,22.88,99.45,8.95,29.68,30.33,70.13,34.59,98.72,2.03,13.63-3.88,10.29-9.04,19.35-13.64,23.99,3.6,62.64,30.24,69.51-.25,23.99.66,49.38-5.58,72.76-5.81,21.74-19.83,42.27-27.5,63.47-12.94,35.78-10.97,68.89-41.59,96.43-29.07,26.15-77.03,51.08-112.64,67.76-4.23,1.98-10.79,2.78-14.1,4.73s-3.47,6.01-6.89,7.26c-7.86,2.88-5.95-7.23-8.68-12.7-3.15-6.31-41.09-32.17-45.09-29.32-7.29,16.39-11.38,41.39-22.03,55.63-4.53,6.06-31.1,24.36-38.75,28.7-37.93,21.53-66.33-2.47-101.22-14.25-28.38-9.58-58.64-13.9-86.77-24.61-7.95-3.03-35.94-19.02-40.01-18.16-2.7.57-9.55,6.86-10.94,5.59-5.89-20.86-21.95-45.49-36.86-61.18-9.73-10.24-12.34-11.35-21.86.15-11.28,13.64-14.57,28.98-22.6,43.28-8.81,15.69-10.36,6.04-20.69,1.29-11.97-5.51-26.01-8.02-37.72-14.05-14.79-7.61-42.11-34.66-56.05-36.61-20.28-2.84-12.74,27.34-25.86,33-10.53,4.54-15.39-2.57-23.28-7.36-1.62-.98-3.99-.51-4.57-.86-9.11-5.4-16.69-23.79-20.44-33.68-41.19-108.69,13.74-274.77,55.79-378.71,81.93-202.51,318.84-606.1,580.45-396.76,13.52,10.82,24.97,23.59,36.91,36.03ZM1029.2,519.58c-14.42,1.57-16.16,41.06,5.93,38.8,19.54-2,8.82-40.41-5.93-38.8ZM963.32,574.63c-49.48-47.01-135.86,55.69-70.11,88.11,55.23,27.23,109.72-50.48,70.11-88.11ZM1198.75,574.39c-10.91,3.26.31,44.07,19.31,34.96,11.36-5.45,3.01-41.62-19.31-34.96ZM1173.66,692.02c-18.77,5.58-18.9,80.02,18.18,71.47,27.58-6.36,13.62-80.93-18.18-71.47ZM1255.27,691.91c-9.56,2.61-2.11,28.68,8.34,25.81,11.82-3.24,4.26-29.26-8.34-25.81ZM748.46,753.14c-7.23,2.16-19.06,29.26-9.47,32.44,16.02,5.31,27.77-37.9,9.47-32.44ZM1109.34,789.25c-15.11,4.41-.51,45.23,17.72,36.52,11.04-5.27,3.59-42.74-17.72-36.52ZM737.61,839.53c-57.37,5.44-102.81,133.54-49.38,159.81,41.44,20.38,81.08-27.76,93.24-62.62s5.65-101.88-43.86-97.19ZM1071.73,869.26c-26.48,4.63-27.08,58.6-12.81,76.35,5.7,7.09,11.5,7.3,20.28,6.39,41.53-4.3,28.95-89.12-7.48-82.75ZM1305.38,907c-16.7.89-14.43,39.46,5.98,35.57,14.36-2.73,9.92-36.42-5.98-35.57ZM1264.85,1016.69c-57.31,1.24-52.51,119.4.2,129.07,76.3,14,66.16-130.5-.2-129.07ZM621.36,1046.44c-16.93,3.89-21.92,42.53-19.57,56.53,4.49,26.67,33.84,24.79,43.23,1.61,7.52-18.56,6.16-65-23.67-58.14ZM858.29,1090.35c-21.91,5.05-29.81,69.64,7.42,63.85,28.73-4.46,29.83-72.43-7.42-63.85ZM736.08,1101.37c-68.86.91-88.74,133.41-26.78,141.91,30.27,4.16,57.99-28.41,67.47-54.06,12.56-34,4.83-88.45-40.7-87.85ZM1110.9,1162.49c-24.56,5.67-41.1,94.3,5.24,80.49,23.68-7.06,31.75-56.45,17.21-73.79-5.37-6.4-14.5-8.53-22.44-6.7ZM610.39,1189.15c-15.84,3.61-9.38,35.02,3.07,41.83,20.1,11.01,24.54-48.12-3.07-41.83ZM1292.96,1203.17c-14.18,2.55-10.94,37.91,7.04,35.54,20.91-2.75,8.49-38.34-7.04-35.54ZM1029.77,1307.99c9.23-1.6,8.52-26.43,0-28.23v28.23ZM1197.18,1280.09c-10.79,3.26.56,31.77,10.36,29.28,9.5-2.41,9.48-35.27-10.36-29.28ZM861.43,1291.08c-14.89,4.39,2.41,35.92,13.52,32.43,7.9-2.48,7.34-38.58-13.52-32.43Z"/>
        <path class="cls-5" d="M1243.16,556.82c63.65,66.26,102.43,142.82,134.54,228.57,19.09,50.96,24.9,104.76,49.79,152.54,9.81,18.83,21.57,36.12,30.41,55.86,40.85,91.24,50.83,214.24,9.41,306.92-12.68,28.38-33.14,53.25-45.55,81.5-9.75,22.2-14.8,46.35-23.66,68.88-3.04,7.74-14.61,35.88-21.5,38.19-10.13,3.39-22.03-13.31-32.33-14.95-26.06-4.14-59.02,23.75-75.23,42.22-9.09,10.36-15.71,24.33-26.69,32.91-24.94,19.5-88.74,17.09-120.58,20.63-44.61,4.95-85.94,20.57-131.8,16.85-20.96-1.7-45.44-9.3-66.56-13.46-17.75-3.49-29.94-1.67-46.88-11.17-7.64-4.29-23.39-18.5-31.12-18.92-8.84-.48-8.07,16.82-16.38,19.53-7.74,2.53-14.45-.66-21.29-.86-7.79-.23-17.34.95-24.72-.39-11.78-2.13-15.22-15.96-21.55-23.94-13.41-16.88-60.3-57.32-82.26-54.02-5.1.77-8.15,5.65-13.48,4-10.98-3.4-36.94-45.85-41.52-57.43-6.98-17.65-7.62-37.16-14.18-54.82-5.59-15.04-18.04-29.12-19.58-45.51.58.35,2.95-.13,4.57.86,7.89,4.79,12.75,11.91,23.28,7.36,13.13-5.66,5.58-35.84,25.86-33,13.95,1.95,41.27,28.99,56.05,36.61,11.71,6.03,25.75,8.55,37.72,14.05,10.33,4.75,11.87,14.4,20.69-1.29,8.03-14.3,11.31-29.64,22.6-43.28,9.52-11.5,12.13-10.39,21.86-.15,14.91,15.69,30.98,40.33,36.86,61.18,1.4,1.28,8.25-5.02,10.94-5.59,4.07-.86,32.06,15.13,40.01,18.16,28.14,10.71,58.4,15.03,86.77,24.61,34.89,11.78,63.29,35.77,101.22,14.25,7.66-4.34,34.22-22.65,38.75-28.7,10.65-14.24,14.74-39.24,22.03-55.63,3.99-2.85,41.94,23.01,45.09,29.32,2.73,5.47.82,15.58,8.68,12.7,3.41-1.25,3.66-5.36,6.89-7.26s9.87-2.75,14.1-4.73c35.61-16.68,83.57-41.6,112.64-67.76,30.62-27.54,28.66-60.65,41.59-96.43,7.67-21.21,21.69-41.74,27.5-63.47,6.24-23.38,5.33-48.77,5.58-72.76-26.64-6.87-43.88-45.52-30.24-69.51,5.15-9.06,11.07-5.72,9.04-19.35-4.26-28.59-25.64-69.04-34.59-98.72-9.84-32.62-14.3-66.55-22.88-99.45-18.57-71.29-49.6-138.54-74.8-207.51-2.06-5.63-5.01-11.59-5.09-17.65Z"/>
        <path class="cls-2" d="M1346.71,1511.86c-.64,10.39,2.64,20.27,3.21,30.5,1.35,24.37-4.82,48.6-3.21,73.01-27.38-.64-58.4-2.27-84.75-10.18-11.73-3.52-21.04-6.36-16.52-21.26,3.15-10.38,41.29-53.26,51.04-61.89,9.13-8.07,23.15-15.04,31.4-22.72,6.55,3.65,11.16,11.1,18.83,12.55Z"/>
        <path class="cls-2" d="M687.72,1552.63c.04,7.76-2.1,15.59-1.63,24.37,1.03,19.31,12.63,34.39-16.46,33.74-12.47-.28-52.98-6.37-63.07-12.27-7.46-4.36-4.49-9.89-1.11-15.94,8.02-14.4,57.73-68.3,71.95-73.91,2.42-.96,6.87-2.14,9.27-1.52,1.68.43.9,3.1,1.05,3.19-1.54,11.78-1.5,23.5-1.64,35.38-.04,3.12,1.64,6.01,1.64,6.96Z"/>
        <path class="cls-5" d="M1327.89,1499.32c.38-.35-.27-3.57,2.53-4.48,16.67-5.4,43.38,25.74,53.2,37.38,8.57,10.16,37.38,48.16,39.64,59.2,1.81,8.86-1.33,9.79-8.65,12.61-6.53,2.51-54.83,13.38-56.91,11.34.42-27.43-.55-54.96-.07-82.4.13-7.22,4.05-10.25-.79-17.9-.77-1.21-6.92-7.53-7.79-7.9-3.35-1.41-2.23,3.01-2.33,4.69-7.67-1.44-12.28-8.9-18.83-12.55Z"/>
        <path class="cls-5" d="M687.72,1510.29c.45.28,4.18-.18,6.24.75,19.46,8.84,46.07,33.78,58.74,51.13,4.49,6.15,15.71,20.66,9.86,27.65-5.27,6.31-38.82,16.23-47.82,17.26-30.28,3.46-18.52-8.31-17.63-28.59.37-8.44.38-22.69-9.39-25.87,0-.95-1.68-3.85-1.64-6.96.14-11.88.1-23.6,1.64-35.38Z"/>
        <path class="cls-5" d="M887.7,1620.96c2,2.94,4.87,3.95.97,9.43-8.4,11.79-60.07,3.41-70.6-8.13-.61-2.61,23.82-42.36,27.42-46.02s6.62-5.16,10.88-1.62c10.39,15.48,20.85,30.93,31.33,46.34Z"/>
        <path class="cls-2" d="M549.65,1555.77c-17.75.69-28.72-.25-46.3-1.55-5.45-.4-11.01.25-16.45-.02-4.5-4.38,17.37-16.92,20.41-19.58,6.94-6.06,19.26-17.6,25.08-24.33,11.22,11.92,17.64,29.05,17.26,45.48Z"/>
        <path class="cls-5" d="M549.65,1555.77c.38-16.43-6.04-33.56-17.26-45.48,1.59-1.83.57-8.14,7.42-9.16,9.06-1.34,44.85,30.15,47.11,38.55,5.23,19.44-25.57,15.63-37.27,16.09Z"/>
        <path class="cls-5" d="M1479.3,1547.93c-27.17-3.82-8.34-28.84,4.71-37.63,14.71-9.91,22.02-2.92,32.11,8.67,3.33,3.82,15.8,21.18,15.75,25.13-.02,1.47-1.51,3.83-2.36,3.83-14.64,0-36.67,1.9-50.21,0Z"/>
        <path class="cls-5" d="M1156.86,1648.28c-1.14,1.69-35.56,7.48-40.03,7.83-11.2.88-21.32-.81-32.14-3.12,2.9-11.52,17.21-24.48,29.08-25.15,10.88-.61,12.32,5.93,19.52,8.73,3.39,1.32,29.49,2.94,23.56,11.71Z"/>
        <path class="cls-5" d="M737.61,839.53c49.51-4.7,55.95,62.51,43.86,97.19s-51.8,83-93.24,62.62c-53.43-26.27-8-154.37,49.38-159.81Z"/>
        <path class="cls-5" d="M736.08,1101.37c45.52-.6,53.26,53.85,40.7,87.85-9.48,25.66-37.2,58.22-67.47,54.06-61.97-8.51-42.08-141,26.78-141.91Z"/>
        <path class="cls-5" d="M1264.85,1016.69c66.36-1.43,76.51,143.07.2,129.07-52.71-9.67-57.51-127.83-.2-129.07Z"/>
        <path class="cls-5" d="M963.32,574.63c39.61,37.63-14.88,115.34-70.11,88.11-65.75-32.42,20.62-135.11,70.11-88.11Z"/>
        <path class="cls-5" d="M1071.73,869.26c36.43-6.37,49.01,78.45,7.48,82.75-8.78.91-14.59.69-20.28-6.39-14.27-17.76-13.68-71.72,12.81-76.35Z"/>
        <path class="cls-5" d="M1110.9,1162.49c7.95-1.83,17.07.3,22.44,6.7,14.54,17.34,6.47,66.73-17.21,73.79-46.34,13.81-29.8-74.82-5.24-80.49Z"/>
        <path class="cls-5" d="M621.36,1046.44c29.83-6.86,31.19,39.59,23.67,58.14-9.39,23.17-38.74,25.06-43.23-1.61-2.36-14,2.64-52.64,19.57-56.53Z"/>
        <path class="cls-5" d="M1173.66,692.02c31.81-9.46,45.76,65.11,18.18,71.47-37.08,8.55-36.95-65.89-18.18-71.47Z"/>
        <path class="cls-5" d="M858.29,1090.35c37.25-8.58,36.16,59.39,7.42,63.85-37.23,5.78-29.33-58.81-7.42-63.85Z"/>
        <path class="cls-5" d="M610.39,1189.15c27.6-6.29,23.17,52.84,3.07,41.83-12.45-6.81-18.91-38.22-3.07-41.83Z"/>
        <path class="cls-5" d="M1109.34,789.25c21.31-6.22,28.75,31.24,17.72,36.52-18.23,8.71-32.82-32.11-17.72-36.52Z"/>
        <path class="cls-5" d="M1029.2,519.58c14.75-1.61,25.47,36.79,5.93,38.8-22.09,2.27-20.35-37.22-5.93-38.8Z"/>
        <path class="cls-5" d="M1198.75,574.39c22.32-6.66,30.67,29.51,19.31,34.96-19,9.11-30.22-31.7-19.31-34.96Z"/>
        <path class="cls-5" d="M1292.96,1203.17c15.54-2.8,27.95,32.8,7.04,35.54-17.99,2.36-21.23-32.99-7.04-35.54Z"/>
        <path class="cls-5" d="M1305.38,907c15.89-.84,20.33,32.84,5.98,35.57-20.41,3.88-22.67-34.69-5.98-35.57Z"/>
        <path class="cls-5" d="M861.43,1291.08c20.86-6.15,21.42,29.95,13.52,32.43-11.11,3.49-28.41-28.04-13.52-32.43Z"/>
        <path class="cls-5" d="M748.46,753.14c18.31-5.46,6.55,37.75-9.47,32.44-9.6-3.18,2.24-30.28,9.47-32.44Z"/>
        <path class="cls-5" d="M1197.18,1280.09c19.84-5.99,19.86,26.86,10.36,29.28-9.81,2.49-21.15-26.02-10.36-29.28Z"/>
        <path class="cls-5" d="M1255.27,691.91c12.6-3.45,20.16,22.57,8.34,25.81-10.45,2.87-17.9-23.2-8.34-25.81Z"/>
        <path class="cls-5" d="M1029.77,1307.99v-28.23c8.52,1.8,9.23,26.62,0,28.23Z"/>
      </g>
      <rect class="cls-6" width="2048.06" height="2048.2"/>
    </g>
  </g>
</svg>