<?xml version="1.0" encoding="UTF-8"?>
<svg id="Layer_2" data-name="Layer 2" xmlns="http://www.w3.org/2000/svg" viewBox="0 0 2048.06 2048.2">
  <defs>
    <style>
      .cls-1 {
        fill: #7b25c7;
      }

      .cls-2 {
        fill: #606060;
      }

      .cls-3 {
        fill: #631a9d;
      }

      .cls-4 {
        fill: #030207;
      }

      .cls-5 {
        opacity: 0;
      }
    </style>
  </defs>
  <g id="GrapeEgg">
    <g>
      <g id="WOgtUw.tif">
        <g>
          <path class="cls-2" d="M1291.96,1585.06c33.11,12.24,62.45,28.21,99.2,26.72,21.3-.86,76.73-12.92,68.4-42.98-5.54-19.98-55.05-76.51-71.9-91.6-2.22-1.99-11.65-7.2-11.05-9.8.24-1.02,13.07-7.33,15.44-8.95,29.32-19.94,55.47-61.63,64.26-95.77,10.28-39.93,4.43-81.84,9.77-122.41,5.57-42.27,25.63-83.19,31-125.54,8.67-68.28-20.23-129.85-39.6-193.18-35.22-115.19-27.55-230.66-89.96-339.08-141.78-246.32-409.46-149.68-574.94,11.18-194.31,188.89-372.46,567.1-217.22,824.8,20.16,33.47,52.89,62.73,32.82,105.14-9.46,19.98-59.89,69.33-23.76,86.4,38.01,17.96,130.27,2.44,168.59-14.66,3.18-1.42,11.57-7.23,13.84-6.63,13.67,10.02,28.85,20.81,46.06,23.03,2.36,2.24-17.1,17.47-19.15,19.69-20.71,22.46-11.31,32.38,14.72,38.65,31.96,7.7,119.73,11.43,149.06-1.31,19.43-8.44,4.74-22.21,2.67-36.16,20.28-.68,40.59,2.39,60.88,1.14,31.82-1.95,62.95-11.98,94.54-15.06-.74,10.4-11.49,14.8-7.88,27.01,2.76,9.34,30.16,14.33,38.81,15.7,39.29,6.2,102.4,6.91,138.03-12.37,33.98-18.39,13.55-36.13,7.35-63.97Z"/>
          <path class="cls-4" d="M1291.96,1585.06c6.19,27.84,26.62,45.58-7.35,63.97-35.63,19.28-98.73,18.56-138.03,12.37-8.65-1.36-36.04-6.36-38.81-15.7-3.61-12.21,7.14-16.61,7.88-27.01-31.59,3.08-62.72,13.1-94.54,15.06-20.3,1.25-40.61-1.82-60.88-1.14,2.06,13.96,16.76,27.72-2.67,36.16-29.33,12.74-117.1,9.02-149.06,1.31-26.03-6.27-35.43-16.2-14.72-38.65,2.05-2.22,21.51-17.46,19.15-19.69-17.21-2.22-32.38-13.02-46.06-23.03-2.26-.6-10.66,5.21-13.84,6.63-38.32,17.09-130.58,32.62-168.59,14.66-36.13-17.07,14.3-66.42,23.76-86.4,20.08-42.41-12.65-71.67-32.82-105.14-155.24-257.7,22.91-635.9,217.22-824.8,165.48-160.87,433.16-257.5,574.94-11.18,62.41,108.42,54.74,223.89,89.96,339.08,19.37,63.33,48.26,124.9,39.6,193.18-5.37,42.35-25.44,83.28-31,125.54-5.34,40.57.5,82.48-9.77,122.41-8.79,34.14-34.94,75.83-64.26,95.77-2.37,1.61-15.2,7.93-15.44,8.95-.6,2.6,8.82,7.81,11.05,9.8,16.85,15.09,66.37,71.62,71.9,91.6,8.33,30.06-47.1,42.11-68.4,42.98-36.76,1.49-66.09-14.48-99.2-26.72ZM550.8,1229.09c3.39,57.44,17.26,118.68,46.62,168.49,9.2,15.6,20.72,29.7,30.42,44.96,4.35,6.84,9.92,20.26,14.06,25.37,3.06,3.77,15.58,11.25,20.35,14.44,27.43,18.34,58.54,33.36,84.96,53.05,35.63,26.56,51.33,59.4,104.57,55.44,18.33-1.37,35.07-19.66,53.27-17.26,14.35,1.89,20.25,22.84,31.15,26.82,5.12,1.87,19.71,2.96,25.73,3.26,60.8,3.08,122.86-9.62,182.2-20.87,20.53-20.88,58.99-73.37,89.24-76.58,23.67-2.52,25.56,22.49,34.9,38.17,1.5,2.51,5.33,9.89,8.47,8.07,18.23-26.39,32.6-58.43,53.52-82.73,28.72-33.37,72.36-52.61,90.98-94.57,23.3-52.52,6.1-108.66,19.51-163.7,9.03-37.06,25.3-71.65,27.5-110.49,3.17-56.1-19.84-99.29-36.28-150.39-33.91-105.46-29.01-218.97-76.01-320.56-15.13-32.69-45.71-88.87-75.95-108.43-2.77-1.79-8.22-3.12-10.08-4.41-22.58-15.61-31.82-26.38-60.03-36.81-164.32-60.76-345.41,73.9-446.27,192.17-131.27,153.92-225.03,349.68-212.81,556.58ZM1387.06,1583.89c13.69-.19,32.92-.63,44.92-7.83.92-.55,1.89.22,1.52-2.03-.24-1.44-14.68-21.23-16.84-23.78-12.24-14.44-36.3-31.58-44.67-47.53-6.48-12.35-5.91-29.72-22.01-12.14-17.31,18.9-29.46,42.26-42.97,63.71-2.76,4.39-5.25,6.28-.36,9.7,20.14,14.07,56.35,20.23,80.42,19.9ZM640.11,1531.72c-3.3,4.63-8.03,7.85-11.57,12.21-11.33,13.94-25.21,29.84-27.87,48.08,33.39,3.26,64.98,1.15,97.43-6.95,15.57-3.89,30.55-10.08,46.4-12.76,1.37-1.59-7.63-17.32-9.67-19.32-5.01-4.91-25.45-11.97-33.27-16.02-18.46-9.56-36.42-21.2-51.6-35.38-2.79-.51-1.39,1.29-1.68,2.91-1.9,10.6-1.55,17.94-8.16,27.23ZM1239.75,1535.2c.13-3.31-1.88-6.11-2.33-9.28-3.51-2.57-31.92,22.22-35.96,26.07-12.21,11.64-25.1,26.44-35.91,39.47-4.57,5.5-31.28,38.88-31.38,42.83,3.95,1.96,9.92,2.41,14.54,2.93,22.68,2.56,52.1,3.79,74.8,2.32,21.08-1.36,42.22-7.65,60.41-18.14.78-3.76-10.54-29.34-13.02-34.46-7.04-14.57-17.86-34.01-26.7-47.51-1.17-1.78-2.53-3.29-4.45-4.25ZM903.4,1597.81c-.25-.11-.51-1.84-2.87-2.3-1.96-.38-4.86-.18-6.9.09-9.05,1.21-44.76,23.28-53.93,29.56-3.13,2.15-23.99,16.04-19.83,20.18,26.24,2.93,52.43,5.99,78.88,5.8,9.13-.07,17.77.7,26.7-1.71,10.93-2.95,10.61-5.75,5.99-15.31-3.15-6.52-18.94-31.49-23.97-35.22-1.68-1.25-3.17-.69-4.08-1.09Z"/>
          <path class="cls-1" d="M1269.91,517.15c-2.31.12-4.35-1.16-3,2.42,6.53,17.33,18.08,36.64,25.58,54.43,26.73,63.33,60.99,171.22,45.29,238.83-7.43,32-23.23,53-20.29,88.67,2.63,31.91,25.87,60.11,24.32,93.93-1.34,29.16-25.78,53.61-27.87,83.44-2.5,35.64,14.7,113.72-26.98,131.88-14.94,6.51-31.16,2.43-46.57,2.05-77.09-1.91-105.46,132.47-180.42,153.67-76.47,21.63-100.37-62.22-165.22-62.07-45.46.11-61.65,30.61-92.87,54.51-40.47,30.97-57.94-2.32-97.44,1.15-23.96,2.1-29.08,20.88-59.68,12.2-44.35-12.58-75.5-73.73-85.05-115.57-1.89-8.29-2.23-18.43-4.28-25.87-.91-3.31-2-1.37-4.63-1.75-12.22-206.9,81.55-402.66,212.81-556.58,100.86-118.26,281.95-252.93,446.27-192.17,28.2,10.43,37.44,21.2,60.03,36.81ZM1157.13,510.5c-14.82,2.15-22.4,20.73-10.77,31.03,11.32,10.03,29.78,3.75,31.82-11.15,2.16-15.71-5.78-22.11-21.05-19.89ZM1242.9,554.49c-8.91,2.65-3.53,23.89,7.64,20.42,7.89-2.45,4.7-24.09-7.64-20.42ZM1091.01,581.22c-52.5,7.1-58.19,96.95,6.64,91.28,58.7-5.13,59.9-100.28-6.64-91.28ZM1217.4,653.04c-12.4,2.74-15.38,33.89,1.19,36.63,22.94,3.79,17.68-40.8-1.19-36.63ZM797.55,699.47c-32.38,5.08-67.53,68.53-40.92,94.84,17.18,16.99,51.07-1.32,62.6-17.51,16.83-23.63,22.54-84.28-21.69-77.34ZM1277.66,720.49c-17.8-.18-32.09,30.12-33.24,45.39-1.14,15.06,8.06,48.23,26.04,50.45,29.75,3.67,36.39-36.57,34.1-58.44-1.46-13.95-10.16-37.23-26.9-37.4ZM988.95,722.59c-12.04,1.46-12.89,23.6.82,23.05,11.46-.46,14.78-24.94-.82-23.05ZM715.5,847.61v-20.29c0-3.56-3.31-14.56-4.62-18.57-2.59-7.9-9.37-27.88-16.47-11.79-6.76,15.34.86,48.95,21.09,50.65ZM1063.11,833.88c-4.01,1.15-6.92,8.05-4.2,11.89,6.74,9.5,15.02-14.98,4.2-11.89ZM1207.01,887.26c-17.13,2.49-22.83,46.27-.31,46.27,15.22,0,24.59-28.84,16.29-39.59-3.05-3.95-10.97-7.41-15.98-6.68ZM1087.77,914.9c-1.12-.92-5.64.38-6.29,2.32-13.09,20.16-10.96,42.08-8.73,64.89,1.41,1.64,6.52-6.25,7.18-7.31,8.51-13.65,11.47-30.67,10.26-46.65-.14-1.85-1.89-12.82-2.41-13.25ZM686.26,921c-52.64,4.37-98.23,119.43-53.04,150.9,35.97,25.05,76.7-37.81,85.17-66.6,8.18-27.8,11.01-87.88-32.13-84.3ZM1303.16,972.99c-4.98,1.64-4.67,19.17,3.23,18.45s7.47-21.98-3.23-18.45ZM907.69,975.4c-4.57,1.33-6.9,8.69-6.67,13.05,1.17,21.76,31.97,16.02,23.33-5.84-2.67-6.75-9.97-9.16-16.67-7.21ZM1212.79,998.65c-21.08,2.76-45.74,30.37-54.45,48.76-16.89,35.68-21.2,112.15,36.74,106.3,34.89-3.52,61.01-51.06,63.28-82.84,2.03-28.42-7.61-77.19-45.57-72.22ZM856.74,1072.88c-40.24,3.91-62.73,83.67-5.06,76.1,36.52-4.79,51.96-80.66,5.06-76.1ZM700.11,1130.81c-25.57,4.39-40.58,61.93-.55,55.1,25.89-4.42,34.14-60.86.55-55.1ZM596.85,1135.41c-11.39,3.41-21.67,53.72,2.03,53.15,13.03-.31,16.24-19.55,15.75-29.67-.43-9.04-5.86-27.06-17.78-23.49ZM776.67,1214.29c-21.73,3.72-37.88,55.34-.35,49.5,18.94-2.95,34.68-55.38.35-49.5ZM642.12,1242.12c-37.22,6.34-31.37,103.36,16.86,94.53,33.55-6.14,27.88-102.15-16.86-94.53Z"/>
          <path class="cls-3" d="M1269.91,517.15c1.86,1.29,7.31,2.62,10.08,4.41,30.25,19.57,60.82,75.74,75.95,108.43,47,101.59,42.1,215.1,76.01,320.56,16.43,51.1,39.45,94.29,36.28,150.39-2.2,38.85-18.47,73.44-27.5,110.49-13.41,55.05,3.8,111.18-19.51,163.7-18.62,41.96-62.26,61.2-90.98,94.57-20.91,24.3-35.28,56.34-53.52,82.73-3.15,1.82-6.98-5.56-8.47-8.07-9.34-15.68-11.23-40.69-34.9-38.17-30.25,3.22-68.72,55.71-89.24,76.58-59.34,11.25-121.4,23.95-182.2,20.87-6.03-.31-20.61-1.39-25.73-3.26-10.9-3.98-16.8-24.93-31.15-26.82-18.2-2.4-34.93,15.9-53.27,17.26-53.23,3.97-68.94-28.88-104.57-55.44-26.42-19.69-57.52-34.71-84.96-53.05-4.78-3.19-17.29-10.67-20.35-14.44-4.14-5.11-9.71-18.53-14.06-25.37-9.7-15.26-21.22-29.36-30.42-44.96-29.36-49.8-43.23-111.04-46.62-168.49,2.63.37,3.72-1.57,4.63,1.75,2.05,7.44,2.39,17.57,4.28,25.87,9.55,41.84,40.7,103,85.05,115.57,30.6,8.68,35.72-10.1,59.68-12.2,39.5-3.47,56.97,29.82,97.44-1.15,31.22-23.89,47.42-54.4,92.87-54.51,64.84-.15,88.74,83.7,165.22,62.07,74.96-21.21,103.33-155.59,180.42-153.67,15.41.38,31.62,4.46,46.57-2.05,41.68-18.15,24.49-96.24,26.98-131.88,2.09-29.84,26.53-54.29,27.87-83.44,1.55-33.82-21.69-62.02-24.32-93.93-2.94-35.67,12.86-56.68,20.29-88.67,15.71-67.61-18.56-175.5-45.29-238.83-7.51-17.79-19.06-37.1-25.58-54.43-1.35-3.58.69-2.3,3-2.42Z"/>
          <path class="cls-1" d="M1223.52,1639.55c-22.7,1.46-52.12.24-74.8-2.32-4.62-.52-10.59-.98-14.54-2.93.1-3.96,26.81-37.33,31.38-42.83,10.81-13.03,23.7-27.83,35.91-39.47,4.04-3.85,32.45-28.64,35.96-26.07.45,3.16,2.46,5.97,2.33,9.28-.2,5.23-5.04,17.92-6.39,24.34-5.52,26.28-10.67,53.03-9.85,80.02Z"/>
          <path class="cls-1" d="M1371.98,1502.73c-1.78.49-4.43-1.6-4.65,1.7-1.9,27.94,8.43,54.55,19.73,79.46-24.06.33-60.27-5.83-80.42-19.9-4.9-3.42-2.4-5.31.36-9.7,13.51-21.46,25.66-44.82,42.97-63.71,16.1-17.58,15.53-.2,22.01,12.14Z"/>
          <path class="cls-3" d="M640.11,1531.72c6.61-9.28,6.26-16.63,8.16-27.23.29-1.63-1.11-3.42,1.68-2.91,15.18,14.18,33.14,25.82,51.6,35.38,7.82,4.05,28.26,11.11,33.27,16.02,2.04,1.99,11.04,17.73,9.67,19.32-15.85,2.68-30.82,8.87-46.4,12.76.66-3.66-1.81-1.97-3.98-2.34-3.21-.55-7.51-.7-10.26-1.4-5.83-1.48-11.73-14.94-15.95-20-8.89-10.68-22.43-15.68-27.81-29.59Z"/>
          <path class="cls-3" d="M1239.75,1535.2c1.93.96,3.28,2.47,4.45,4.25,8.85,13.51,19.67,32.94,26.7,47.51,2.47,5.12,13.79,30.7,13.02,34.46-18.19,10.49-39.33,16.78-60.41,18.14-.82-26.99,4.33-53.74,9.85-80.02,1.35-6.42,6.19-19.11,6.39-24.34Z"/>
          <path class="cls-1" d="M640.11,1531.72c5.38,13.91,18.92,18.91,27.81,29.59,4.22,5.07,10.12,18.52,15.95,20,2.74.7,7.04.85,10.26,1.4,2.17.37,4.64-1.31,3.98,2.34-32.45,8.1-64.04,10.21-97.43,6.95,2.66-18.25,16.54-34.14,27.87-48.08,3.54-4.35,8.27-7.57,11.57-12.21Z"/>
          <path class="cls-1" d="M903.4,1597.81c-6.07,17.06-10.07,35.53-4.64,53.34-26.45.19-52.64-2.87-78.88-5.8-4.16-4.14,16.69-18.04,19.83-20.18,9.17-6.29,44.88-28.35,53.93-29.56,2.03-.27,4.94-.47,6.9-.09,2.36.45,2.61,2.19,2.87,2.3Z"/>
          <path class="cls-3" d="M1371.98,1502.73c8.37,15.95,32.42,33.09,44.67,47.53,2.16,2.55,16.6,22.35,16.84,23.78.38,2.25-.59,1.47-1.52,2.03-12,7.19-31.23,7.64-44.92,7.83-11.29-24.91-21.62-51.52-19.73-79.46.22-3.3,2.87-1.21,4.65-1.7Z"/>
          <path class="cls-3" d="M903.4,1597.81c.91.4,2.4-.15,4.08,1.09,5.03,3.73,20.83,28.7,23.97,35.22,4.62,9.56,4.94,12.36-5.99,15.31-8.93,2.41-17.56,1.65-26.7,1.71-5.43-17.8-1.43-36.28,4.64-53.34Z"/>
          <path class="cls-3" d="M1212.79,998.65c37.96-4.97,47.6,43.8,45.57,72.22-2.27,31.79-28.38,79.32-63.28,82.84-57.94,5.85-53.63-70.62-36.74-106.3,8.7-18.38,33.37-46,54.45-48.76Z"/>
          <path class="cls-3" d="M686.26,921c43.14-3.58,40.31,56.49,32.13,84.3-8.47,28.79-49.2,91.65-85.17,66.6-45.19-31.47.4-146.53,53.04-150.9Z"/>
          <path class="cls-3" d="M1091.01,581.22c66.54-9,65.34,86.15,6.64,91.28-64.83,5.66-59.14-84.18-6.64-91.28Z"/>
          <path class="cls-3" d="M797.55,699.47c44.22-6.94,38.51,53.71,21.69,77.34-11.53,16.19-45.42,34.5-62.6,17.51-26.61-26.32,8.54-89.76,40.92-94.84Z"/>
          <path class="cls-3" d="M642.12,1242.12c44.73-7.61,50.4,88.39,16.86,94.53-48.22,8.82-54.08-88.19-16.86-94.53Z"/>
          <path class="cls-3" d="M1277.66,720.49c16.74.17,25.44,23.45,26.9,37.4,2.29,21.87-4.35,62.11-34.1,58.44-17.99-2.22-27.18-35.39-26.04-50.45,1.15-15.27,15.44-45.57,33.24-45.39Z"/>
          <path class="cls-3" d="M856.74,1072.88c46.9-4.56,31.46,71.31-5.06,76.1-57.67,7.57-35.18-72.19,5.06-76.1Z"/>
          <path class="cls-3" d="M700.11,1130.81c33.59-5.77,25.34,50.67-.55,55.1-40.03,6.84-25.02-50.7.55-55.1Z"/>
          <path class="cls-3" d="M776.67,1214.29c34.32-5.87,18.59,46.56-.35,49.5-37.53,5.84-21.38-45.79.35-49.5Z"/>
          <path class="cls-3" d="M596.85,1135.41c11.92-3.57,17.35,14.45,17.78,23.49.48,10.12-2.73,29.35-15.75,29.67-23.7.57-13.42-49.74-2.03-53.15Z"/>
          <path class="cls-3" d="M1207.01,887.26c5.01-.73,12.93,2.73,15.98,6.68,8.3,10.75-1.07,39.59-16.29,39.59-22.52,0-16.82-43.78.31-46.27Z"/>
          <path class="cls-3" d="M1157.13,510.5c15.27-2.22,23.21,4.18,21.05,19.89-2.05,14.89-20.51,21.17-31.82,11.15-11.63-10.3-4.05-28.88,10.77-31.03Z"/>
          <path class="cls-3" d="M715.5,847.61c-20.23-1.7-27.85-35.31-21.09-50.65,7.09-16.09,13.87,3.89,16.47,11.79,1.31,4.01,4.62,15,4.62,18.57v20.29Z"/>
          <path class="cls-3" d="M1087.77,914.9c.52.43,2.27,11.4,2.41,13.25,1.21,15.97-1.74,33-10.26,46.65-.66,1.05-5.77,8.94-7.18,7.31-2.22-22.81-4.36-44.73,8.73-64.89.65-1.93,5.18-3.24,6.29-2.32Z"/>
          <path class="cls-3" d="M1217.4,653.04c18.87-4.17,24.13,40.41,1.19,36.63-16.57-2.74-13.59-33.89-1.19-36.63Z"/>
          <path class="cls-3" d="M907.69,975.4c6.7-1.95,14,.46,16.67,7.21,8.64,21.87-22.16,27.6-23.33,5.84-.23-4.36,2.1-11.72,6.67-13.05Z"/>
          <path class="cls-3" d="M988.95,722.59c15.61-1.89,12.28,22.6.82,23.05-13.72.55-12.87-21.6-.82-23.05Z"/>
          <path class="cls-3" d="M1242.9,554.49c12.34-3.67,15.53,17.97,7.64,20.42-11.17,3.46-16.55-17.77-7.64-20.42Z"/>
          <path class="cls-3" d="M1303.16,972.99c10.7-3.53,10.8,17.76,3.23,18.45s-8.21-16.81-3.23-18.45Z"/>
          <path class="cls-3" d="M1063.11,833.88c10.82-3.09,2.54,21.38-4.2,11.89-2.72-3.83.18-10.74,4.2-11.89Z"/>
        </g>
      </g>
      <rect class="cls-5" width="2048.06" height="2048.2"/>
    </g>
  </g>
</svg>