<?xml version="1.0" encoding="UTF-8"?>
<svg id="Layer_2" data-name="Layer 2" xmlns="http://www.w3.org/2000/svg" viewBox="0 0 2048.06 2048.2">
  <defs>
    <style>
      .cls-1 {
        fill: #e1c90d;
      }

      .cls-2 {
        fill: #13120b;
      }

      .cls-3 {
        fill: #c3a808;
      }

      .cls-4 {
        fill: #606060;
      }

      .cls-5 {
        opacity: 0;
      }
    </style>
  </defs>
  <g id="MangoEgg">
    <g>
      <g id="IqyTzr.tif">
        <g>
          <path class="cls-4" d="M1420.91,1502.48c29.58-18.82,51.25-47.6,55.55-83.1,3.1-25.63-1.78-51.34,1.59-76.9,4.22-32.03,25.1-58.54,33.68-89.12,25.37-90.5-34.34-143.4-54-222.51-8.85-35.6-1.06-68.7-8.28-103.12-9.61-45.8-45.07-85.5-65.48-126.95-33.6-68.24-45.36-152.26-96.64-210.99-140.39-160.82-379.23-15.01-500.25,97.45-89.57,83.24-159.31,194.68-217.36,301.71-34.4,63.42-73.56,142.2-61.43,216.27,1.9,11.58,6.05,23.01,7.04,34.74,5.18,61.29-37.3,109.52-7.65,173.47,16.8,36.24,55.48,52.35,74.2,84.06,17.3,29.32-1.63,35.9-14.99,58.23-30.46,50.87,20.9,78.96,66.69,70.46,13.27-2.46,26.06-10.02,38.94-12.98,23.82-5.47,44.02.26,67.12,5.71-1.37,6.3-9.24,7.84-13.33,12.61-5.84,6.82-6.4,13.75,0,20.34,16.13,16.63,89.6,23.07,112.8,21.52,7.51-.5,27.47-3.64,32.28-9.5,4.07-4.95.7-15.69,4.56-16.96,3.01-.99,14.47-.93,19.68-1.84,26.53-4.63,48.55-12.57,76.44-11.05,28.64,1.56,56.72,14.16,84.94,16.35,5.41.42,33.47-1.1,34.67.16.64.67-1.55,9.86,6.97,16.46,28.24,21.88,131.37,4.4,159.84-16.16,12.61-9.11,12.66-16.75,5.4-30.01l2.14-1.69c9.08-.39,17.62-3.9,26.51-5.14,58.81-8.23,87.16,38.4,154.16,7.26,12.28-5.71,34.97-18.05,34.76-33.38-.34-24.51-47.4-62.79-60.49-83.59l-.04-1.81Z"/>
          <path class="cls-2" d="M1420.91,1502.48l.04,1.81c13.09,20.8,60.15,59.08,60.49,83.59.21,15.33-22.48,27.67-34.76,33.38-66.99,31.14-95.35-15.49-154.16-7.26-8.89,1.24-17.43,4.76-26.51,5.14l-2.14,1.69c7.25,13.26,7.21,20.9-5.4,30.01-28.47,20.56-131.6,38.03-159.84,16.16-8.52-6.6-6.32-15.78-6.97-16.46-1.2-1.25-29.26.26-34.67-.16-28.22-2.19-56.31-14.79-84.94-16.35-27.89-1.52-49.91,6.43-76.44,11.05-5.21.91-16.68.86-19.68,1.84-3.87,1.27-.49,12-4.56,16.96-4.81,5.86-24.78,9-32.28,9.5-23.2,1.55-96.68-4.89-112.8-21.52-6.4-6.6-5.84-13.52,0-20.34,4.09-4.77,11.96-6.31,13.33-12.61-23.1-5.46-43.3-11.18-67.12-5.71-12.88,2.95-25.67,10.51-38.94,12.98-45.79,8.5-97.14-19.59-66.69-70.46,13.37-22.32,32.3-28.9,14.99-58.23-18.72-31.71-57.39-47.82-74.2-84.06-29.65-63.95,12.83-112.18,7.65-173.47-.99-11.73-5.14-23.16-7.04-34.74-12.13-74.07,27.03-152.85,61.43-216.27,58.05-107.02,127.78-218.47,217.36-301.71,121.01-112.46,359.85-258.27,500.25-97.45,51.27,58.73,63.03,142.75,96.64,210.99,20.41,41.45,55.87,81.14,65.48,126.95,7.22,34.41-.57,67.51,8.28,103.12,19.66,79.11,79.37,132.02,54,222.51-8.57,30.58-29.46,57.09-33.68,89.12-3.37,25.56,1.52,51.27-1.59,76.9-4.3,35.5-25.96,64.28-55.55,83.1ZM1253.75,599.95c-105.64-106.87-261.01-30.91-364.35,38.96-112.77,76.24-192.93,183.64-261.43,299.42-34.4,58.13-95.54,163.02-92.21,230.58,1.35,27.43,11.51,54.62,10.17,82.34-1.43,29.76-17.64,58.76-20.15,87.45-5.86,66.93,21.65,78.25,61.89,119.45,6.92,7.09,16.98,19.65,21.74,28.26,11.06,19.98,15.3,55.64,37.71,66.1,2.63,1.23,16.2,4.21,16.53,5.01.82,1.97.67,3.04-1.87,3.17-9.84.51-25.59-1.5-34.27-6.3-5.23-2.89-14.4-14.61-19.93-13.76-7.2,1.11-16.69,23.51-19.91,30.18-.13.26-1.95,1.18-2.79,2.85-8.47,16.98,5.88,25.98,21.16,27.51,33.6,3.37,59.48-25.01,92.27-22.6,24.86,1.83,59.21,26.74,81.87,20.76,2.29-.6,10.09-5.11,10.09-8.27,6.71-3.11,21.51-11.17,27.85-12.15,7.94-1.23,12.19,4.96,16.26,10.46,8.34,11.26,10.42,20.13,21.74,29.53.16.13-.2,1.71.34,2.13,9.36,7.36,51.39-7.86,64-10.6,27.59-6,52.11-6.64,80.02-2.92,37.25,4.96,72.92,23.81,111.74,13.59,23.68-20.07,44.04-51.38,71.49-66.51,13.17-7.26,21.51-8.97,32.07,2.89,5.88,6.59,21.04,34.14,25.31,36.73,5.08,3.08,22.94-1.81,28.51-4.39,4.93-2.28,7.9-6.34,13.13-7.77.06-4.99-1.91-7.02-.16-12.17,2.84-8.34,30.25-31.55,38.4-37.58,32.1-23.74,74.22-38.79,103.75-65.91,37.22-34.18,18.81-77.74,24.22-121.35,4.58-36.97,17.73-58.02,30.82-90.71,32.62-81.41-34.81-149.52-52.44-224.75-7.11-30.34-1.68-58.38-3.91-88.5-3.56-48.19-41.38-80.44-61.85-121.71-39.88-80.39-39.84-150.67-107.82-219.44ZM1391.77,1518.92c-21.09,5.84-41.22,17.77-59.16,30.09-5.85,4.02-28.31,19.47-29.47,25.06-1.08,5.2,6.84,9.43,10.95,11.75,18.12,10.23,71.05,28.83,90.85,26.63,7.06-.78,35.38-13.96,40.98-18.53,11.51-9.38,1.28-19.38-4.99-28.57-6.34-9.29-17.47-24.02-25.72-31.25-4.15-3.63-9.93-2.92-8.24-11.38-3.51-4.33-5.35,12.94-5.65,13.96-3.21,10.82-8.44,15.85-6.9,28.34.82,6.64,5.66,13.92,4.94,20.99-6.71-4.92-9.54-21-17.65-23.48-9.18-2.81-25.31,2.9-35.52.69-.3-1.82,2.2-1.71,3.52-2.14,8.64-2.81,28.99-3.81,34.54-8.52,6.9-5.86,6.28-25.07,7.51-33.62ZM1192.96,1574.62c-.89-.95-7.7,4.67-8.88,5.67-19.53,16.53-41.53,38.29-60.17,56.31-2.64,2.55-16.67,15.18-14.53,17.74,32.55,5.21,68.24,3.34,100.04-5.69,13.85-3.93,26.87-10.13,40.52-14.57l-.6-3.81-46.24-55.66c1.52,25.25.25,47.12-9.8,70.6-.67,1.56-.68,3.73-2.87,4.08,5.3-25.41,8.82-48.96,2.51-74.68ZM820.66,1601.19c-4.72-.72-7,3.42-10.5,5.31-18.68,10.1-38.19,18.94-56.62,29.47-1.03.59-8.36,3.91-6.31,5.72,34.03,7.91,68.86,15.74,103.85,8.87,4.73-4.69-20.29-31.24-23.85-36.29-2.74-3.87-6.38-8.29-6.56-13.08Z"/>
          <path class="cls-1" d="M1253.75,599.95c-2.1,1.65-1.47,5.84-1.25,8.21.8,8.44,4.62,30.79,7.34,38.23,1.85,5.04,6.97,10.03,7.75,15.04,1.83,11.71-1.4,27.02.19,39.05,1.12,8.5,8.21,18.45,8.8,26.72.52,7.31-3.9,15.62-3.67,21.55.16,4.11,4.42,12.56,4.94,18.88,1.2,14.55-4.27,28.88-2.47,42.98,1.2,9.41,7.3,20.88,9.46,31.05,1.59,7.48,1.19,15.14,3.76,22.82,2.7,8.07,16.34,25.84,16.86,31.28.33,3.36-5.8,4.77-8.03,6.73-18.92,16.55-8.72,61.94,12.1,73.98,2.5,1.44,8.11,2.04,8.71,4.01-5.96,26.07-11.42,47.82,1.97,72.66,5.37,9.97,22.49,28.66,23.49,38.57,2.32,23.01-21.9,42.6-26.08,62.6-1.65,7.91,1.08,19.29-.82,25.76-.8,2.73-10.2,8.32-12.95,12.37-6.79,9.99-8.8,30.48-1.28,40.35,5.88,7.72,7.42,1.9,6.88,15.88-.73,18.78-6.17,70.36-18.99,83.53-9.78,10.04-20.68-11.47-31.07-13.2-46.53-7.75-68,60.55-96.14,86.04-8,7.25-39.4,32.69-48.23,34.05-14.23,2.19-16.87-8.64-26.73-16.15-24.9-18.97-49.37-1.85-77.08-3.96-47.71-3.62-53.42-72.23-98.72-72.2-57.5.04-92.02,87.75-141.84,82.28-21.86-2.4-39.48-30.53-64.72-32.76-35.39-3.12-27.93,33.56-42.28,52.36-12.69,16.62-31.4.15-46.22.53-10.69.28-19.03,9.58-29.76,8.97-40.23-41.21-67.75-52.53-61.89-119.45,2.51-28.69,18.72-57.69,20.15-87.45,1.33-27.72-8.82-54.91-10.17-82.34-3.33-67.56,57.82-172.45,92.21-230.58,68.5-115.78,148.66-223.18,261.43-299.42,103.34-69.87,258.71-145.83,364.35-38.96ZM1149.62,582.47c-17.54,2.48,1.46,24.76,14.85,25.15,6.8.2,7.95-1.17,6.9-8.22-1.27-8.61-12.92-18.18-21.75-16.93ZM1224.26,616.67c-11.91,2.68-13.84,24.79-.56,29.13,23.99,7.84,27.23-24.69,13.65-28.84-3.2-.98-9.84-1.03-13.1-.3ZM1101.45,636.94c-5.49,1.12-13.43,9.07-14.56,14.55-4.71,22.93,31.5,24.43,36.82,2.65,3.81-15.59-8.98-19.92-22.26-17.2ZM1181.13,720.64c-57.63-56.9-154,52.08-88.83,102.09,59.13,45.38,145.91-45.74,88.83-102.09ZM937.52,716.76c-.5.43-7.19,10.33-7.39,10.96-.93,3.02-.98,8.88-.48,12.02.67,4.18,13.37,23.61,16.79,23.31,10.71-.96,39.19-51.21,12.86-53.06-3.22-.23-19.63,4.92-21.79,6.77ZM1231.86,743.24c-6.17,1.83-9.07,18.88-2.78,20.03,11.84,2.15,16.68-24.15,2.78-20.03ZM1002.66,781.22c-12.97,2.94-14.75,26.01-2.03,31.87,22.63,10.44,27.11-37.55,2.03-31.87ZM877.37,806.63c-39.01,4.15-89,76.3-50.97,105.94,31.15,24.27,76.57-12.21,87.69-42.66,11.04-30.24,1.79-67.37-36.72-63.28ZM729.56,825.32c-.71.49-5.75,13.95-6.07,16.09-.52,3.56-.78,8.85-.36,12.36,1.7,14.2,20.15,13.54,20.12-.03,0-1.31-6.88-23.59-7.72-25.02-1.11-1.89-3.7-4.95-5.97-3.4ZM1252.48,837.92c-1.85-2.15-9.6,10.04-10.74,11.4-1.83,2.18-8.28,7.29-8.92,8.87-.75,1.86.8,4.17.46,6.6-.62,4.48-4.33,8.76-4.85,14.26-1.16,12.14,6.22,22.57,7.45,34.34.86,8.19-3.48,31.61,8.39,32.25,14.44.78,16.94-32.43,13.99-41.97-1.87-6.06-14.18-11.67-14.75-18.27-.64-7.49,11.83-44.17,8.97-47.48ZM1014.11,907.87c-54.34,7.87-37.42,131.87,19,138.59,19.2,2.29,29.83-15.5,35.07-31.38,13.75-41.69,5.31-115.81-54.07-107.21ZM1234.44,974.93c-27.02,1.53-28.87,50.36.41,43.44,20.14-4.76,23.7-44.81-.41-43.44ZM873.52,983.79c-24.69,4.24-37.48,55.31-4.66,49.75,25.48-4.32,36.94-55.3,4.66-49.75ZM700.07,985.08c-31.94,4.66-63.53,64.56-70.23,93.08-10.54,44.8,16.75,81.23,59.16,46.47,19.5-15.98,39.29-46.65,47.18-70.56,10.3-31.19,7.65-75.39-36.1-69ZM1291.75,1087.27c12.82-1.97,10.32-18.69,8.51-28.13-1.97-10.3-7.92-27.46-19.91-28.82,6.29,18.41,12.76,37.12,11.4,56.95ZM1119.02,1065.86l-3,4.63c.13,13.36-10.7,27.53-4.36,40.48,3.13,6.39,13.05,11.62,18.59,5.39,7-7.88,3.25-47.57-11.22-50.49ZM1216.72,1081.28c-48.72,6.32-49.68,118.63-5.79,129.18,42.24,10.15,57.07-45.06,54.2-76.96-2.23-24.82-19.65-55.95-48.41-52.22ZM911.54,1090.14c-37.57,5.43-85.92,81.17-51.63,111.7s88.89-13.18,99.69-47.2c11.7-36.83-6.24-70.54-48.06-64.5ZM586.07,1125.47c-15.21,3.15-21.13,54.41-1.53,54.08,17.51-.3,24.47-58.83,1.53-54.08ZM1130.54,1159.66c-9.26,2.84-4.62,37.59,6.81,28.33,8.17-6.61,7.47-32.72-6.81-28.33ZM710.15,1178.7c-16.3,3.3-32.1,31.96-33.69,47.34-2.3,22.36,9.06,41.7,34.07,35.32,32.88-8.38,48.95-92.64-.38-82.66ZM622.76,1198.91c-9.53,2.83-16.06,45.87-6.43,47.69,6.53,1.24,10.93-14.61,12.03-19.27,1.54-6.51,6.87-32.12-5.6-28.41ZM981.13,1201.46c-13.09,2.93-11.13,31.55,3.41,30.11,12.39-1.23,18.09-34.93-3.41-30.11ZM826.58,1226.71c-5.36,1.78-10.5,30.05.99,28.98,9.25-.86,15.71-34.52-.99-28.98ZM897.57,1266.04c-23.34,4.85-32.89,52.44-3.11,46.26,20.43-4.24,28.06-51.44,3.11-46.26ZM1193.85,1281.31c-12.42,0-26.73,30.36-15.78,35.41,15.72,7.24,24.85-17.91,22.46-30.05-.59-3-3.6-5.36-6.68-5.36ZM612.7,1286.24c-16.68,1.91-21.84,27.2-22.55,40.85-1.3,25.07,13.89,70.19,44.99,67.76,26.69-2.09,25.84-37.63,21.54-56.95-4.03-18.1-21.08-54.29-43.99-51.66ZM786.17,1286.29c-23.41,3.46-35.3,52.27-9.04,54.1,29.97,2.09,38.54-58.46,9.04-54.1ZM1053.67,1298.66c-11.62.43-17.77,20.73-20.84,30.43s-12.16,36.86,2.75,40.19c34.56,7.73,14.4-26.08,14.19-40.88-.14-9.75,4.87-19.9,3.9-29.74ZM556.01,1353.1v33.54c0,.85,5.32,13.55,6.3,15.22,4.77,8.15,20.71,20.64,26.45,7.78l-32.74-56.54Z"/>
          <path class="cls-3" d="M1253.75,599.95c67.97,68.77,67.94,139.05,107.82,219.44,20.47,41.27,58.29,73.52,61.85,121.71,2.23,30.12-3.2,58.16,3.91,88.5,17.63,75.23,85.05,143.33,52.44,224.75-13.09,32.68-26.24,53.73-30.82,90.71-5.41,43.61,13,87.17-24.22,121.35-29.53,27.12-71.65,42.18-103.75,65.91-8.14,6.02-35.56,29.24-38.4,37.58-1.75,5.15.22,7.18.16,12.17-5.23,1.43-8.19,5.5-13.13,7.77-5.58,2.58-23.43,7.47-28.51,4.39-4.27-2.59-19.43-30.14-25.31-36.73-10.56-11.85-18.9-10.14-32.07-2.89-27.45,15.12-47.81,46.44-71.49,66.51-38.82,10.22-74.49-8.63-111.74-13.59.74-3.79-1.84-2.26-4.18-2.71-3.89-.75-7.91-1.67-11.83-2.17-43.49-5.49-85.39,12.38-128.35,16.27-11.32-9.4-13.4-18.27-21.74-29.53-4.07-5.5-8.32-11.69-16.26-10.46-6.34.98-21.14,9.04-27.85,12.15-.89.41-2.99.02-4.69.95-2.91,1.59-4.9,5.11-7.9,6.08-13.59,4.39-58.24-20.46-78.11-22.05-25.53-2.05-45.11,13.22-68.85,18.81.82-11.48,3.51-6.22,11.74-7.88,6.96-1.41,14.35-9,6.43-14.71-6.92-4.99-14.83-5.84-17.53,3.6-9.11-4.11-10.35-13.94-22.79-14.01-11.5-.06-12.98,6.37-19.02,14.01l-1.88-5.05c3.22-6.67,12.71-29.07,19.91-30.18,5.53-.85,14.7,10.87,19.93,13.76,8.68,4.79,24.44,6.8,34.27,6.3,2.54-.13,2.69-1.2,1.87-3.17-.33-.8-13.9-3.78-16.53-5.01-22.42-10.46-26.65-46.12-37.71-66.1-4.77-8.61-14.82-21.17-21.74-28.26,10.73.62,19.07-8.69,29.76-8.97,14.82-.38,33.53,16.09,46.22-.53,14.35-18.8,6.88-55.49,42.28-52.36,25.24,2.23,42.87,30.35,64.72,32.76,49.81,5.48,84.33-82.24,141.84-82.28,45.3-.03,51.01,68.58,98.72,72.2,27.71,2.11,52.18-15.01,77.08,3.96,9.86,7.51,12.5,18.34,26.73,16.15,8.83-1.36,40.23-26.81,48.23-34.05,28.13-25.49,49.61-93.79,96.14-86.04,10.4,1.73,21.29,23.24,31.07,13.2,12.82-13.17,18.26-64.75,18.99-83.53.54-13.98-.99-8.16-6.88-15.88-7.52-9.87-5.51-30.37,1.28-40.35,2.75-4.04,12.15-9.64,12.95-12.37,1.9-6.47-.83-17.85.82-25.76,4.18-20,28.4-39.59,26.08-62.6-1-9.91-18.12-28.6-23.49-38.57-13.39-24.84-7.93-46.59-1.97-72.66-.6-1.97-6.21-2.57-8.71-4.01-20.81-12.04-31.02-57.43-12.1-73.98,2.23-1.95,8.36-3.37,8.03-6.73-.53-5.44-14.17-23.21-16.86-31.28-2.57-7.68-2.17-15.34-3.76-22.82-2.16-10.17-8.27-21.64-9.46-31.05-1.8-14.1,3.68-28.43,2.47-42.98-.52-6.31-4.78-14.77-4.94-18.88-.23-5.94,4.19-14.25,3.67-21.55-.59-8.26-7.68-18.22-8.8-26.72-1.59-12.03,1.64-27.34-.19-39.05-.78-5.01-5.9-10-7.75-15.04-2.73-7.43-6.55-29.79-7.34-38.23-.22-2.37-.86-6.56,1.25-8.21Z"/>
          <path class="cls-1" d="M1391.77,1518.92c-1.23,8.54-.61,27.76-7.51,33.62-5.55,4.71-25.9,5.71-34.54,8.52-1.33.43-3.82.32-3.52,2.14,10.21,2.21,26.33-3.5,35.52-.69,8.11,2.48,10.94,18.56,17.65,23.48.72-7.07-4.12-14.34-4.94-20.99-1.54-12.49,3.69-17.52,6.9-28.34.3-1.02,2.14-18.29,5.65-13.96-1.69,8.46,4.09,7.75,8.24,11.38,8.26,7.23,19.39,21.96,25.72,31.25,6.27,9.19,16.5,19.19,4.99,28.57-5.6,4.56-33.92,17.74-40.98,18.53-19.8,2.2-72.73-16.4-90.85-26.63-4.11-2.32-12.03-6.54-10.95-11.75,1.16-5.59,23.62-21.04,29.47-25.06,17.94-12.33,38.06-24.25,59.16-30.09Z"/>
          <path class="cls-1" d="M1192.96,1574.62c6.31,25.72,2.79,49.26-2.51,74.68,2.19-.35,2.2-2.52,2.87-4.08,10.04-23.47,11.32-45.35,9.8-70.6l46.24,55.66.6,3.81c-13.65,4.44-26.67,10.64-40.52,14.57-31.8,9.03-67.49,10.9-100.04,5.69-2.14-2.56,11.89-15.19,14.53-17.74,18.63-18.02,40.64-39.79,60.17-56.31,1.18-1,7.99-6.62,8.88-5.67Z"/>
          <path class="cls-1" d="M820.66,1601.19c.18,4.79,3.82,9.2,6.56,13.08,3.56,5.05,28.58,31.59,23.85,36.29-34.99,6.88-69.82-.95-103.85-8.87-2.05-1.8,5.29-5.13,6.31-5.72,18.43-10.54,37.94-19.38,56.62-29.47,3.5-1.89,5.78-6.03,10.5-5.31Z"/>
          <path class="cls-1" d="M587.67,1570.81l1.88,5.05c6.04-7.64,7.52-14.07,19.02-14.01,12.45.07,13.69,9.9,22.79,14.01,2.7-9.44,10.6-8.59,17.53-3.6,7.92,5.71.53,13.3-6.43,14.71-8.22,1.66-10.92-3.6-11.74,7.88,23.73-5.6,43.31-20.86,68.85-18.81,19.87,1.59,64.52,26.44,78.11,22.05,3-.97,4.99-4.49,7.9-6.08,1.71-.93,3.81-.54,4.69-.95,0,3.16-7.8,7.66-10.09,8.27-22.66,5.99-57.01-18.93-81.87-20.76-32.79-2.41-58.67,25.97-92.27,22.6-15.28-1.53-29.63-10.53-21.16-27.51.84-1.67,2.66-2.59,2.79-2.85Z"/>
          <path class="cls-1" d="M856.13,1618.91c42.96-3.89,84.86-21.76,128.35-16.27,3.91.49,7.94,1.42,11.83,2.17,2.35.45,4.93-1.08,4.18,2.71-27.91-3.72-52.43-3.08-80.02,2.92-12.61,2.75-54.64,17.96-64,10.6-.54-.42-.19-2-.34-2.13Z"/>
          <path class="cls-3" d="M1181.13,720.64c57.08,56.35-29.7,147.47-88.83,102.09-65.17-50.01,31.2-158.99,88.83-102.09Z"/>
          <path class="cls-3" d="M700.07,985.08c43.76-6.38,46.4,37.81,36.1,69-7.89,23.91-27.68,54.58-47.18,70.56-42.41,34.75-69.69-1.67-59.16-46.47,6.71-28.52,38.3-88.42,70.23-93.08Z"/>
          <path class="cls-3" d="M911.54,1090.14c41.82-6.04,59.76,27.67,48.06,64.5-10.81,34.03-66.9,76.41-99.69,47.2s14.06-106.28,51.63-111.7Z"/>
          <path class="cls-3" d="M1014.11,907.87c59.38-8.6,67.82,65.52,54.07,107.21-5.24,15.88-15.87,33.67-35.07,31.38-56.42-6.72-73.34-130.72-19-138.59Z"/>
          <path class="cls-3" d="M1216.72,1081.28c28.76-3.73,46.18,27.4,48.41,52.22,2.87,31.9-11.96,87.11-54.2,76.96-43.89-10.54-42.93-122.85,5.79-129.18Z"/>
          <path class="cls-3" d="M877.37,806.63c38.51-4.1,47.76,33.04,36.72,63.28-11.12,30.45-56.55,66.93-87.69,42.66-38.03-29.64,11.96-101.78,50.97-105.94Z"/>
          <path class="cls-3" d="M612.7,1286.24c22.9-2.62,39.96,33.56,43.99,51.66,4.3,19.32,5.15,54.86-21.54,56.95-31.11,2.43-46.29-42.68-44.99-67.76.71-13.66,5.87-38.94,22.55-40.85Z"/>
          <path class="cls-3" d="M710.15,1178.7c49.33-9.98,33.27,74.28.38,82.66-25.02,6.37-36.37-12.96-34.07-35.32,1.58-15.38,17.39-44.04,33.69-47.34Z"/>
          <path class="cls-3" d="M1252.48,837.92c2.86,3.31-9.62,39.99-8.97,47.48.57,6.59,12.88,12.21,14.75,18.27,2.95,9.54.45,42.75-13.99,41.97-11.87-.64-7.54-24.06-8.39-32.25-1.23-11.77-8.6-22.2-7.45-34.34.52-5.49,4.23-9.77,4.85-14.26.34-2.43-1.21-4.74-.46-6.6.64-1.58,7.09-6.7,8.92-8.87,1.14-1.36,8.89-13.55,10.74-11.4Z"/>
          <path class="cls-3" d="M786.17,1286.29c29.51-4.36,20.94,56.19-9.04,54.1-26.26-1.83-14.38-50.64,9.04-54.1Z"/>
          <path class="cls-3" d="M873.52,983.79c32.29-5.54,20.82,45.44-4.66,49.75-32.83,5.56-20.03-45.51,4.66-49.75Z"/>
          <path class="cls-3" d="M937.52,716.76c2.16-1.85,18.57-6.99,21.79-6.77,26.32,1.84-2.16,52.1-12.86,53.06-3.42.31-16.12-19.13-16.79-23.31-.5-3.14-.46-9,.48-12.02.2-.63,6.89-10.53,7.39-10.96Z"/>
          <path class="cls-3" d="M1053.67,1298.66c.97,9.83-4.03,19.98-3.9,29.74.2,14.8,20.37,48.61-14.19,40.88-14.91-3.33-5.84-30.42-2.75-40.19s9.22-30,20.84-30.43Z"/>
          <path class="cls-3" d="M897.57,1266.04c24.95-5.19,17.33,42.01-3.11,46.26-29.78,6.19-20.23-41.4,3.11-46.26Z"/>
          <path class="cls-3" d="M1234.44,974.93c24.11-1.36,20.55,38.69.41,43.44-29.28,6.92-27.43-41.92-.41-43.44Z"/>
          <path class="cls-3" d="M586.07,1125.47c22.94-4.75,15.98,53.78-1.53,54.08-19.6.33-13.69-50.93,1.53-54.08Z"/>
          <path class="cls-3" d="M1101.45,636.94c13.28-2.72,26.07,1.61,22.26,17.2-5.32,21.79-41.54,20.28-36.82-2.65,1.13-5.49,9.07-13.43,14.56-14.55Z"/>
          <path class="cls-3" d="M1119.02,1065.86c14.47,2.92,18.22,42.61,11.22,50.49-5.54,6.23-15.46,1.01-18.59-5.39-6.34-12.95,4.49-27.11,4.36-40.48l3-4.63Z"/>
          <path class="cls-3" d="M556.01,1353.1l32.74,56.54c-5.73,12.87-21.68.37-26.45-7.78-.98-1.68-6.3-14.37-6.3-15.22v-33.54Z"/>
          <path class="cls-3" d="M1224.26,616.67c3.25-.73,9.9-.68,13.1.3,13.57,4.15,10.34,36.68-13.65,28.84-13.29-4.34-11.35-26.45.56-29.13Z"/>
          <path class="cls-3" d="M1002.66,781.22c25.08-5.68,20.6,42.31-2.03,31.87-12.71-5.87-10.94-28.93,2.03-31.87Z"/>
          <path class="cls-3" d="M1193.85,1281.31c3.08,0,6.09,2.35,6.68,5.36,2.39,12.14-6.74,37.29-22.46,30.05-10.94-5.04,3.36-35.4,15.78-35.41Z"/>
          <path class="cls-3" d="M622.76,1198.91c12.47-3.7,7.14,21.91,5.6,28.41-1.1,4.67-5.5,20.51-12.03,19.27-9.63-1.82-3.1-44.86,6.43-47.69Z"/>
          <path class="cls-3" d="M981.13,1201.46c21.5-4.82,15.8,28.88,3.41,30.11-14.54,1.44-16.5-27.17-3.41-30.11Z"/>
          <path class="cls-3" d="M729.56,825.32c2.27-1.56,4.87,1.51,5.97,3.4.84,1.43,7.72,23.71,7.72,25.02.03,13.57-18.42,14.23-20.12.03-.42-3.51-.17-8.8.36-12.36.31-2.15,5.36-15.61,6.07-16.09Z"/>
          <path class="cls-3" d="M1291.75,1087.27c1.37-19.83-5.11-38.54-11.4-56.95,11.99,1.36,17.94,18.52,19.91,28.82,1.81,9.44,4.31,26.16-8.51,28.13Z"/>
          <path class="cls-3" d="M1149.62,582.47c8.83-1.25,20.48,8.33,21.75,16.93,1.04,7.05-.11,8.42-6.9,8.22-13.38-.4-32.39-22.67-14.85-25.15Z"/>
          <path class="cls-3" d="M1130.54,1159.66c14.28-4.39,14.98,21.72,6.81,28.33-11.43,9.26-16.07-25.49-6.81-28.33Z"/>
          <path class="cls-3" d="M826.58,1226.71c16.71-5.54,10.24,28.11.99,28.98-11.49,1.07-6.35-27.2-.99-28.98Z"/>
          <path class="cls-3" d="M1231.86,743.24c13.91-4.12,9.06,22.18-2.78,20.03-6.29-1.15-3.4-18.2,2.78-20.03Z"/>
        </g>
      </g>
      <rect class="cls-5" width="2048.06" height="2048.2"/>
    </g>
  </g>
</svg>