<?xml version="1.0" encoding="UTF-8"?>
<svg id="Layer_2" data-name="Layer 2" xmlns="http://www.w3.org/2000/svg" viewBox="0 0 2048.06 2048.2">
  <defs>
    <style>
      .cls-1 {
        fill: #606060;
      }

      .cls-2 {
        fill: #7d9b7a;
      }

      .cls-3 {
        fill: #030404;
      }

      .cls-4 {
        fill: #667d66;
      }

      .cls-5 {
        opacity: 0;
      }
    </style>
  </defs>
  <g id="PukeEgg">
    <g>
      <g>
        <path class="cls-1" d="M1171.48,1614.57c5.81-1.23,11.87-1.66,17.6-3.3,7.61-2.18,20.29-10.27,27.12-9.96,5.59.25,20,13.23,27.65,16.62,35.25,15.61,121.59,12.67,155.33-6.75,8.23-4.74,9.04-21.77,5.35-29.7-9.25-19.86-34.91-38.11-49.25-54.65-.98-1.01-1.23-2.16-1.15-3.54.36-6.15,30.63-37.38,36.34-46.18,22.92-35.31,10.8-68.35,13.86-106.73,4.05-50.82,43.33-101.6,61.47-148.68,34.42-89.31,13.68-198.68-24.26-283.75-16.37-36.72-38.28-71-52.46-108.73-19.88-52.9-26.2-109.61-41.5-163.86-46.08-163.35-172.77-326.23-363.09-266.27-185.57,58.47-322.47,311.74-388.43,482.06-39.77,102.69-85.64,234.78-53.7,344.4,17.3,59.38,67.32,120.53,65.4,183.06-1.06,34.28-12.51,66.68,3.68,100.09,6.56,13.55,17.05,22.22,27.29,32.39-6.84,2.77-13.44,3.92-20.31,7.12-6.53,3.05-13.97,8.12-19.64,12.6-4.15,3.28-23.79,22.12-24.49,25.66-2.56,12.97,10.51,25.02,22.14,27.96,20.86,5.26,41.57-1.38,62.47,2.62,2.75,9.13,1.32,18.02,9.79,24.24,17.68,12.99,85.48,18.71,107.99,17.38,21.41-1.26,78.42-9.84,80.64-37.61.39-4.88-2.77-12.43-.02-15.53,1.62-1.84,17.07-6.71,20.25-7.2,21.09-3.26,31.96,14.25,50.15,20.43l57.41,6.5c-4.1,18.68-14.23,29.71,7.55,40.8,35.69,18.17,131.63,11.74,168.82-3.58,10.52-4.33,19.94-10.11,18.02-23.2-.66-4.51-9.8-22.65-8.03-24.72Z"/>
        <path class="cls-3" d="M1171.48,1614.57c-1.76,2.06,7.37,20.21,8.03,24.72,1.92,13.09-7.5,18.87-18.02,23.2-37.2,15.32-133.13,21.74-168.82,3.58-21.77-11.08-11.64-22.11-7.55-40.8l-57.41-6.5c-18.19-6.17-29.07-23.69-50.15-20.43-3.17.49-18.62,5.37-20.25,7.2-2.74,3.1.41,10.65.02,15.53-2.22,27.76-59.23,36.35-80.64,37.61-22.52,1.33-90.31-4.39-107.99-17.38-8.47-6.22-7.04-15.11-9.79-24.24-20.9-4-41.61,2.64-62.47-2.62-11.63-2.93-24.7-14.99-22.14-27.96.7-3.54,20.34-22.38,24.49-25.66,5.67-4.48,13.1-9.56,19.64-12.6,6.87-3.2,13.47-4.35,20.31-7.12-10.24-10.17-20.73-18.84-27.29-32.39-16.19-33.41-4.73-65.81-3.68-100.09,1.93-62.52-48.1-123.67-65.4-183.06-31.93-109.62,13.94-241.71,53.7-344.4,65.95-170.32,202.85-423.59,388.43-482.06,190.32-59.97,317.01,102.92,363.09,266.27,15.3,54.25,21.62,110.96,41.5,163.86,14.18,37.73,36.09,72.02,52.46,108.73,37.94,85.07,58.68,194.43,24.26,283.75-18.14,47.08-57.42,97.86-61.47,148.68-3.06,38.38,9.06,71.42-13.86,106.73-5.71,8.8-35.98,40.03-36.34,46.18-.08,1.37.17,2.53,1.15,3.54,14.34,16.54,40,34.79,49.25,54.65,3.7,7.94,2.88,24.97-5.35,29.7-33.74,19.42-120.08,22.37-155.33,6.75-7.65-3.39-22.07-16.38-27.65-16.62-6.83-.3-19.51,7.79-27.12,9.96-5.74,1.64-11.79,2.07-17.6,3.3ZM595.77,1285c17.39,37.07,49.98,82.26,45.26,124.64-2.74,24.62-18.32,43.05-9.49,70.63,7.07,22.09,45.59,64.61,69.93,65.1,18.73.38,32.14-21.8,49.23-27.28,19.39-6.21,34.49,4.68,46.94,18.2,6.44,7,29.2,41.27,35.25,42.41,9.53,1.8,23.29-12.84,32.83-16.08,27.1-9.19,33.49,11.18,52.89,21.08,18.97,9.68,65.17,12.73,86.06,9.18,38.2-6.48,79.9-99.6,123.2-45.25,7.32,9.18,14.04,31.25,21.44,37.07,8.35,6.56,31.55-1.9,40.84-5.78,36.14-15.12,46.33-37.54,70.82-64.11,12.85-13.94,28.12-32.23,48.19-20.65,16.03,9.25,12.43,17.14,28.89-.2,12.27-12.92,30.81-35.65,35.82-52.54,6.89-23.24.91-48.56,1.79-72.23,2.71-72.55,64.12-133.52,78.23-203.56,20.02-99.4-26.34-173.25-65.31-258.28-73.44-160.25-49.63-345.95-218.35-453.3-66.47-42.29-124.09-47.42-196.68-14.54-191.18,86.61-329.83,364.35-386.74,556.57-32.75,110.6-41.34,181.71,8.95,288.92ZM1375.66,1588.24c1.53-2.06-11.58-16.73-13.72-19.1-7.05-7.83-16.66-17.42-24.48-24.48-5.32-4.8-31.21-26.58-36.41-26.9-3.2-.19-1.91,5.38-1.67,7.66,1.44,13.72,5.87,27.19,8.18,40.76-2.82-1.22-5.37-5.98-6.91-8.6-2.74-4.68-11.33-24.36-14.56-26.1-1-.53-1.63-.7-2.76-.4-5.25,1.39-36.39,52.07-35.38,56.46,38.86,22.18,87.07,13.93,127.7.7ZM731.92,1628.85c.83,2.73,3.08,2.33,5.31,2.46,30.13,1.73,60.21-2.59,89.05-10.83-5.95-23.42-21.67-44.28-39.4-60.3-5.34-4.82-12.6-11.08-19.13-13.71-1.35-5.14-2.26-9-8.64-8.14-19.55,2.63-59.49,52.55-66.82,70.6-1.59,3.92-5.36,10.98-1.46,13.83,2.61,1.91,28.07,6.98,32.32,7.18,3.06.14,5.82-.52,8.76-1.1ZM1073.5,1613.33c1.64-6.01,7.53-39.69,3.67-42.47-3.62-2.61-15.36,8.48-18.63,11.4-10.86,9.67-24.12,23.45-33.43,34.64-3.86,4.64-19.55,22.92-15.95,28.52.96,1.5,30.96,5.85,35.09,6.11,15.22.96,30.94-.15,45.97-1.18,15.68-1.08,30.86-2.13,46-7.14,6.74-2.23,12.72-2.64,11.06-11.08-3.18-16.11-29.59-61.85-42.7-71.94-10.29-7.92-8.43,6.36-10.37,13.56-3.76,13.96-11.1,28.82-20.71,39.59ZM677.76,1586.65c6.34-5.92,9.58-16.89,1.53-22.79-13.26-9.72-44.95-.41-58.08,7.45-5.02,3.01-24.02,19.62-10.44,21.65,3.99.6,11.15,1.09,15.4,1.32,12.54.67,42.3,1.05,51.59-7.63Z"/>
        <path class="cls-2" d="M1170.24,454.05c.07,5.7,3.21,10.3,5.77,15.13,16.16,30.49,39.77,57.58,54.16,89.13,18.22,39.95,27.92,101.97,29.7,145.82,1.55,38.45-23.78,53.41-1.45,93.38,6.97,12.48,17.06,23.44,22.73,36.98,12.89,30.81-1.94,66.94.18,98.91,2.5,37.64,32.11,70.54,23.32,109.3-4.31,19-19.55,36.45-26.74,54.45-10.21,25.55-5.63,55.06-11.24,81.89-10.47,50.09-44.22,30.98-79.31,44.88-65.4,25.91-89.65,123.53-165.81,129.14-33.71,2.48-66.16-8.92-88.99-33.98-13.26-14.56-32.96-54.05-55.5-52.02-19.34,1.73-49.68,47.27-64.46,60.98-26.86,24.92-86.55,46.41-122.94,41.65-36.81-4.81-34.87-73.19-70.36-86.07-8.95-3.25-15.02-3.22-23.5,1.4-50.29-107.22-41.7-178.32-8.95-288.92,56.92-192.23,195.57-469.96,386.74-556.57,72.58-32.88,130.2-27.76,196.68,14.54ZM1011.08,445.98c-8.22,1.42-34.94,17.93-39.74,24.74-6.06,8.58-2.12,18.15,8.39,19.19,10.45,1.04,41.86-10.07,49.04-17.89,11.8-12.86-.55-28.99-17.69-26.03ZM1074.34,490.12c-12.11,2.77-12.21,30.06,6.67,25.75,13.07-2.98,13.22-30.3-6.67-25.75ZM1159.08,518.72c-3.95,1.34-4.75,12.75-.8,14.73,10.9,5.47,15.37-19.7.8-14.73ZM956.1,546.23c-6.02,1.81-8.69,15.53-1.37,16.49,13.95,1.82,16.3-20.98,1.37-16.49ZM1123.39,557.06c-53.56,6.24-80.07,101.23-32.37,130.78,36.98,22.91,89.9-9.07,93.52-50.55,3.06-35.02-19.88-85.04-61.16-80.24ZM1207.26,584.19c2.38-18.76-12.35-16.34-11.95,0h11.95ZM1001.55,602.32c-19.89,2.96-27.91,43.23-.84,37.44,20.26-4.33,22.52-40.67.84-37.44ZM819.99,603.58c-19.95,3.39-39.77,52.12-5.16,47.36,25.19-3.47,34.99-52.42,5.16-47.36ZM780.6,706.24c-15.77.89-25.68,29.77-12.91,33.81,18.74,5.93,33.11-34.95,12.91-33.81ZM993.16,726.55c-19.72,3.26-24.42,43.54-7.38,46.21,23.01,3.61,37.68-51.21,7.38-46.21ZM793.74,791.04c-28.27,3.84-59.46,49.96-68.11,75.18-9.58,27.91-19.5,90.47,24.77,91.72,38.77,1.1,81.81-49.61,89.65-84.79,7.96-35.71,2.48-88.74-46.31-82.11ZM1192.63,822c-15.18,2.93-13.87,33.31.89,33.27,17.71-.04,16.35-36.6-.89-33.27ZM676.67,851.8c-10.07,1.85-21.84,32.2-14,39.79,13.81,13.37,36.58-43.93,14-39.79ZM1204.61,913.98c-49.49,5.21-58.11,122.08-.21,128.53,41.09,4.58,51.36-60.33,43.13-89.67-4.89-17.42-22.84-40.98-42.92-38.86ZM653.96,952.08c-7.49,2.05-13.12,25.1-1.48,26.19,15.29,1.44,14.19-29.66,1.48-26.19ZM657.56,1015.47c-19.44,3.29-30.97,41.4-33.94,57.99-2.55,14.23-6.11,35.03,6.76,45.02,25.1,19.46,41.64-33.63,45.05-50.53,3.26-16.12,9.89-57.18-17.87-52.48ZM770.99,1023.8c-13.07,3.02-28.95,43.56-.32,39.06,16.84-2.65,23.43-44.39.32-39.06ZM915.54,1089.46c-14.1,2.75-24.04,31.93-7.17,35.36,18.25,3.72,28.58-39.54,7.17-35.36ZM1174.69,1108.59c-19.46,4-32.93,59.68-1.8,49.53,20.01-6.53,28.3-54.97,1.8-49.53ZM817.62,1114.59c-15.53,2.1-36.86,22.06-44.88,35.12-11.97,19.49-22.13,69.65,5.98,79.56,30.71,10.82,64.3-24.23,72.67-51.07,8.36-26.8,2.86-68.56-33.77-63.6ZM710.09,1137.2c-11.5,2.59-19.83,37.83.41,31.46,11.95-3.76,15.49-35.03-.41-31.46ZM956.13,1177.83c-18.02,3.71-28.94,52.97-.54,47.2,17.56-3.57,26.65-52.58.54-47.2ZM628.85,1183.77c-13.49,4.04-13.9,45.68-1.68,52.52,13.55,7.59,21.38-8.62,22.32-19.96.97-11.74-3.91-37.57-20.64-32.56ZM1113.79,1186.12c-12.3,2.54-17.86,39.63,2.71,30.24,11.91-5.44,11.75-33.22-2.71-30.24ZM716.08,1260.11c-9.69,1.78-20.23,30.1-5.93,31.83,17.39,2.1,22.2-34.82,5.93-31.83Z"/>
        <path class="cls-4" d="M595.77,1285c8.48-4.62,14.55-4.65,23.5-1.4,35.48,12.88,33.55,81.26,70.36,86.07,36.4,4.75,96.09-16.74,122.94-41.65,14.78-13.71,45.12-59.24,64.46-60.98,22.54-2.02,42.24,37.46,55.5,52.02,22.83,25.06,55.29,36.46,88.99,33.98,76.16-5.61,100.41-103.23,165.81-129.14,35.09-13.9,68.84,5.21,79.31-44.88,5.61-26.83,1.03-56.34,11.24-81.89,7.2-18,22.43-35.45,26.74-54.45,8.8-38.76-20.81-71.66-23.32-109.3-2.12-31.96,12.71-68.1-.18-98.91-5.67-13.54-15.76-24.5-22.73-36.98-22.33-39.96,3-54.93,1.45-93.38-1.77-43.85-11.47-105.86-29.7-145.82-14.39-31.55-38-58.64-54.16-89.13-2.56-4.83-5.69-9.42-5.77-15.13,168.72,107.35,144.91,293.04,218.35,453.3,38.97,85.03,85.33,158.88,65.31,258.28-14.11,70.04-75.51,131.01-78.23,203.56-.89,23.67,5.1,48.99-1.79,72.23-5.01,16.89-23.55,39.62-35.82,52.54-16.47,17.33-12.87,9.45-28.89.2-20.06-11.58-35.34,6.71-48.19,20.65-24.49,26.57-34.68,48.99-70.82,64.11-9.29,3.89-32.49,12.34-40.84,5.78-7.41-5.82-14.13-27.88-21.44-37.07-43.29-54.35-85,38.77-123.2,45.25-20.89,3.54-67.1.5-86.06-9.18-19.4-9.9-25.79-30.27-52.89-21.08-9.54,3.24-23.31,17.87-32.83,16.08-6.05-1.14-28.81-35.41-35.25-42.41-12.44-13.52-27.54-24.41-46.94-18.2-17.09,5.47-30.5,27.66-49.23,27.28-24.35-.49-62.87-43-69.93-65.1-8.83-27.58,6.75-46.01,9.49-70.63,4.72-42.38-27.87-87.57-45.26-124.64Z"/>
        <path class="cls-4" d="M1375.66,1588.24c-40.62,13.23-88.84,21.48-127.7-.7-1.01-4.39,30.12-55.07,35.38-56.46,1.13-.3,1.76-.13,2.76.4,3.23,1.73,11.81,21.42,14.56,26.1,1.54,2.62,4.08,7.38,6.91,8.6-2.31-13.57-6.74-27.04-8.18-40.76-.24-2.28-1.53-7.86,1.67-7.66,5.2.32,31.09,22.09,36.41,26.9,7.83,7.06,17.44,16.64,24.48,24.48,2.14,2.37,15.24,17.05,13.72,19.1Z"/>
        <path class="cls-2" d="M731.92,1628.85c-2.94.58-5.7,1.24-8.76,1.1-4.25-.2-29.71-5.27-32.32-7.18-3.9-2.85-.13-9.91,1.46-13.83,7.33-18.06,47.27-67.98,66.82-70.6,6.38-.86,7.29,3,8.64,8.14,10.26,38.94,10.95,73.13-35.83,82.38Z"/>
        <path class="cls-4" d="M1090.22,1650.34c-4.87-7.49-32.64-1.23-35.83-3.59,6.65-11.23,15.59-20.5,19.11-33.42,9.61-10.77,16.95-25.63,20.71-39.59,1.94-7.2.07-21.48,10.37-13.56,13.11,10.09,39.52,55.83,42.7,71.94,1.66,8.44-4.31,8.84-11.06,11.08-15.14,5.01-30.32,6.06-46,7.14Z"/>
        <path class="cls-4" d="M767.75,1546.47c6.52,2.63,13.79,8.89,19.13,13.71,17.73,16.02,33.44,36.88,39.4,60.3-28.84,8.23-58.91,12.55-89.05,10.83-2.23-.13-4.47.27-5.31-2.46,46.78-9.25,46.09-43.44,35.83-82.38Z"/>
        <path class="cls-2" d="M1073.5,1613.33c-3.52,12.92-12.46,22.19-19.11,33.42,3.19,2.36,30.96-3.9,35.83,3.59-15.03,1.03-30.75,2.14-45.97,1.18-4.13-.26-34.12-4.62-35.09-6.11-3.6-5.6,12.09-23.87,15.95-28.52,9.3-11.19,22.57-24.96,33.43-34.64,3.27-2.92,15.01-14.01,18.63-11.4,3.86,2.78-2.03,36.46-3.67,42.47Z"/>
        <path class="cls-4" d="M677.76,1586.65c-9.29,8.68-39.04,8.3-51.59,7.63-4.25-.23-11.42-.72-15.4-1.32-13.57-2.03,5.42-18.64,10.44-21.65,13.13-7.86,44.82-17.17,58.08-7.45,8.05,5.9,4.81,16.87-1.53,22.79Z"/>
        <path class="cls-4" d="M793.74,791.04c48.79-6.63,54.27,46.4,46.31,82.11-7.84,35.18-50.88,85.89-89.65,84.79-44.27-1.26-34.35-63.81-24.77-91.72,8.65-25.21,39.84-71.34,68.11-75.18Z"/>
        <path class="cls-4" d="M1123.39,557.06c41.27-4.81,64.21,45.22,61.16,80.24-3.62,41.48-56.54,73.46-93.52,50.55-47.71-29.55-21.19-124.54,32.37-130.78Z"/>
        <path class="cls-4" d="M1204.61,913.98c20.08-2.12,38.03,21.45,42.92,38.86,8.23,29.34-2.03,94.25-43.13,89.67-57.9-6.45-49.28-123.32.21-128.53Z"/>
        <path class="cls-4" d="M817.62,1114.59c36.63-4.96,42.13,36.81,33.77,63.6-8.37,26.85-41.96,61.89-72.67,51.07-28.12-9.9-17.96-60.06-5.98-79.56,8.02-13.06,29.35-33.02,44.88-35.12Z"/>
        <path class="cls-4" d="M657.56,1015.47c27.76-4.7,21.13,36.36,17.87,52.48-3.41,16.9-19.95,69.99-45.05,50.53-12.88-9.98-9.31-30.79-6.76-45.02,2.97-16.59,14.5-54.69,33.94-57.99Z"/>
        <path class="cls-4" d="M1011.08,445.98c17.14-2.95,29.48,13.18,17.69,26.03-7.18,7.83-38.59,18.93-49.04,17.89-10.51-1.04-14.45-10.61-8.39-19.19,4.81-6.81,31.53-23.32,39.74-24.74Z"/>
        <path class="cls-4" d="M819.99,603.58c29.83-5.06,20.03,43.89-5.16,47.36-34.61,4.76-14.79-43.97,5.16-47.36Z"/>
        <path class="cls-4" d="M1174.69,1108.59c26.49-5.45,18.21,43-1.8,49.53-31.12,10.15-17.65-45.53,1.8-49.53Z"/>
        <path class="cls-4" d="M628.85,1183.77c16.73-5.01,21.61,20.82,20.64,32.56-.94,11.34-8.76,27.55-22.32,19.96-12.22-6.85-11.81-48.48,1.68-52.52Z"/>
        <path class="cls-4" d="M956.13,1177.83c26.11-5.37,17.02,43.63-.54,47.2-28.4,5.77-17.48-43.49.54-47.2Z"/>
        <path class="cls-4" d="M993.16,726.55c30.31-5,15.64,49.82-7.38,46.21-17.05-2.67-12.34-42.95,7.38-46.21Z"/>
        <path class="cls-4" d="M1001.55,602.32c21.68-3.22,19.42,33.11-.84,37.44-27.07,5.79-19.05-34.49.84-37.44Z"/>
        <path class="cls-4" d="M770.99,1023.8c23.11-5.33,16.52,36.41-.32,39.06-28.63,4.5-12.75-36.05.32-39.06Z"/>
        <path class="cls-4" d="M915.54,1089.46c21.41-4.18,11.08,39.08-7.17,35.36-16.87-3.44-6.93-32.61,7.17-35.36Z"/>
        <path class="cls-4" d="M676.67,851.8c22.58-4.14-.19,53.16-14,39.79-7.84-7.59,3.93-37.94,14-39.79Z"/>
        <path class="cls-4" d="M780.6,706.24c20.21-1.14,5.84,39.73-12.91,33.81-12.77-4.04-2.86-32.91,12.91-33.81Z"/>
        <path class="cls-4" d="M1192.63,822c17.24-3.33,18.61,33.23.89,33.27-14.77.04-16.07-30.34-.89-33.27Z"/>
        <path class="cls-4" d="M710.09,1137.2c15.9-3.57,12.35,27.69.41,31.46-20.24,6.38-11.91-28.87-.41-31.46Z"/>
        <path class="cls-4" d="M1113.79,1186.12c14.46-2.99,14.63,24.8,2.71,30.24-20.57,9.39-15.01-27.7-2.71-30.24Z"/>
        <path class="cls-4" d="M716.08,1260.11c16.26-2.99,11.45,33.93-5.93,31.83-14.3-1.72-3.75-30.05,5.93-31.83Z"/>
        <path class="cls-4" d="M1074.34,490.12c19.89-4.54,19.74,22.77,6.67,25.75-18.87,4.3-18.78-22.99-6.67-25.75Z"/>
        <path class="cls-4" d="M653.96,952.08c12.71-3.47,13.81,27.62-1.48,26.19-11.64-1.09-6.01-24.14,1.48-26.19Z"/>
        <path class="cls-4" d="M956.1,546.23c14.93-4.49,12.57,18.31-1.37,16.49-7.31-.95-4.64-14.68,1.37-16.49Z"/>
        <path class="cls-4" d="M1159.08,518.72c14.57-4.96,10.1,20.2-.8,14.73-3.95-1.98-3.14-13.39.8-14.73Z"/>
        <path class="cls-4" d="M1207.26,584.19h-11.95c-.4-16.34,14.34-18.76,11.95,0Z"/>
      </g>
      <rect class="cls-5" width="2048.06" height="2048.2"/>
    </g>
  </g>
</svg>